<ttFont>
<head>
    <!-- Most of this table will be recalculated by the compiler -->
    <tableVersion value="1.0"/>
    <fontRevision value="1.0"/>
    <checkSumAdjustment value="0xb00e587"/>
    <magicNumber value="0x5f0f3cf5"/>
    <flags value="00000000 00011111"/>
    <unitsPerEm value="1000"/>
    <created value="Tue Jan 17 04:00:36 2017"/>
    <modified value="Tue Jan 17 04:00:36 2017"/>
    <xMin value="-23"/>
    <yMin value="-216"/>
    <xMax value="1219"/>
    <yMax value="725"/>
    <macStyle value="00000000 00000011"/>
    <lowestRecPPEM value="8"/>
    <fontDirectionHint value="2"/>
    <indexToLocFormat value="0"/>
    <glyphDataFormat value="0"/>
  </head>
    <TTGlyph name=".notdef" xMin="50" yMin="0" xMax="200" yMax="533">
      <contour>
        <pt x="50" y="0" on="1"/>
        <pt x="50" y="533" on="1"/>
        <pt x="200" y="533" on="1"/>
        <pt x="200" y="0" on="1"/>
      </contour>
      <contour>
        <pt x="100" y="50" on="1"/>
        <pt x="150" y="50" on="1"/>
        <pt x="150" y="483" on="1"/>
        <pt x="100" y="483" on="1"/>
      </contour>
    </TTGlyph>
    <TTGlyph name="A" xMin="45" yMin="0" xMax="839" yMax="711">
      <contour>
        <pt x="65" y="0" on="1"/>
        <pt x="45" y="0" on="0"/>
        <pt x="45" y="18" on="1"/>
        <pt x="45" y="35" on="0"/>
        <pt x="54" y="53" on="1"/>
        <pt x="58" y="60" on="0"/>
        <pt x="66" y="62" on="0"/>
        <pt x="81" y="62" on="1"/>
        <pt x="108" y="62" on="0"/>
        <pt x="142" y="66" on="1"/>
        <pt x="160" y="68" on="0"/>
        <pt x="165" y="74" on="1"/>
        <pt x="166" y="74" on="0"/>
        <pt x="365" y="383" on="0"/>
        <pt x="566" y="696" on="0"/>
        <pt x="569" y="699" on="1"/>
        <pt x="576" y="707" on="0"/>
        <pt x="590" y="711" on="0"/>
        <pt x="611" y="711" on="1"/>
        <pt x="620" y="711" on="1"/>
        <pt x="640" y="711" on="0"/>
        <pt x="649" y="700" on="1"/>
        <pt x="650" y="697" on="0"/>
        <pt x="695" y="380" on="1"/>
        <pt x="741" y="63" on="1"/>
        <pt x="784" y="62" on="1"/>
        <pt x="827" y="62" on="1"/>
        <pt x="839" y="50" on="0"/>
        <pt x="839" y="45" on="1"/>
        <pt x="835" y="29" on="1"/>
        <pt x="831" y="9" on="0"/>
        <pt x="823" y="0" on="0"/>
        <pt x="806" y="0" on="1"/>
        <pt x="788" y="0" on="0"/>
        <pt x="694" y="2" on="0"/>
        <pt x="657" y="2" on="1"/>
        <pt x="621" y="2" on="0"/>
        <pt x="523" y="0" on="0"/>
        <pt x="504" y="0" on="1"/>
        <pt x="481" y="0" on="0"/>
        <pt x="481" y="17" on="1"/>
        <pt x="481" y="36" on="0"/>
        <pt x="490" y="54" on="1"/>
        <pt x="499" y="63" on="0"/>
        <pt x="506" y="63" on="1"/>
        <pt x="507" y="63" on="0"/>
        <pt x="530" y="62" on="0"/>
        <pt x="541" y="62" on="1"/>
        <pt x="569" y="62" on="1"/>
        <pt x="580" y="62" on="0"/>
        <pt x="580" y="63" on="1"/>
        <pt x="580" y="68" on="0"/>
        <pt x="565" y="174" on="0"/>
        <pt x="564" y="179" on="1"/>
        <pt x="564" y="181" on="1"/>
        <pt x="308" y="181" on="1"/>
        <pt x="271" y="124" on="1"/>
        <pt x="236" y="69" on="0"/>
        <pt x="236" y="65" on="0"/>
        <pt x="283" y="62" on="1"/>
        <pt x="299" y="62" on="0"/>
        <pt x="307" y="60" on="1"/>
        <pt x="316" y="56" on="0"/>
        <pt x="316" y="46" on="1"/>
        <pt x="316" y="26" on="0"/>
        <pt x="307" y="8" on="1"/>
        <pt x="302" y="3" on="0"/>
        <pt x="295" y="0" on="1"/>
        <pt x="262" y="1" on="1"/>
        <pt x="242" y="2" on="0"/>
        <pt x="168" y="2" on="1"/>
        <pt x="142" y="2" on="0"/>
        <pt x="76" y="0" on="0"/>
      </contour>
      <contour>
        <pt x="537" y="372" on="1"/>
        <pt x="533" y="402" on="0"/>
        <pt x="523" y="469" on="0"/>
        <pt x="518" y="503" on="0"/>
        <pt x="518" y="504" on="1"/>
        <pt x="518" y="505" on="1"/>
        <pt x="517" y="505" on="0"/>
        <pt x="433" y="375" on="1"/>
        <pt x="348" y="244" on="1"/>
        <pt x="451" y="243" on="1"/>
        <pt x="555" y="243" on="0"/>
        <pt x="555" y="244" on="1"/>
        <pt x="547" y="302" on="0"/>
      </contour>
    </TTGlyph>
    <TTGlyph name="B" xMin="43" yMin="0" xMax="853" yMax="686">
      <contour>
        <pt x="162" y="62" on="1"/>
        <pt x="163" y="68" on="0"/>
        <pt x="233" y="348" on="0"/>
        <pt x="302" y="622" on="0"/>
        <pt x="302" y="624" on="0"/>
        <pt x="214" y="624" on="0"/>
        <pt x="209" y="626" on="1"/>
        <pt x="202" y="629" on="0"/>
        <pt x="199" y="639" on="1"/>
        <pt x="199" y="643" on="0"/>
        <pt x="203" y="659" on="1"/>
        <pt x="209" y="681" on="0"/>
        <pt x="216" y="684" on="1"/>
        <pt x="220" y="686" on="0"/>
        <pt x="449" y="686" on="1"/>
        <pt x="647" y="685" on="0"/>
        <pt x="695" y="684" on="0"/>
        <pt x="720" y="679" on="1"/>
        <pt x="853" y="653" on="0"/>
        <pt x="853" y="547" on="1"/>
        <pt x="853" y="511" on="0"/>
        <pt x="838" y="481" on="1"/>
        <pt x="793" y="394" on="0"/>
        <pt x="670" y="363" on="1"/>
        <pt x="667" y="363" on="0"/>
        <pt x="659" y="361" on="0"/>
        <pt x="656" y="360" on="1"/>
        <pt x="654" y="360" on="1"/>
        <pt x="648" y="360" on="0"/>
        <pt x="656" y="358" on="1"/>
        <pt x="659" y="358" on="0"/>
        <pt x="665" y="357" on="1"/>
        <pt x="745" y="343" on="0"/>
        <pt x="782" y="295" on="1"/>
        <pt x="804" y="266" on="0"/>
        <pt x="804" y="224" on="1"/>
        <pt x="804" y="187" on="0"/>
        <pt x="787" y="152" on="1"/>
        <pt x="755" y="86" on="0"/>
        <pt x="623" y="7" on="0"/>
        <pt x="533" y="1" on="1"/>
        <pt x="524" y="0" on="0"/>
        <pt x="288" y="0" on="1"/>
        <pt x="58" y="0" on="1"/>
        <pt x="47" y="4" on="0"/>
        <pt x="43" y="15" on="1"/>
        <pt x="43" y="19" on="0"/>
        <pt x="47" y="35" on="1"/>
        <pt x="53" y="57" on="0"/>
        <pt x="60" y="60" on="1"/>
        <pt x="64" y="62" on="0"/>
        <pt x="113" y="62" on="1"/>
      </contour>
      <contour>
        <pt x="703" y="550" on="1"/>
        <pt x="703" y="606" on="0"/>
        <pt x="643" y="623" on="1"/>
        <pt x="545" y="624" on="1"/>
        <pt x="447" y="624" on="1"/>
        <pt x="417" y="504" on="1"/>
        <pt x="386" y="384" on="0"/>
        <pt x="386" y="382" on="0"/>
        <pt x="470" y="382" on="1"/>
        <pt x="554" y="383" on="0"/>
        <pt x="565" y="385" on="1"/>
        <pt x="656" y="402" on="0"/>
        <pt x="692" y="491" on="1"/>
        <pt x="703" y="524" on="0"/>
      </contour>
      <contour>
        <pt x="651" y="240" on="1"/>
        <pt x="651" y="309" on="0"/>
        <pt x="592" y="329" on="1"/>
        <pt x="587" y="330" on="0"/>
        <pt x="479" y="331" on="1"/>
        <pt x="373" y="331" on="1"/>
        <pt x="340" y="198" on="1"/>
        <pt x="307" y="65" on="0"/>
        <pt x="306" y="64" on="1"/>
        <pt x="306" y="62" on="0"/>
        <pt x="406" y="62" on="1"/>
        <pt x="507" y="63" on="1"/>
        <pt x="519" y="65" on="1"/>
        <pt x="571" y="78" on="0"/>
        <pt x="638" y="153" on="0"/>
        <pt x="648" y="209" on="1"/>
        <pt x="651" y="226" on="0"/>
      </contour>
    </TTGlyph>
    <TTGlyph name="C" xMin="55" yMin="-17" xMax="855" yMax="703">
      <contour>
        <pt x="833" y="703" on="1"/>
        <pt x="855" y="703" on="0"/>
        <pt x="855" y="690" on="1"/>
        <pt x="855" y="686" on="0"/>
        <pt x="791" y="429" on="0"/>
        <pt x="789" y="426" on="1"/>
        <pt x="786" y="421" on="0"/>
        <pt x="777" y="419" on="0"/>
        <pt x="756" y="419" on="1"/>
        <pt x="735" y="420" on="0"/>
        <pt x="727" y="422" on="0"/>
        <pt x="725" y="427" on="1"/>
        <pt x="723" y="431" on="0"/>
        <pt x="724" y="440" on="1"/>
        <pt x="726" y="458" on="0"/>
        <pt x="726" y="472" on="1"/>
        <pt x="726" y="551" on="0"/>
        <pt x="678" y="604" on="1"/>
        <pt x="651" y="630" on="0"/>
        <pt x="609" y="639" on="1"/>
        <pt x="600" y="640" on="0"/>
        <pt x="574" y="640" on="1"/>
        <pt x="421" y="640" on="0"/>
        <pt x="329" y="545" on="1"/>
        <pt x="287" y="503" on="0"/>
        <pt x="260" y="437" on="1"/>
        <pt x="243" y="399" on="0"/>
        <pt x="215" y="286" on="0"/>
        <pt x="211" y="244" on="1"/>
        <pt x="210" y="237" on="0"/>
        <pt x="210" y="219" on="1"/>
        <pt x="210" y="151" on="0"/>
        <pt x="237" y="117" on="1"/>
        <pt x="251" y="96" on="0"/>
        <pt x="273" y="83" on="1"/>
        <pt x="328" y="46" on="0"/>
        <pt x="420" y="46" on="1"/>
        <pt x="429" y="46" on="1"/>
        <pt x="473" y="46" on="0"/>
        <pt x="516" y="64" on="1"/>
        <pt x="572" y="87" on="0"/>
        <pt x="663" y="179" on="0"/>
        <pt x="678" y="234" on="1"/>
        <pt x="683" y="249" on="0"/>
        <pt x="691" y="254" on="0"/>
        <pt x="733" y="254" on="0"/>
        <pt x="736" y="252" on="1"/>
        <pt x="743" y="248" on="0"/>
        <pt x="743" y="240" on="1"/>
        <pt x="743" y="236" on="0"/>
        <pt x="740" y="227" on="1"/>
        <pt x="717" y="146" on="0"/>
        <pt x="574" y="20" on="0"/>
        <pt x="477" y="-5" on="1"/>
        <pt x="433" y="-17" on="0"/>
        <pt x="380" y="-17" on="1"/>
        <pt x="280" y="-17" on="0"/>
        <pt x="127" y="52" on="0"/>
        <pt x="90" y="115" on="1"/>
        <pt x="55" y="172" on="0"/>
        <pt x="55" y="256" on="1"/>
        <pt x="55" y="343" on="0"/>
        <pt x="99" y="434" on="1"/>
        <pt x="155" y="550" on="0"/>
        <pt x="376" y="693" on="0"/>
        <pt x="525" y="702" on="1"/>
        <pt x="545" y="702" on="1"/>
        <pt x="589" y="702" on="0"/>
        <pt x="596" y="701" on="1"/>
        <pt x="688" y="686" on="0"/>
        <pt x="731" y="634" on="1"/>
        <pt x="777" y="668" on="1"/>
        <pt x="822" y="701" on="0"/>
        <pt x="825" y="702" on="1"/>
        <pt x="827" y="703" on="0"/>
      </contour>
    </TTGlyph>
    <TTGlyph name="D" xMin="43" yMin="0" xMax="914" yMax="686">
      <contour>
        <pt x="162" y="62" on="1"/>
        <pt x="163" y="68" on="0"/>
        <pt x="233" y="348" on="0"/>
        <pt x="302" y="622" on="0"/>
        <pt x="302" y="624" on="0"/>
        <pt x="214" y="624" on="0"/>
        <pt x="209" y="626" on="1"/>
        <pt x="202" y="629" on="0"/>
        <pt x="199" y="639" on="1"/>
        <pt x="199" y="643" on="0"/>
        <pt x="203" y="659" on="1"/>
        <pt x="209" y="681" on="0"/>
        <pt x="216" y="684" on="1"/>
        <pt x="220" y="686" on="0"/>
        <pt x="437" y="686" on="1"/>
        <pt x="659" y="686" on="0"/>
        <pt x="668" y="685" on="1"/>
        <pt x="774" y="677" on="0"/>
        <pt x="900" y="572" on="0"/>
        <pt x="913" y="475" on="1"/>
        <pt x="914" y="466" on="0"/>
        <pt x="914" y="434" on="1"/>
        <pt x="914" y="413" on="0"/>
        <pt x="913" y="406" on="1"/>
        <pt x="897" y="248" on="0"/>
        <pt x="696" y="32" on="0"/>
        <pt x="548" y="7" on="1"/>
        <pt x="517" y="2" on="0"/>
        <pt x="470" y="1" on="0"/>
        <pt x="279" y="0" on="1"/>
        <pt x="58" y="0" on="1"/>
        <pt x="47" y="4" on="0"/>
        <pt x="43" y="15" on="1"/>
        <pt x="43" y="19" on="0"/>
        <pt x="47" y="35" on="1"/>
        <pt x="53" y="57" on="0"/>
        <pt x="60" y="60" on="1"/>
        <pt x="64" y="62" on="0"/>
        <pt x="113" y="62" on="1"/>
      </contour>
      <contour>
        <pt x="768" y="475" on="1"/>
        <pt x="768" y="543" on="0"/>
        <pt x="693" y="611" on="0"/>
        <pt x="624" y="622" on="1"/>
        <pt x="616" y="623" on="0"/>
        <pt x="532" y="624" on="1"/>
        <pt x="452" y="624" on="1"/>
        <pt x="382" y="344" on="1"/>
        <pt x="311" y="64" on="0"/>
        <pt x="311" y="62" on="0"/>
        <pt x="363" y="62" on="1"/>
        <pt x="465" y="62" on="0"/>
        <pt x="487" y="64" on="1"/>
        <pt x="561" y="74" on="0"/>
        <pt x="616" y="109" on="1"/>
        <pt x="634" y="121" on="0"/>
        <pt x="656" y="142" on="1"/>
        <pt x="707" y="196" on="0"/>
        <pt x="733" y="294" on="1"/>
        <pt x="747" y="340" on="0"/>
        <pt x="758" y="395" on="1"/>
        <pt x="768" y="447" on="0"/>
      </contour>
    </TTGlyph>
    <TTGlyph name="Delta" xMin="59" yMin="0" xMax="904" yMax="711">
      <contour>
        <pt x="65" y="0" on="1"/>
        <pt x="59" y="6" on="0"/>
        <pt x="59" y="12" on="0"/>
        <pt x="61" y="16" on="1"/>
        <pt x="64" y="20" on="0"/>
        <pt x="605" y="695" on="0"/>
        <pt x="608" y="698" on="1"/>
        <pt x="616" y="706" on="0"/>
        <pt x="629" y="710" on="1"/>
        <pt x="630" y="710" on="0"/>
        <pt x="638" y="710" on="0"/>
        <pt x="650" y="711" on="0"/>
        <pt x="656" y="711" on="1"/>
        <pt x="686" y="711" on="0"/>
        <pt x="694" y="703" on="1"/>
        <pt x="698" y="699" on="0"/>
        <pt x="700" y="693" on="1"/>
        <pt x="706" y="674" on="0"/>
        <pt x="904" y="16" on="0"/>
        <pt x="904" y="14" on="1"/>
        <pt x="904" y="7" on="0"/>
        <pt x="894" y="1" on="1"/>
        <pt x="479" y="0" on="1"/>
      </contour>
      <contour>
        <pt x="630" y="342" on="1"/>
        <pt x="567" y="551" on="1"/>
        <pt x="491" y="457" on="0"/>
        <pt x="399" y="342" on="1"/>
        <pt x="232" y="134" on="1"/>
        <pt x="462" y="133" on="1"/>
        <pt x="693" y="133" on="1"/>
        <pt x="693" y="137" on="0"/>
      </contour>
    </TTGlyph>
    <TTGlyph name="E" xMin="43" yMin="0" xMax="825" yMax="680">
      <contour>
        <pt x="163" y="66" on="1"/>
        <pt x="163" y="67" on="0"/>
        <pt x="300" y="615" on="0"/>
        <pt x="301" y="616" on="1"/>
        <pt x="301" y="618" on="0"/>
        <pt x="257" y="618" on="1"/>
        <pt x="212" y="618" on="0"/>
        <pt x="209" y="620" on="1"/>
        <pt x="198" y="625" on="0"/>
        <pt x="198" y="636" on="1"/>
        <pt x="198" y="641" on="0"/>
        <pt x="206" y="670" on="0"/>
        <pt x="208" y="673" on="1"/>
        <pt x="211" y="676" on="0"/>
        <pt x="219" y="680" on="1"/>
        <pt x="811" y="680" on="1"/>
        <pt x="825" y="675" on="0"/>
        <pt x="825" y="664" on="1"/>
        <pt x="825" y="659" on="0"/>
        <pt x="802" y="438" on="0"/>
        <pt x="799" y="433" on="1"/>
        <pt x="793" y="424" on="0"/>
        <pt x="771" y="424" on="1"/>
        <pt x="748" y="424" on="0"/>
        <pt x="743" y="432" on="1"/>
        <pt x="739" y="438" on="0"/>
        <pt x="741" y="459" on="1"/>
        <pt x="744" y="484" on="0"/>
        <pt x="744" y="505" on="1"/>
        <pt x="744" y="561" on="0"/>
        <pt x="700" y="608" on="0"/>
        <pt x="646" y="616" on="1"/>
        <pt x="639" y="617" on="0"/>
        <pt x="545" y="618" on="1"/>
        <pt x="456" y="618" on="1"/>
        <pt x="398" y="400" on="0"/>
        <pt x="398" y="385" on="1"/>
        <pt x="398" y="384" on="0"/>
        <pt x="435" y="384" on="1"/>
        <pt x="486" y="385" on="0"/>
        <pt x="503" y="392" on="1"/>
        <pt x="526" y="401" on="0"/>
        <pt x="552" y="440" on="0"/>
        <pt x="562" y="478" on="1"/>
        <pt x="566" y="494" on="0"/>
        <pt x="576" y="501" on="0"/>
        <pt x="595" y="501" on="1"/>
        <pt x="612" y="501" on="0"/>
        <pt x="622" y="496" on="0"/>
        <pt x="626" y="486" on="1"/>
        <pt x="626" y="482" on="0"/>
        <pt x="560" y="216" on="0"/>
        <pt x="557" y="213" on="1"/>
        <pt x="552" y="205" on="0"/>
        <pt x="530" y="205" on="1"/>
        <pt x="512" y="205" on="0"/>
        <pt x="499" y="211" on="0"/>
        <pt x="499" y="221" on="1"/>
        <pt x="499" y="227" on="0"/>
        <pt x="502" y="238" on="1"/>
        <pt x="508" y="265" on="0"/>
        <pt x="508" y="281" on="1"/>
        <pt x="508" y="310" on="0"/>
        <pt x="484" y="317" on="1"/>
        <pt x="473" y="321" on="0"/>
        <pt x="423" y="322" on="1"/>
        <pt x="382" y="322" on="1"/>
        <pt x="371" y="279" on="0"/>
        <pt x="328" y="107" on="0"/>
        <pt x="317" y="64" on="1"/>
        <pt x="317" y="62" on="0"/>
        <pt x="390" y="62" on="1"/>
        <pt x="478" y="62" on="0"/>
        <pt x="509" y="66" on="1"/>
        <pt x="591" y="75" on="0"/>
        <pt x="640" y="124" on="1"/>
        <pt x="680" y="164" on="0"/>
        <pt x="723" y="262" on="1"/>
        <pt x="726" y="267" on="0"/>
        <pt x="731" y="280" on="0"/>
        <pt x="733" y="283" on="0"/>
        <pt x="740" y="288" on="0"/>
        <pt x="750" y="289" on="0"/>
        <pt x="760" y="289" on="1"/>
        <pt x="782" y="289" on="0"/>
        <pt x="788" y="281" on="1"/>
        <pt x="791" y="275" on="0"/>
        <pt x="791" y="274" on="1"/>
        <pt x="791" y="267" on="0"/>
        <pt x="734" y="134" on="0"/>
        <pt x="706" y="71" on="1"/>
        <pt x="678" y="8" on="1"/>
        <pt x="676" y="4" on="0"/>
        <pt x="667" y="0" on="1"/>
        <pt x="58" y="0" on="1"/>
        <pt x="47" y="4" on="0"/>
        <pt x="43" y="15" on="1"/>
        <pt x="43" y="19" on="0"/>
        <pt x="47" y="35" on="1"/>
        <pt x="53" y="57" on="0"/>
        <pt x="60" y="60" on="1"/>
        <pt x="64" y="62" on="0"/>
        <pt x="113" y="62" on="1"/>
        <pt x="162" y="62" on="1"/>
      </contour>
    </TTGlyph>
    <TTGlyph name="F" xMin="43" yMin="0" xMax="809" yMax="680">
      <contour>
        <pt x="163" y="66" on="1"/>
        <pt x="163" y="67" on="0"/>
        <pt x="300" y="615" on="0"/>
        <pt x="301" y="616" on="1"/>
        <pt x="301" y="618" on="0"/>
        <pt x="257" y="618" on="1"/>
        <pt x="212" y="618" on="0"/>
        <pt x="209" y="620" on="1"/>
        <pt x="198" y="625" on="0"/>
        <pt x="198" y="636" on="1"/>
        <pt x="198" y="641" on="0"/>
        <pt x="206" y="670" on="0"/>
        <pt x="208" y="673" on="1"/>
        <pt x="211" y="676" on="0"/>
        <pt x="219" y="680" on="1"/>
        <pt x="795" y="680" on="1"/>
        <pt x="809" y="675" on="0"/>
        <pt x="809" y="664" on="1"/>
        <pt x="809" y="659" on="0"/>
        <pt x="786" y="438" on="0"/>
        <pt x="783" y="433" on="1"/>
        <pt x="777" y="424" on="0"/>
        <pt x="755" y="424" on="1"/>
        <pt x="732" y="424" on="0"/>
        <pt x="727" y="432" on="1"/>
        <pt x="723" y="438" on="0"/>
        <pt x="725" y="459" on="1"/>
        <pt x="727" y="473" on="0"/>
        <pt x="727" y="507" on="1"/>
        <pt x="727" y="524" on="1"/>
        <pt x="727" y="598" on="0"/>
        <pt x="655" y="612" on="1"/>
        <pt x="632" y="617" on="0"/>
        <pt x="538" y="618" on="1"/>
        <pt x="456" y="618" on="1"/>
        <pt x="455" y="614" on="1"/>
        <pt x="455" y="611" on="0"/>
        <pt x="424" y="491" on="1"/>
        <pt x="394" y="371" on="1"/>
        <pt x="429" y="371" on="1"/>
        <pt x="475" y="372" on="0"/>
        <pt x="491" y="378" on="1"/>
        <pt x="535" y="392" on="0"/>
        <pt x="552" y="464" on="1"/>
        <pt x="556" y="481" on="0"/>
        <pt x="566" y="488" on="0"/>
        <pt x="586" y="488" on="1"/>
        <pt x="603" y="488" on="0"/>
        <pt x="607" y="486" on="1"/>
        <pt x="616" y="480" on="0"/>
        <pt x="616" y="473" on="1"/>
        <pt x="616" y="467" on="0"/>
        <pt x="551" y="206" on="0"/>
        <pt x="549" y="201" on="1"/>
        <pt x="545" y="194" on="0"/>
        <pt x="537" y="192" on="0"/>
        <pt x="521" y="192" on="1"/>
        <pt x="498" y="192" on="0"/>
        <pt x="493" y="200" on="1"/>
        <pt x="489" y="208" on="0"/>
        <pt x="492" y="224" on="1"/>
        <pt x="499" y="251" on="0"/>
        <pt x="499" y="269" on="1"/>
        <pt x="499" y="296" on="0"/>
        <pt x="479" y="303" on="1"/>
        <pt x="467" y="308" on="0"/>
        <pt x="417" y="308" on="1"/>
        <pt x="379" y="309" on="1"/>
        <pt x="348" y="188" on="1"/>
        <pt x="341" y="161" on="0"/>
        <pt x="326" y="96" on="0"/>
        <pt x="322" y="80" on="1"/>
        <pt x="318" y="65" on="1"/>
        <pt x="317" y="62" on="1"/>
        <pt x="375" y="62" on="1"/>
        <pt x="433" y="62" on="0"/>
        <pt x="436" y="60" on="1"/>
        <pt x="447" y="55" on="0"/>
        <pt x="447" y="45" on="1"/>
        <pt x="447" y="26" on="0"/>
        <pt x="438" y="8" on="1"/>
        <pt x="433" y="3" on="0"/>
        <pt x="426" y="0" on="1"/>
        <pt x="377" y="1" on="1"/>
        <pt x="347" y="2" on="0"/>
        <pt x="231" y="2" on="1"/>
        <pt x="189" y="2" on="0"/>
        <pt x="85" y="0" on="0"/>
        <pt x="65" y="0" on="1"/>
        <pt x="48" y="0" on="0"/>
        <pt x="43" y="15" on="1"/>
        <pt x="43" y="19" on="0"/>
        <pt x="47" y="35" on="1"/>
        <pt x="53" y="57" on="0"/>
        <pt x="60" y="60" on="1"/>
        <pt x="64" y="62" on="0"/>
        <pt x="113" y="62" on="1"/>
        <pt x="162" y="62" on="1"/>
      </contour>
    </TTGlyph>
    <TTGlyph name="G" xMin="56" yMin="-16" xMax="854" yMax="703">
      <contour>
        <pt x="803" y="276" on="1"/>
        <pt x="826" y="276" on="0"/>
        <pt x="826" y="258" on="1"/>
        <pt x="826" y="241" on="0"/>
        <pt x="817" y="223" on="1"/>
        <pt x="814" y="219" on="0"/>
        <pt x="810" y="216" on="1"/>
        <pt x="806" y="214" on="0"/>
        <pt x="771" y="214" on="1"/>
        <pt x="736" y="214" on="1"/>
        <pt x="736" y="211" on="0"/>
        <pt x="684" y="7" on="0"/>
        <pt x="683" y="5" on="1"/>
        <pt x="678" y="0" on="0"/>
        <pt x="671" y="0" on="1"/>
        <pt x="665" y="0" on="0"/>
        <pt x="606" y="28" on="0"/>
        <pt x="597" y="36" on="1"/>
        <pt x="593" y="38" on="0"/>
        <pt x="587" y="43" on="0"/>
        <pt x="585" y="45" on="0"/>
        <pt x="580" y="43" on="0"/>
        <pt x="576" y="40" on="1"/>
        <pt x="509" y="-16" on="0"/>
        <pt x="379" y="-16" on="1"/>
        <pt x="241" y="-16" on="0"/>
        <pt x="70" y="104" on="0"/>
        <pt x="57" y="217" on="1"/>
        <pt x="56" y="225" on="0"/>
        <pt x="56" y="285" on="0"/>
        <pt x="57" y="294" on="1"/>
        <pt x="81" y="469" on="0"/>
        <pt x="336" y="689" on="0"/>
        <pt x="518" y="702" on="1"/>
        <pt x="540" y="702" on="1"/>
        <pt x="586" y="702" on="0"/>
        <pt x="595" y="701" on="1"/>
        <pt x="675" y="689" on="0"/>
        <pt x="726" y="639" on="1"/>
        <pt x="731" y="635" on="1"/>
        <pt x="776" y="668" on="1"/>
        <pt x="821" y="701" on="0"/>
        <pt x="824" y="702" on="1"/>
        <pt x="826" y="703" on="0"/>
        <pt x="832" y="703" on="1"/>
        <pt x="854" y="703" on="0"/>
        <pt x="854" y="690" on="1"/>
        <pt x="854" y="686" on="0"/>
        <pt x="790" y="429" on="0"/>
        <pt x="788" y="426" on="1"/>
        <pt x="785" y="421" on="0"/>
        <pt x="776" y="419" on="0"/>
        <pt x="755" y="419" on="1"/>
        <pt x="734" y="420" on="0"/>
        <pt x="726" y="422" on="0"/>
        <pt x="724" y="427" on="1"/>
        <pt x="722" y="433" on="0"/>
        <pt x="722" y="437" on="1"/>
        <pt x="722" y="442" on="0"/>
        <pt x="725" y="465" on="0"/>
        <pt x="725" y="469" on="1"/>
        <pt x="725" y="590" on="0"/>
        <pt x="642" y="628" on="1"/>
        <pt x="616" y="640" on="0"/>
        <pt x="575" y="640" on="1"/>
        <pt x="467" y="640" on="0"/>
        <pt x="312" y="546" on="0"/>
        <pt x="272" y="464" on="1"/>
        <pt x="232" y="384" on="0"/>
        <pt x="215" y="273" on="1"/>
        <pt x="210" y="236" on="0"/>
        <pt x="210" y="214" on="1"/>
        <pt x="210" y="128" on="0"/>
        <pt x="322" y="46" on="0"/>
        <pt x="419" y="46" on="1"/>
        <pt x="504" y="46" on="0"/>
        <pt x="543" y="93" on="1"/>
        <pt x="554" y="108" on="0"/>
        <pt x="569" y="164" on="1"/>
        <pt x="581" y="214" on="1"/>
        <pt x="519" y="214" on="1"/>
        <pt x="457" y="214" on="0"/>
        <pt x="452" y="216" on="1"/>
        <pt x="443" y="220" on="0"/>
        <pt x="443" y="230" on="1"/>
        <pt x="443" y="250" on="0"/>
        <pt x="452" y="268" on="1"/>
        <pt x="457" y="273" on="0"/>
        <pt x="464" y="276" on="1"/>
        <pt x="514" y="275" on="1"/>
        <pt x="546" y="274" on="0"/>
        <pt x="657" y="274" on="1"/>
        <pt x="697" y="274" on="0"/>
        <pt x="788" y="276" on="0"/>
      </contour>
    </TTGlyph>
    <TTGlyph name="Gamma" xMin="43" yMin="0" xMax="777" yMax="680">
      <contour>
        <pt x="163" y="66" on="1"/>
        <pt x="163" y="67" on="0"/>
        <pt x="300" y="615" on="0"/>
        <pt x="301" y="616" on="1"/>
        <pt x="301" y="618" on="0"/>
        <pt x="257" y="618" on="1"/>
        <pt x="212" y="618" on="0"/>
        <pt x="209" y="620" on="1"/>
        <pt x="198" y="625" on="0"/>
        <pt x="198" y="636" on="1"/>
        <pt x="198" y="641" on="0"/>
        <pt x="206" y="670" on="0"/>
        <pt x="208" y="673" on="1"/>
        <pt x="211" y="676" on="0"/>
        <pt x="219" y="680" on="1"/>
        <pt x="763" y="680" on="1"/>
        <pt x="777" y="675" on="0"/>
        <pt x="777" y="664" on="1"/>
        <pt x="777" y="659" on="0"/>
        <pt x="754" y="438" on="0"/>
        <pt x="751" y="433" on="1"/>
        <pt x="745" y="424" on="0"/>
        <pt x="723" y="424" on="1"/>
        <pt x="700" y="424" on="0"/>
        <pt x="695" y="432" on="1"/>
        <pt x="691" y="438" on="0"/>
        <pt x="693" y="458" on="1"/>
        <pt x="697" y="504" on="0"/>
        <pt x="697" y="513" on="1"/>
        <pt x="697" y="567" on="0"/>
        <pt x="651" y="613" on="0"/>
        <pt x="591" y="617" on="1"/>
        <pt x="583" y="618" on="0"/>
        <pt x="516" y="618" on="1"/>
        <pt x="456" y="618" on="1"/>
        <pt x="455" y="614" on="1"/>
        <pt x="455" y="613" on="0"/>
        <pt x="318" y="65" on="0"/>
        <pt x="317" y="64" on="1"/>
        <pt x="317" y="62" on="0"/>
        <pt x="433" y="62" on="0"/>
        <pt x="437" y="60" on="1"/>
        <pt x="447" y="55" on="0"/>
        <pt x="447" y="44" on="1"/>
        <pt x="447" y="39" on="0"/>
        <pt x="439" y="10" on="0"/>
        <pt x="437" y="7" on="1"/>
        <pt x="434" y="0" on="0"/>
        <pt x="416" y="0" on="1"/>
        <pt x="392" y="0" on="0"/>
        <pt x="274" y="2" on="0"/>
        <pt x="231" y="2" on="1"/>
        <pt x="189" y="2" on="0"/>
        <pt x="85" y="0" on="0"/>
        <pt x="65" y="0" on="1"/>
        <pt x="48" y="0" on="0"/>
        <pt x="43" y="15" on="1"/>
        <pt x="43" y="19" on="0"/>
        <pt x="47" y="35" on="1"/>
        <pt x="53" y="57" on="0"/>
        <pt x="60" y="60" on="1"/>
        <pt x="64" y="62" on="0"/>
        <pt x="113" y="62" on="1"/>
        <pt x="162" y="62" on="1"/>
      </contour>
    </TTGlyph>
    <TTGlyph name="H" xMin="43" yMin="0" xMax="1027" yMax="686">
      <contour>
        <pt x="162" y="62" on="1"/>
        <pt x="163" y="68" on="0"/>
        <pt x="233" y="348" on="0"/>
        <pt x="302" y="622" on="0"/>
        <pt x="302" y="624" on="0"/>
        <pt x="214" y="624" on="0"/>
        <pt x="209" y="626" on="1"/>
        <pt x="202" y="629" on="0"/>
        <pt x="199" y="639" on="1"/>
        <pt x="199" y="643" on="0"/>
        <pt x="203" y="659" on="1"/>
        <pt x="209" y="681" on="0"/>
        <pt x="216" y="684" on="1"/>
        <pt x="220" y="686" on="0"/>
        <pt x="239" y="686" on="1"/>
        <pt x="290" y="684" on="0"/>
        <pt x="403" y="684" on="1"/>
        <pt x="432" y="684" on="0"/>
        <pt x="530" y="686" on="0"/>
        <pt x="576" y="686" on="0"/>
        <pt x="576" y="668" on="1"/>
        <pt x="576" y="663" on="0"/>
        <pt x="568" y="634" on="0"/>
        <pt x="566" y="631" on="1"/>
        <pt x="562" y="627" on="0"/>
        <pt x="560" y="626" on="1"/>
        <pt x="555" y="624" on="0"/>
        <pt x="506" y="624" on="1"/>
        <pt x="457" y="624" on="1"/>
        <pt x="428" y="507" on="1"/>
        <pt x="399" y="389" on="1"/>
        <pt x="399" y="388" on="0"/>
        <pt x="547" y="388" on="1"/>
        <pt x="695" y="388" on="1"/>
        <pt x="724" y="505" on="1"/>
        <pt x="753" y="623" on="1"/>
        <pt x="753" y="624" on="0"/>
        <pt x="665" y="624" on="0"/>
        <pt x="660" y="626" on="1"/>
        <pt x="653" y="629" on="0"/>
        <pt x="650" y="639" on="1"/>
        <pt x="650" y="643" on="0"/>
        <pt x="654" y="659" on="1"/>
        <pt x="658" y="673" on="0"/>
        <pt x="661" y="681" on="0"/>
        <pt x="670" y="686" on="0"/>
        <pt x="681" y="686" on="1"/>
        <pt x="702" y="686" on="0"/>
        <pt x="808" y="684" on="0"/>
        <pt x="847" y="684" on="1"/>
        <pt x="885" y="684" on="0"/>
        <pt x="985" y="686" on="0"/>
        <pt x="1004" y="686" on="1"/>
        <pt x="1027" y="686" on="0"/>
        <pt x="1027" y="668" on="1"/>
        <pt x="1027" y="663" on="0"/>
        <pt x="1019" y="634" on="0"/>
        <pt x="1017" y="631" on="1"/>
        <pt x="1013" y="627" on="0"/>
        <pt x="1011" y="626" on="1"/>
        <pt x="1006" y="624" on="0"/>
        <pt x="957" y="624" on="1"/>
        <pt x="908" y="624" on="1"/>
        <pt x="839" y="344" on="1"/>
        <pt x="768" y="64" on="0"/>
        <pt x="768" y="62" on="0"/>
        <pt x="812" y="62" on="1"/>
        <pt x="857" y="62" on="0"/>
        <pt x="861" y="60" on="1"/>
        <pt x="871" y="55" on="0"/>
        <pt x="871" y="44" on="1"/>
        <pt x="871" y="39" on="0"/>
        <pt x="863" y="10" on="0"/>
        <pt x="861" y="7" on="1"/>
        <pt x="858" y="4" on="0"/>
        <pt x="850" y="0" on="1"/>
        <pt x="808" y="1" on="1"/>
        <pt x="782" y="2" on="0"/>
        <pt x="675" y="2" on="1"/>
        <pt x="636" y="2" on="0"/>
        <pt x="536" y="0" on="0"/>
        <pt x="516" y="0" on="1"/>
        <pt x="499" y="0" on="0"/>
        <pt x="494" y="15" on="1"/>
        <pt x="494" y="19" on="0"/>
        <pt x="498" y="35" on="1"/>
        <pt x="504" y="57" on="0"/>
        <pt x="511" y="60" on="1"/>
        <pt x="515" y="62" on="0"/>
        <pt x="564" y="62" on="1"/>
        <pt x="613" y="62" on="1"/>
        <pt x="614" y="66" on="1"/>
        <pt x="679" y="324" on="1"/>
        <pt x="679" y="326" on="0"/>
        <pt x="531" y="326" on="1"/>
        <pt x="383" y="326" on="1"/>
        <pt x="382" y="322" on="1"/>
        <pt x="317" y="64" on="1"/>
        <pt x="317" y="62" on="0"/>
        <pt x="361" y="62" on="1"/>
        <pt x="406" y="62" on="0"/>
        <pt x="410" y="60" on="1"/>
        <pt x="420" y="55" on="0"/>
        <pt x="420" y="44" on="1"/>
        <pt x="420" y="39" on="0"/>
        <pt x="412" y="10" on="0"/>
        <pt x="410" y="7" on="1"/>
        <pt x="407" y="4" on="0"/>
        <pt x="399" y="0" on="1"/>
        <pt x="357" y="1" on="1"/>
        <pt x="331" y="2" on="0"/>
        <pt x="224" y="2" on="1"/>
        <pt x="185" y="2" on="0"/>
        <pt x="85" y="0" on="0"/>
        <pt x="65" y="0" on="1"/>
        <pt x="48" y="0" on="0"/>
        <pt x="43" y="15" on="1"/>
        <pt x="43" y="19" on="0"/>
        <pt x="47" y="35" on="1"/>
        <pt x="53" y="57" on="0"/>
        <pt x="60" y="60" on="1"/>
        <pt x="64" y="62" on="0"/>
        <pt x="113" y="62" on="1"/>
      </contour>
    </TTGlyph>
    <TTGlyph name="I" xMin="30" yMin="0" xMax="573" yMax="686">
      <contour>
        <pt x="154" y="62" on="1"/>
        <pt x="155" y="68" on="0"/>
        <pt x="225" y="348" on="0"/>
        <pt x="294" y="622" on="0"/>
        <pt x="294" y="624" on="0"/>
        <pt x="200" y="624" on="0"/>
        <pt x="196" y="626" on="1"/>
        <pt x="186" y="632" on="0"/>
        <pt x="186" y="640" on="1"/>
        <pt x="186" y="650" on="0"/>
        <pt x="196" y="682" on="0"/>
        <pt x="202" y="684" on="1"/>
        <pt x="206" y="686" on="0"/>
        <pt x="226" y="686" on="1"/>
        <pt x="277" y="684" on="0"/>
        <pt x="393" y="684" on="1"/>
        <pt x="423" y="684" on="0"/>
        <pt x="529" y="686" on="0"/>
        <pt x="553" y="686" on="1"/>
        <pt x="573" y="686" on="0"/>
        <pt x="573" y="670" on="1"/>
        <pt x="573" y="650" on="0"/>
        <pt x="564" y="632" on="1"/>
        <pt x="559" y="627" on="0"/>
        <pt x="557" y="626" on="1"/>
        <pt x="553" y="624" on="0"/>
        <pt x="501" y="624" on="1"/>
        <pt x="449" y="624" on="1"/>
        <pt x="380" y="344" on="1"/>
        <pt x="309" y="64" on="0"/>
        <pt x="309" y="62" on="0"/>
        <pt x="403" y="62" on="0"/>
        <pt x="408" y="60" on="1"/>
        <pt x="417" y="56" on="0"/>
        <pt x="417" y="46" on="1"/>
        <pt x="417" y="26" on="0"/>
        <pt x="408" y="8" on="1"/>
        <pt x="403" y="3" on="0"/>
        <pt x="396" y="0" on="1"/>
        <pt x="352" y="1" on="1"/>
        <pt x="325" y="2" on="0"/>
        <pt x="107" y="2" on="0"/>
        <pt x="82" y="1" on="1"/>
        <pt x="45" y="0" on="1"/>
        <pt x="30" y="6" on="0"/>
        <pt x="30" y="16" on="1"/>
        <pt x="30" y="27" on="0"/>
        <pt x="40" y="56" on="0"/>
        <pt x="46" y="60" on="1"/>
        <pt x="51" y="62" on="0"/>
        <pt x="102" y="62" on="1"/>
      </contour>
    </TTGlyph>
    <TTGlyph name="J" xMin="42" yMin="-17" xMax="694" yMax="686">
      <contour>
        <pt x="677" y="686" on="1"/>
        <pt x="683" y="686" on="0"/>
        <pt x="694" y="676" on="0"/>
        <pt x="694" y="669" on="1"/>
        <pt x="694" y="664" on="0"/>
        <pt x="691" y="652" on="1"/>
        <pt x="686" y="631" on="0"/>
        <pt x="675" y="624" on="0"/>
        <pt x="647" y="624" on="1"/>
        <pt x="602" y="624" on="1"/>
        <pt x="542" y="380" on="1"/>
        <pt x="479" y="130" on="0"/>
        <pt x="478" y="129" on="1"/>
        <pt x="462" y="79" on="0"/>
        <pt x="372" y="9" on="0"/>
        <pt x="312" y="-5" on="1"/>
        <pt x="267" y="-17" on="0"/>
        <pt x="213" y="-17" on="1"/>
        <pt x="171" y="-17" on="0"/>
        <pt x="139" y="-8" on="1"/>
        <pt x="60" y="11" on="0"/>
        <pt x="43" y="70" on="1"/>
        <pt x="42" y="75" on="0"/>
        <pt x="42" y="93" on="1"/>
        <pt x="42" y="133" on="0"/>
        <pt x="84" y="184" on="0"/>
        <pt x="119" y="192" on="1"/>
        <pt x="125" y="194" on="0"/>
        <pt x="139" y="194" on="1"/>
        <pt x="170" y="194" on="0"/>
        <pt x="205" y="158" on="0"/>
        <pt x="205" y="131" on="1"/>
        <pt x="205" y="103" on="0"/>
        <pt x="174" y="55" on="0"/>
        <pt x="152" y="45" on="1"/>
        <pt x="152" y="42" on="0"/>
        <pt x="200" y="35" on="0"/>
        <pt x="213" y="35" on="1"/>
        <pt x="254" y="35" on="0"/>
        <pt x="289" y="65" on="1"/>
        <pt x="314" y="90" on="0"/>
        <pt x="329" y="129" on="1"/>
        <pt x="331" y="136" on="0"/>
        <pt x="453" y="621" on="0"/>
        <pt x="453" y="623" on="1"/>
        <pt x="453" y="624" on="0"/>
        <pt x="393" y="624" on="1"/>
        <pt x="332" y="624" on="1"/>
        <pt x="318" y="631" on="0"/>
        <pt x="318" y="640" on="1"/>
        <pt x="318" y="650" on="0"/>
        <pt x="328" y="682" on="0"/>
        <pt x="334" y="684" on="1"/>
        <pt x="338" y="686" on="0"/>
        <pt x="359" y="686" on="1"/>
        <pt x="413" y="684" on="0"/>
        <pt x="533" y="684" on="1"/>
        <pt x="564" y="684" on="0"/>
        <pt x="658" y="686" on="0"/>
      </contour>
    </TTGlyph>
    <TTGlyph name="K" xMin="43" yMin="0" xMax="1003" yMax="686">
      <contour>
        <pt x="986" y="686" on="1"/>
        <pt x="992" y="686" on="0"/>
        <pt x="1003" y="676" on="0"/>
        <pt x="1003" y="669" on="1"/>
        <pt x="1003" y="664" on="0"/>
        <pt x="997" y="644" on="0"/>
        <pt x="992" y="630" on="0"/>
        <pt x="991" y="629" on="1"/>
        <pt x="985" y="624" on="0"/>
        <pt x="967" y="624" on="1"/>
        <pt x="918" y="624" on="0"/>
        <pt x="888" y="617" on="1"/>
        <pt x="884" y="617" on="0"/>
        <pt x="867" y="609" on="0"/>
        <pt x="865" y="609" on="1"/>
        <pt x="864" y="608" on="0"/>
        <pt x="600" y="421" on="0"/>
        <pt x="599" y="420" on="1"/>
        <pt x="686" y="242" on="1"/>
        <pt x="773" y="66" on="0"/>
        <pt x="775" y="65" on="1"/>
        <pt x="784" y="62" on="0"/>
        <pt x="829" y="62" on="1"/>
        <pt x="840" y="62" on="1"/>
        <pt x="852" y="62" on="0"/>
        <pt x="860" y="54" on="1"/>
        <pt x="865" y="47" on="0"/>
        <pt x="860" y="28" on="1"/>
        <pt x="859" y="25" on="0"/>
        <pt x="856" y="12" on="0"/>
        <pt x="854" y="8" on="0"/>
        <pt x="849" y="2" on="0"/>
        <pt x="842" y="0" on="0"/>
        <pt x="836" y="0" on="1"/>
        <pt x="818" y="0" on="0"/>
        <pt x="730" y="2" on="0"/>
        <pt x="694" y="2" on="1"/>
        <pt x="599" y="2" on="0"/>
        <pt x="573" y="1" on="1"/>
        <pt x="536" y="0" on="1"/>
        <pt x="529" y="3" on="0"/>
        <pt x="524" y="8" on="1"/>
        <pt x="519" y="15" on="0"/>
        <pt x="524" y="34" on="1"/>
        <pt x="529" y="52" on="0"/>
        <pt x="533" y="57" on="1"/>
        <pt x="539" y="62" on="0"/>
        <pt x="557" y="62" on="1"/>
        <pt x="595" y="62" on="0"/>
        <pt x="601" y="65" on="1"/>
        <pt x="472" y="330" on="1"/>
        <pt x="447" y="313" on="0"/>
        <pt x="418" y="292" on="1"/>
        <pt x="365" y="255" on="1"/>
        <pt x="342" y="160" on="1"/>
        <pt x="318" y="65" on="0"/>
        <pt x="317" y="64" on="1"/>
        <pt x="317" y="62" on="0"/>
        <pt x="361" y="62" on="1"/>
        <pt x="406" y="62" on="0"/>
        <pt x="410" y="60" on="1"/>
        <pt x="420" y="55" on="0"/>
        <pt x="420" y="44" on="1"/>
        <pt x="420" y="39" on="0"/>
        <pt x="412" y="10" on="0"/>
        <pt x="410" y="7" on="1"/>
        <pt x="407" y="4" on="0"/>
        <pt x="399" y="0" on="1"/>
        <pt x="357" y="1" on="1"/>
        <pt x="331" y="2" on="0"/>
        <pt x="224" y="2" on="1"/>
        <pt x="185" y="2" on="0"/>
        <pt x="85" y="0" on="0"/>
        <pt x="65" y="0" on="1"/>
        <pt x="48" y="0" on="0"/>
        <pt x="43" y="15" on="1"/>
        <pt x="43" y="19" on="0"/>
        <pt x="47" y="35" on="1"/>
        <pt x="53" y="57" on="0"/>
        <pt x="60" y="60" on="1"/>
        <pt x="64" y="62" on="0"/>
        <pt x="113" y="62" on="1"/>
        <pt x="162" y="62" on="1"/>
        <pt x="163" y="68" on="0"/>
        <pt x="233" y="348" on="0"/>
        <pt x="302" y="622" on="0"/>
        <pt x="302" y="624" on="0"/>
        <pt x="214" y="624" on="0"/>
        <pt x="209" y="626" on="1"/>
        <pt x="202" y="629" on="0"/>
        <pt x="199" y="639" on="1"/>
        <pt x="199" y="643" on="0"/>
        <pt x="203" y="659" on="1"/>
        <pt x="209" y="681" on="0"/>
        <pt x="216" y="684" on="1"/>
        <pt x="220" y="686" on="0"/>
        <pt x="239" y="686" on="1"/>
        <pt x="290" y="684" on="0"/>
        <pt x="403" y="684" on="1"/>
        <pt x="432" y="684" on="0"/>
        <pt x="530" y="686" on="0"/>
        <pt x="576" y="686" on="0"/>
        <pt x="576" y="668" on="1"/>
        <pt x="576" y="663" on="0"/>
        <pt x="568" y="634" on="0"/>
        <pt x="566" y="631" on="1"/>
        <pt x="562" y="627" on="0"/>
        <pt x="560" y="626" on="1"/>
        <pt x="555" y="624" on="0"/>
        <pt x="506" y="624" on="1"/>
        <pt x="457" y="624" on="1"/>
        <pt x="422" y="481" on="1"/>
        <pt x="386" y="339" on="0"/>
        <pt x="386" y="337" on="1"/>
        <pt x="785" y="621" on="1"/>
        <pt x="779" y="624" on="0"/>
        <pt x="749" y="624" on="1"/>
        <pt x="734" y="624" on="0"/>
        <pt x="728" y="634" on="1"/>
        <pt x="724" y="640" on="0"/>
        <pt x="730" y="659" on="1"/>
        <pt x="734" y="675" on="0"/>
        <pt x="739" y="683" on="0"/>
        <pt x="747" y="686" on="1"/>
        <pt x="786" y="685" on="1"/>
        <pt x="812" y="684" on="0"/>
        <pt x="888" y="684" on="1"/>
        <pt x="915" y="684" on="0"/>
        <pt x="976" y="686" on="0"/>
      </contour>
    </TTGlyph>
    <TTGlyph name="L" xMin="43" yMin="0" xMax="711" yMax="686">
      <contour>
        <pt x="162" y="62" on="1"/>
        <pt x="163" y="68" on="0"/>
        <pt x="233" y="348" on="0"/>
        <pt x="302" y="622" on="0"/>
        <pt x="302" y="624" on="0"/>
        <pt x="214" y="624" on="0"/>
        <pt x="209" y="626" on="1"/>
        <pt x="202" y="629" on="0"/>
        <pt x="199" y="639" on="1"/>
        <pt x="199" y="643" on="0"/>
        <pt x="203" y="659" on="1"/>
        <pt x="209" y="681" on="0"/>
        <pt x="216" y="684" on="1"/>
        <pt x="220" y="686" on="0"/>
        <pt x="239" y="686" on="1"/>
        <pt x="290" y="684" on="0"/>
        <pt x="409" y="684" on="1"/>
        <pt x="439" y="684" on="0"/>
        <pt x="553" y="686" on="0"/>
        <pt x="579" y="686" on="1"/>
        <pt x="603" y="686" on="0"/>
        <pt x="603" y="668" on="1"/>
        <pt x="603" y="663" on="0"/>
        <pt x="595" y="634" on="0"/>
        <pt x="593" y="631" on="1"/>
        <pt x="592" y="628" on="0"/>
        <pt x="587" y="626" on="1"/>
        <pt x="583" y="624" on="0"/>
        <pt x="520" y="624" on="1"/>
        <pt x="457" y="624" on="1"/>
        <pt x="388" y="344" on="1"/>
        <pt x="317" y="64" on="0"/>
        <pt x="317" y="62" on="0"/>
        <pt x="353" y="62" on="1"/>
        <pt x="423" y="62" on="0"/>
        <pt x="441" y="64" on="1"/>
        <pt x="581" y="87" on="0"/>
        <pt x="643" y="261" on="1"/>
        <pt x="651" y="282" on="0"/>
        <pt x="660" y="289" on="0"/>
        <pt x="680" y="289" on="1"/>
        <pt x="696" y="289" on="0"/>
        <pt x="704" y="286" on="0"/>
        <pt x="709" y="279" on="1"/>
        <pt x="711" y="274" on="0"/>
        <pt x="711" y="269" on="1"/>
        <pt x="710" y="265" on="0"/>
        <pt x="615" y="11" on="0"/>
        <pt x="613" y="8" on="1"/>
        <pt x="611" y="4" on="0"/>
        <pt x="602" y="0" on="1"/>
        <pt x="58" y="0" on="1"/>
        <pt x="47" y="4" on="0"/>
        <pt x="43" y="15" on="1"/>
        <pt x="43" y="19" on="0"/>
        <pt x="47" y="35" on="1"/>
        <pt x="53" y="57" on="0"/>
        <pt x="60" y="60" on="1"/>
        <pt x="64" y="62" on="0"/>
        <pt x="113" y="62" on="1"/>
      </contour>
    </TTGlyph>
    <TTGlyph name="Lambda" xMin="44" yMin="0" xMax="776" yMax="711">
      <contour>
        <pt x="274" y="0" on="1"/>
        <pt x="258" y="0" on="0"/>
        <pt x="184" y="2" on="0"/>
        <pt x="159" y="2" on="1"/>
        <pt x="92" y="2" on="0"/>
        <pt x="79" y="1" on="1"/>
        <pt x="59" y="0" on="0"/>
        <pt x="54" y="2" on="1"/>
        <pt x="47" y="5" on="0"/>
        <pt x="44" y="15" on="1"/>
        <pt x="44" y="19" on="0"/>
        <pt x="48" y="35" on="1"/>
        <pt x="53" y="55" on="0"/>
        <pt x="64" y="62" on="0"/>
        <pt x="89" y="62" on="1"/>
        <pt x="124" y="64" on="0"/>
        <pt x="142" y="68" on="1"/>
        <pt x="147" y="69" on="0"/>
        <pt x="151" y="73" on="1"/>
        <pt x="154" y="76" on="0"/>
        <pt x="536" y="698" on="0"/>
        <pt x="538" y="699" on="1"/>
        <pt x="547" y="708" on="0"/>
        <pt x="558" y="711" on="0"/>
        <pt x="580" y="711" on="1"/>
        <pt x="595" y="711" on="0"/>
        <pt x="606" y="710" on="0"/>
        <pt x="616" y="703" on="0"/>
        <pt x="618" y="695" on="1"/>
        <pt x="619" y="692" on="0"/>
        <pt x="690" y="65" on="0"/>
        <pt x="690" y="63" on="1"/>
        <pt x="690" y="62" on="0"/>
        <pt x="762" y="62" on="0"/>
        <pt x="766" y="60" on="1"/>
        <pt x="776" y="55" on="0"/>
        <pt x="776" y="44" on="1"/>
        <pt x="776" y="39" on="0"/>
        <pt x="768" y="10" on="0"/>
        <pt x="766" y="7" on="1"/>
        <pt x="762" y="0" on="0"/>
        <pt x="747" y="0" on="1"/>
        <pt x="728" y="0" on="0"/>
        <pt x="636" y="2" on="0"/>
        <pt x="600" y="2" on="1"/>
        <pt x="502" y="2" on="0"/>
        <pt x="476" y="1" on="1"/>
        <pt x="439" y="0" on="1"/>
        <pt x="432" y="3" on="0"/>
        <pt x="427" y="8" on="1"/>
        <pt x="422" y="15" on="0"/>
        <pt x="427" y="34" on="1"/>
        <pt x="432" y="52" on="0"/>
        <pt x="436" y="57" on="1"/>
        <pt x="442" y="62" on="0"/>
        <pt x="485" y="62" on="1"/>
        <pt x="509" y="62" on="1"/>
        <pt x="525" y="62" on="0"/>
        <pt x="525" y="64" on="1"/>
        <pt x="478" y="483" on="1"/>
        <pt x="478" y="484" on="0"/>
        <pt x="452" y="442" on="0"/>
        <pt x="392" y="345" on="0"/>
        <pt x="350" y="277" on="1"/>
        <pt x="222" y="69" on="0"/>
        <pt x="222" y="68" on="1"/>
        <pt x="223" y="67" on="0"/>
        <pt x="224" y="67" on="1"/>
        <pt x="229" y="64" on="0"/>
        <pt x="271" y="62" on="1"/>
        <pt x="296" y="62" on="0"/>
        <pt x="302" y="54" on="1"/>
        <pt x="307" y="47" on="0"/>
        <pt x="302" y="28" on="1"/>
        <pt x="296" y="8" on="0"/>
        <pt x="292" y="5" on="1"/>
        <pt x="285" y="0" on="0"/>
      </contour>
    </TTGlyph>
    <TTGlyph name="M" xMin="43" yMin="0" xMax="1219" yMax="686">
      <contour>
        <pt x="78" y="0" on="0"/>
        <pt x="48" y="0" on="0"/>
        <pt x="43" y="15" on="1"/>
        <pt x="43" y="19" on="0"/>
        <pt x="47" y="35" on="1"/>
        <pt x="52" y="55" on="0"/>
        <pt x="63" y="62" on="0"/>
        <pt x="94" y="62" on="1"/>
        <pt x="146" y="64" on="0"/>
        <pt x="164" y="69" on="1"/>
        <pt x="233" y="345" on="1"/>
        <pt x="302" y="619" on="0"/>
        <pt x="302" y="622" on="1"/>
        <pt x="302" y="624" on="0"/>
        <pt x="258" y="624" on="1"/>
        <pt x="213" y="624" on="0"/>
        <pt x="209" y="626" on="1"/>
        <pt x="202" y="629" on="0"/>
        <pt x="199" y="639" on="1"/>
        <pt x="199" y="643" on="0"/>
        <pt x="203" y="659" on="1"/>
        <pt x="209" y="681" on="0"/>
        <pt x="216" y="684" on="1"/>
        <pt x="220" y="686" on="0"/>
        <pt x="347" y="686" on="1"/>
        <pt x="473" y="686" on="1"/>
        <pt x="483" y="680" on="0"/>
        <pt x="484" y="677" on="1"/>
        <pt x="487" y="674" on="0"/>
        <pt x="584" y="157" on="0"/>
        <pt x="584" y="153" on="1"/>
        <pt x="608" y="187" on="1"/>
        <pt x="631" y="221" on="0"/>
        <pt x="714" y="342" on="0"/>
        <pt x="761" y="410" on="1"/>
        <pt x="940" y="670" on="0"/>
        <pt x="943" y="673" on="1"/>
        <pt x="948" y="678" on="0"/>
        <pt x="962" y="686" on="1"/>
        <pt x="1082" y="686" on="1"/>
        <pt x="1204" y="686" on="0"/>
        <pt x="1206" y="685" on="1"/>
        <pt x="1219" y="682" on="0"/>
        <pt x="1219" y="668" on="1"/>
        <pt x="1219" y="663" on="0"/>
        <pt x="1211" y="634" on="0"/>
        <pt x="1209" y="631" on="1"/>
        <pt x="1208" y="628" on="0"/>
        <pt x="1203" y="626" on="1"/>
        <pt x="1199" y="624" on="0"/>
        <pt x="1149" y="624" on="1"/>
        <pt x="1100" y="624" on="1"/>
        <pt x="1031" y="344" on="1"/>
        <pt x="960" y="64" on="0"/>
        <pt x="960" y="62" on="0"/>
        <pt x="1004" y="62" on="1"/>
        <pt x="1049" y="62" on="0"/>
        <pt x="1053" y="60" on="1"/>
        <pt x="1063" y="55" on="0"/>
        <pt x="1063" y="44" on="1"/>
        <pt x="1063" y="39" on="0"/>
        <pt x="1055" y="10" on="0"/>
        <pt x="1053" y="7" on="1"/>
        <pt x="1050" y="0" on="0"/>
        <pt x="1034" y="0" on="1"/>
        <pt x="1013" y="0" on="0"/>
        <pt x="912" y="2" on="0"/>
        <pt x="838" y="2" on="0"/>
        <pt x="743" y="0" on="0"/>
        <pt x="725" y="0" on="1"/>
        <pt x="708" y="0" on="0"/>
        <pt x="703" y="15" on="1"/>
        <pt x="703" y="19" on="0"/>
        <pt x="707" y="35" on="1"/>
        <pt x="713" y="57" on="0"/>
        <pt x="720" y="60" on="1"/>
        <pt x="724" y="62" on="0"/>
        <pt x="773" y="62" on="1"/>
        <pt x="822" y="62" on="1"/>
        <pt x="828" y="84" on="0"/>
        <pt x="961" y="616" on="0"/>
        <pt x="961" y="619" on="1"/>
        <pt x="961" y="618" on="0"/>
        <pt x="546" y="15" on="0"/>
        <pt x="543" y="12" on="1"/>
        <pt x="531" y="0" on="0"/>
        <pt x="510" y="0" on="1"/>
        <pt x="493" y="0" on="0"/>
        <pt x="479" y="7" on="0"/>
        <pt x="477" y="19" on="1"/>
        <pt x="477" y="20" on="0"/>
        <pt x="421" y="315" on="1"/>
        <pt x="367" y="604" on="1"/>
        <pt x="366" y="601" on="0"/>
        <pt x="299" y="336" on="0"/>
        <pt x="234" y="73" on="0"/>
        <pt x="234" y="68" on="1"/>
        <pt x="234" y="62" on="0"/>
        <pt x="302" y="62" on="1"/>
        <pt x="324" y="62" on="0"/>
        <pt x="330" y="56" on="1"/>
        <pt x="334" y="50" on="0"/>
        <pt x="334" y="46" on="1"/>
        <pt x="334" y="45" on="0"/>
        <pt x="330" y="25" on="1"/>
        <pt x="326" y="8" on="0"/>
        <pt x="319" y="0" on="0"/>
        <pt x="306" y="0" on="1"/>
        <pt x="290" y="0" on="0"/>
        <pt x="210" y="2" on="0"/>
        <pt x="152" y="2" on="0"/>
      </contour>
    </TTGlyph>
    <TTGlyph name="N" xMin="43" yMin="0" xMax="1027" yMax="686">
      <contour>
        <pt x="78" y="0" on="0"/>
        <pt x="48" y="0" on="0"/>
        <pt x="43" y="15" on="1"/>
        <pt x="43" y="19" on="0"/>
        <pt x="47" y="35" on="1"/>
        <pt x="52" y="55" on="0"/>
        <pt x="63" y="62" on="0"/>
        <pt x="94" y="62" on="1"/>
        <pt x="145" y="64" on="0"/>
        <pt x="164" y="69" on="1"/>
        <pt x="233" y="345" on="1"/>
        <pt x="302" y="619" on="0"/>
        <pt x="302" y="622" on="1"/>
        <pt x="302" y="624" on="0"/>
        <pt x="214" y="624" on="0"/>
        <pt x="209" y="626" on="1"/>
        <pt x="202" y="629" on="0"/>
        <pt x="199" y="639" on="1"/>
        <pt x="199" y="643" on="0"/>
        <pt x="203" y="659" on="1"/>
        <pt x="209" y="681" on="0"/>
        <pt x="216" y="684" on="1"/>
        <pt x="220" y="686" on="0"/>
        <pt x="344" y="686" on="1"/>
        <pt x="432" y="686" on="1"/>
        <pt x="464" y="686" on="0"/>
        <pt x="477" y="680" on="1"/>
        <pt x="478" y="679" on="0"/>
        <pt x="608" y="453" on="0"/>
        <pt x="738" y="227" on="0"/>
        <pt x="739" y="227" on="1"/>
        <pt x="742" y="227" on="0"/>
        <pt x="836" y="610" on="0"/>
        <pt x="836" y="618" on="1"/>
        <pt x="836" y="620" on="0"/>
        <pt x="835" y="620" on="1"/>
        <pt x="821" y="622" on="1"/>
        <pt x="811" y="622" on="0"/>
        <pt x="779" y="624" on="1"/>
        <pt x="755" y="624" on="0"/>
        <pt x="743" y="627" on="0"/>
        <pt x="740" y="632" on="1"/>
        <pt x="734" y="639" on="0"/>
        <pt x="740" y="659" on="1"/>
        <pt x="746" y="682" on="0"/>
        <pt x="752" y="684" on="1"/>
        <pt x="755" y="686" on="0"/>
        <pt x="763" y="686" on="1"/>
        <pt x="779" y="686" on="0"/>
        <pt x="860" y="684" on="0"/>
        <pt x="890" y="684" on="1"/>
        <pt x="968" y="684" on="0"/>
        <pt x="986" y="685" on="1"/>
        <pt x="1013" y="686" on="0"/>
        <pt x="1016" y="684" on="1"/>
        <pt x="1027" y="679" on="0"/>
        <pt x="1027" y="668" on="1"/>
        <pt x="1027" y="663" on="0"/>
        <pt x="1019" y="634" on="0"/>
        <pt x="1017" y="631" on="1"/>
        <pt x="1010" y="624" on="0"/>
        <pt x="1000" y="624" on="1"/>
        <pt x="978" y="624" on="1"/>
        <pt x="912" y="622" on="0"/>
        <pt x="907" y="617" on="1"/>
        <pt x="907" y="616" on="0"/>
        <pt x="755" y="11" on="0"/>
        <pt x="753" y="8" on="1"/>
        <pt x="748" y="0" on="0"/>
        <pt x="733" y="0" on="1"/>
        <pt x="723" y="0" on="1"/>
        <pt x="711" y="0" on="1"/>
        <pt x="699" y="0" on="0"/>
        <pt x="692" y="7" on="1"/>
        <pt x="688" y="15" on="0"/>
        <pt x="522" y="301" on="0"/>
        <pt x="442" y="440" on="1"/>
        <pt x="361" y="580" on="1"/>
        <pt x="361" y="578" on="0"/>
        <pt x="296" y="323" on="0"/>
        <pt x="234" y="72" on="0"/>
        <pt x="234" y="68" on="1"/>
        <pt x="234" y="62" on="0"/>
        <pt x="302" y="62" on="1"/>
        <pt x="320" y="62" on="0"/>
        <pt x="324" y="60" on="1"/>
        <pt x="334" y="55" on="0"/>
        <pt x="334" y="44" on="1"/>
        <pt x="334" y="39" on="0"/>
        <pt x="326" y="10" on="0"/>
        <pt x="324" y="7" on="1"/>
        <pt x="321" y="4" on="0"/>
        <pt x="313" y="0" on="1"/>
        <pt x="280" y="1" on="1"/>
        <pt x="260" y="2" on="0"/>
        <pt x="181" y="2" on="1"/>
        <pt x="152" y="2" on="0"/>
      </contour>
    </TTGlyph>
    <TTGlyph name="O" xMin="53" yMin="-17" xMax="815" yMax="703">
      <contour>
        <pt x="344" y="-17" on="1"/>
        <pt x="207" y="-17" on="0"/>
        <pt x="53" y="117" on="0"/>
        <pt x="53" y="245" on="1"/>
        <pt x="53" y="264" on="0"/>
        <pt x="54" y="270" on="1"/>
        <pt x="67" y="408" on="0"/>
        <pt x="151" y="519" on="1"/>
        <pt x="213" y="603" on="0"/>
        <pt x="404" y="703" on="0"/>
        <pt x="523" y="703" on="1"/>
        <pt x="641" y="703" on="0"/>
        <pt x="788" y="602" on="0"/>
        <pt x="808" y="511" on="1"/>
        <pt x="815" y="474" on="0"/>
        <pt x="815" y="445" on="1"/>
        <pt x="815" y="378" on="0"/>
        <pt x="791" y="307" on="1"/>
        <pt x="737" y="136" on="0"/>
        <pt x="592" y="50" on="1"/>
        <pt x="485" y="-17" on="0"/>
      </contour>
      <contour>
        <pt x="664" y="489" on="1"/>
        <pt x="664" y="564" on="0"/>
        <pt x="583" y="648" on="0"/>
        <pt x="511" y="648" on="1"/>
        <pt x="463" y="648" on="0"/>
        <pt x="368" y="606" on="0"/>
        <pt x="334" y="570" on="1"/>
        <pt x="274" y="507" on="0"/>
        <pt x="241" y="392" on="1"/>
        <pt x="208" y="271" on="0"/>
        <pt x="208" y="206" on="1"/>
        <pt x="208" y="129" on="0"/>
        <pt x="286" y="40" on="0"/>
        <pt x="358" y="40" on="1"/>
        <pt x="428" y="40" on="0"/>
        <pt x="490" y="83" on="1"/>
        <pt x="574" y="141" on="0"/>
        <pt x="618" y="270" on="1"/>
        <pt x="645" y="347" on="0"/>
        <pt x="657" y="423" on="1"/>
        <pt x="664" y="465" on="0"/>
      </contour>
    </TTGlyph>
    <TTGlyph name="Omega" xMin="93" yMin="0" xMax="886" yMax="703">
      <contour>
        <pt x="162" y="119" on="1"/>
        <pt x="183" y="115" on="0"/>
        <pt x="235" y="115" on="1"/>
        <pt x="273" y="116" on="1"/>
        <pt x="273" y="123" on="0"/>
        <pt x="262" y="153" on="1"/>
        <pt x="252" y="179" on="0"/>
        <pt x="226" y="232" on="1"/>
        <pt x="188" y="310" on="0"/>
        <pt x="180" y="345" on="1"/>
        <pt x="173" y="368" on="0"/>
        <pt x="173" y="391" on="1"/>
        <pt x="173" y="406" on="1"/>
        <pt x="173" y="476" on="0"/>
        <pt x="214" y="540" on="1"/>
        <pt x="255" y="600" on="0"/>
        <pt x="315" y="635" on="1"/>
        <pt x="333" y="647" on="0"/>
        <pt x="371" y="664" on="1"/>
        <pt x="464" y="703" on="0"/>
        <pt x="585" y="703" on="1"/>
        <pt x="736" y="703" on="0"/>
        <pt x="819" y="641" on="1"/>
        <pt x="886" y="590" on="0"/>
        <pt x="886" y="503" on="1"/>
        <pt x="886" y="450" on="0"/>
        <pt x="860" y="401" on="1"/>
        <pt x="845" y="369" on="0"/>
        <pt x="821" y="337" on="1"/>
        <pt x="793" y="300" on="0"/>
        <pt x="725" y="232" on="1"/>
        <pt x="667" y="172" on="0"/>
        <pt x="643" y="146" on="1"/>
        <pt x="619" y="117" on="0"/>
        <pt x="619" y="115" on="0"/>
        <pt x="650" y="115" on="1"/>
        <pt x="707" y="115" on="0"/>
        <pt x="722" y="120" on="1"/>
        <pt x="730" y="123" on="0"/>
        <pt x="770" y="207" on="0"/>
        <pt x="775" y="210" on="1"/>
        <pt x="779" y="212" on="0"/>
        <pt x="796" y="212" on="1"/>
        <pt x="819" y="212" on="0"/>
        <pt x="825" y="203" on="1"/>
        <pt x="828" y="197" on="0"/>
        <pt x="828" y="196" on="1"/>
        <pt x="828" y="191" on="0"/>
        <pt x="786" y="97" on="0"/>
        <pt x="764" y="52" on="1"/>
        <pt x="743" y="7" on="1"/>
        <pt x="739" y="3" on="0"/>
        <pt x="737" y="2" on="1"/>
        <pt x="732" y="0" on="0"/>
        <pt x="632" y="0" on="1"/>
        <pt x="552" y="0" on="0"/>
        <pt x="527" y="1" on="0"/>
        <pt x="522" y="5" on="1"/>
        <pt x="517" y="10" on="0"/>
        <pt x="517" y="17" on="1"/>
        <pt x="517" y="19" on="0"/>
        <pt x="521" y="37" on="1"/>
        <pt x="543" y="112" on="0"/>
        <pt x="614" y="236" on="1"/>
        <pt x="654" y="306" on="0"/>
        <pt x="684" y="362" on="0"/>
        <pt x="725" y="472" on="0"/>
        <pt x="728" y="518" on="1"/>
        <pt x="729" y="524" on="0"/>
        <pt x="729" y="535" on="1"/>
        <pt x="729" y="594" on="0"/>
        <pt x="649" y="652" on="0"/>
        <pt x="583" y="652" on="1"/>
        <pt x="456" y="652" on="0"/>
        <pt x="327" y="482" on="0"/>
        <pt x="327" y="340" on="1"/>
        <pt x="327" y="316" on="0"/>
        <pt x="336" y="160" on="0"/>
        <pt x="336" y="135" on="1"/>
        <pt x="336" y="76" on="0"/>
        <pt x="324" y="24" on="1"/>
        <pt x="320" y="6" on="0"/>
        <pt x="313" y="2" on="1"/>
        <pt x="308" y="0" on="0"/>
        <pt x="208" y="0" on="1"/>
        <pt x="128" y="0" on="0"/>
        <pt x="103" y="1" on="0"/>
        <pt x="98" y="5" on="1"/>
        <pt x="93" y="10" on="0"/>
        <pt x="93" y="25" on="1"/>
        <pt x="93" y="28" on="0"/>
        <pt x="94" y="55" on="0"/>
        <pt x="96" y="99" on="0"/>
        <pt x="96" y="118" on="1"/>
        <pt x="100" y="199" on="1"/>
        <pt x="105" y="208" on="0"/>
        <pt x="114" y="212" on="0"/>
        <pt x="131" y="212" on="1"/>
        <pt x="147" y="212" on="0"/>
        <pt x="156" y="208" on="0"/>
        <pt x="161" y="199" on="1"/>
        <pt x="161" y="160" on="1"/>
        <pt x="161" y="131" on="0"/>
        <pt x="162" y="125" on="1"/>
      </contour>
    </TTGlyph>
    <TTGlyph name="P" xMin="43" yMin="0" xMax="847" yMax="686">
      <contour>
        <pt x="162" y="62" on="1"/>
        <pt x="163" y="68" on="0"/>
        <pt x="233" y="348" on="0"/>
        <pt x="302" y="622" on="0"/>
        <pt x="302" y="624" on="0"/>
        <pt x="214" y="624" on="0"/>
        <pt x="209" y="626" on="1"/>
        <pt x="199" y="630" on="0"/>
        <pt x="199" y="640" on="1"/>
        <pt x="199" y="643" on="0"/>
        <pt x="203" y="657" on="1"/>
        <pt x="207" y="673" on="0"/>
        <pt x="211" y="682" on="0"/>
        <pt x="217" y="684" on="1"/>
        <pt x="220" y="686" on="0"/>
        <pt x="439" y="686" on="1"/>
        <pt x="667" y="685" on="0"/>
        <pt x="684" y="682" on="1"/>
        <pt x="686" y="681" on="0"/>
        <pt x="693" y="680" on="1"/>
        <pt x="762" y="670" on="0"/>
        <pt x="847" y="594" on="0"/>
        <pt x="847" y="528" on="1"/>
        <pt x="847" y="463" on="0"/>
        <pt x="803" y="404" on="1"/>
        <pt x="737" y="317" on="0"/>
        <pt x="604" y="293" on="1"/>
        <pt x="571" y="288" on="0"/>
        <pt x="469" y="287" on="1"/>
        <pt x="373" y="287" on="1"/>
        <pt x="346" y="176" on="1"/>
        <pt x="340" y="151" on="0"/>
        <pt x="325" y="92" on="0"/>
        <pt x="321" y="78" on="1"/>
        <pt x="317" y="64" on="1"/>
        <pt x="317" y="62" on="0"/>
        <pt x="361" y="62" on="1"/>
        <pt x="409" y="62" on="0"/>
        <pt x="414" y="57" on="1"/>
        <pt x="420" y="53" on="0"/>
        <pt x="420" y="44" on="1"/>
        <pt x="420" y="27" on="0"/>
        <pt x="411" y="9" on="1"/>
        <pt x="407" y="3" on="0"/>
        <pt x="399" y="0" on="1"/>
        <pt x="357" y="1" on="1"/>
        <pt x="331" y="2" on="0"/>
        <pt x="224" y="2" on="1"/>
        <pt x="185" y="2" on="0"/>
        <pt x="85" y="0" on="0"/>
        <pt x="65" y="0" on="1"/>
        <pt x="43" y="0" on="0"/>
        <pt x="43" y="17" on="1"/>
        <pt x="43" y="21" on="0"/>
        <pt x="47" y="33" on="1"/>
        <pt x="51" y="49" on="0"/>
        <pt x="55" y="58" on="0"/>
        <pt x="61" y="60" on="1"/>
        <pt x="64" y="62" on="0"/>
        <pt x="113" y="62" on="1"/>
      </contour>
      <contour>
        <pt x="617" y="622" on="1"/>
        <pt x="610" y="623" on="0"/>
        <pt x="529" y="624" on="1"/>
        <pt x="452" y="624" on="1"/>
        <pt x="409" y="456" on="0"/>
        <pt x="381" y="343" on="1"/>
        <pt x="458" y="343" on="1"/>
        <pt x="544" y="344" on="0"/>
        <pt x="568" y="349" on="1"/>
        <pt x="618" y="361" on="0"/>
        <pt x="641" y="389" on="1"/>
        <pt x="662" y="413" on="0"/>
        <pt x="679" y="480" on="1"/>
        <pt x="692" y="535" on="0"/>
        <pt x="692" y="558" on="1"/>
        <pt x="692" y="582" on="0"/>
        <pt x="676" y="597" on="1"/>
        <pt x="657" y="616" on="0"/>
      </contour>
    </TTGlyph>
    <TTGlyph name="Phi" xMin="29" yMin="0" xMax="737" yMax="686">
      <contour>
        <pt x="241" y="62" on="1"/>
        <pt x="266" y="158" on="0"/>
        <pt x="266" y="167" on="1"/>
        <pt x="266" y="168" on="0"/>
        <pt x="258" y="168" on="0"/>
        <pt x="244" y="170" on="1"/>
        <pt x="160" y="179" on="0"/>
        <pt x="51" y="237" on="0"/>
        <pt x="35" y="280" on="1"/>
        <pt x="29" y="296" on="0"/>
        <pt x="29" y="316" on="1"/>
        <pt x="29" y="363" on="0"/>
        <pt x="68" y="408" on="1"/>
        <pt x="146" y="496" on="0"/>
        <pt x="327" y="516" on="1"/>
        <pt x="345" y="518" on="0"/>
        <pt x="349" y="518" on="1"/>
        <pt x="351" y="518" on="0"/>
        <pt x="353" y="518" on="1"/>
        <pt x="355" y="519" on="1"/>
        <pt x="356" y="520" on="0"/>
        <pt x="381" y="621" on="0"/>
        <pt x="381" y="623" on="1"/>
        <pt x="381" y="624" on="0"/>
        <pt x="323" y="624" on="1"/>
        <pt x="266" y="624" on="0"/>
        <pt x="261" y="626" on="1"/>
        <pt x="254" y="629" on="0"/>
        <pt x="251" y="639" on="1"/>
        <pt x="251" y="643" on="0"/>
        <pt x="255" y="659" on="1"/>
        <pt x="261" y="681" on="0"/>
        <pt x="268" y="684" on="1"/>
        <pt x="272" y="686" on="0"/>
        <pt x="293" y="686" on="1"/>
        <pt x="348" y="684" on="0"/>
        <pt x="475" y="684" on="1"/>
        <pt x="508" y="684" on="0"/>
        <pt x="621" y="686" on="0"/>
        <pt x="647" y="686" on="1"/>
        <pt x="671" y="686" on="0"/>
        <pt x="671" y="668" on="1"/>
        <pt x="671" y="663" on="0"/>
        <pt x="663" y="634" on="0"/>
        <pt x="661" y="631" on="1"/>
        <pt x="657" y="627" on="0"/>
        <pt x="655" y="626" on="1"/>
        <pt x="650" y="624" on="0"/>
        <pt x="588" y="624" on="1"/>
        <pt x="525" y="624" on="1"/>
        <pt x="509" y="554" on="0"/>
        <pt x="500" y="520" on="1"/>
        <pt x="500" y="519" on="0"/>
        <pt x="518" y="517" on="1"/>
        <pt x="571" y="511" on="0"/>
        <pt x="659" y="483" on="0"/>
        <pt x="729" y="426" on="0"/>
        <pt x="736" y="388" on="1"/>
        <pt x="737" y="383" on="0"/>
        <pt x="737" y="372" on="1"/>
        <pt x="737" y="346" on="0"/>
        <pt x="723" y="316" on="1"/>
        <pt x="702" y="272" on="0"/>
        <pt x="648" y="237" on="1"/>
        <pt x="562" y="180" on="0"/>
        <pt x="426" y="169" on="1"/>
        <pt x="412" y="168" on="1"/>
        <pt x="399" y="118" on="1"/>
        <pt x="386" y="66" on="0"/>
        <pt x="386" y="65" on="1"/>
        <pt x="385" y="62" on="1"/>
        <pt x="443" y="62" on="1"/>
        <pt x="501" y="62" on="0"/>
        <pt x="505" y="60" on="1"/>
        <pt x="515" y="55" on="0"/>
        <pt x="515" y="44" on="1"/>
        <pt x="515" y="39" on="0"/>
        <pt x="507" y="10" on="0"/>
        <pt x="505" y="7" on="1"/>
        <pt x="502" y="4" on="0"/>
        <pt x="494" y="0" on="1"/>
        <pt x="447" y="1" on="1"/>
        <pt x="417" y="2" on="0"/>
        <pt x="298" y="2" on="1"/>
        <pt x="254" y="2" on="0"/>
        <pt x="140" y="0" on="0"/>
        <pt x="118" y="0" on="1"/>
        <pt x="100" y="0" on="0"/>
        <pt x="95" y="15" on="1"/>
        <pt x="95" y="19" on="0"/>
        <pt x="99" y="35" on="1"/>
        <pt x="105" y="57" on="0"/>
        <pt x="112" y="60" on="1"/>
        <pt x="116" y="62" on="0"/>
        <pt x="179" y="62" on="1"/>
      </contour>
      <contour>
        <pt x="342" y="466" on="1"/>
        <pt x="341" y="467" on="0"/>
        <pt x="339" y="467" on="1"/>
        <pt x="326" y="467" on="0"/>
        <pt x="302" y="460" on="1"/>
        <pt x="251" y="447" on="0"/>
        <pt x="225" y="420" on="1"/>
        <pt x="210" y="400" on="0"/>
        <pt x="204" y="388" on="1"/>
        <pt x="181" y="342" on="0"/>
        <pt x="181" y="296" on="1"/>
        <pt x="181" y="266" on="0"/>
        <pt x="214" y="235" on="0"/>
        <pt x="245" y="225" on="1"/>
        <pt x="275" y="219" on="0"/>
        <pt x="277" y="219" on="1"/>
        <pt x="280" y="220" on="1"/>
        <pt x="281" y="220" on="0"/>
        <pt x="342" y="464" on="0"/>
      </contour>
      <contour>
        <pt x="507" y="464" on="1"/>
        <pt x="505" y="464" on="0"/>
        <pt x="502" y="465" on="1"/>
        <pt x="494" y="466" on="0"/>
        <pt x="492" y="467" on="1"/>
        <pt x="486" y="467" on="1"/>
        <pt x="455" y="343" on="1"/>
        <pt x="444" y="300" on="0"/>
        <pt x="430" y="242" on="0"/>
        <pt x="425" y="219" on="0"/>
        <pt x="426" y="219" on="1"/>
        <pt x="432" y="220" on="0"/>
        <pt x="437" y="221" on="1"/>
        <pt x="501" y="229" on="0"/>
        <pt x="569" y="296" on="0"/>
        <pt x="581" y="359" on="1"/>
        <pt x="583" y="367" on="0"/>
        <pt x="583" y="389" on="1"/>
        <pt x="583" y="406" on="0"/>
        <pt x="582" y="410" on="1"/>
        <pt x="568" y="450" on="0"/>
      </contour>
    </TTGlyph>
    <TTGlyph name="Pi" xMin="43" yMin="0" xMax="1026" yMax="680">
      <contour>
        <pt x="163" y="66" on="1"/>
        <pt x="163" y="67" on="0"/>
        <pt x="300" y="615" on="0"/>
        <pt x="301" y="616" on="1"/>
        <pt x="301" y="618" on="0"/>
        <pt x="257" y="618" on="1"/>
        <pt x="212" y="618" on="0"/>
        <pt x="209" y="620" on="1"/>
        <pt x="198" y="625" on="0"/>
        <pt x="198" y="636" on="1"/>
        <pt x="198" y="641" on="0"/>
        <pt x="206" y="670" on="0"/>
        <pt x="208" y="673" on="1"/>
        <pt x="211" y="676" on="0"/>
        <pt x="219" y="680" on="1"/>
        <pt x="1011" y="680" on="1"/>
        <pt x="1022" y="676" on="0"/>
        <pt x="1026" y="665" on="1"/>
        <pt x="1026" y="661" on="0"/>
        <pt x="1022" y="645" on="1"/>
        <pt x="1016" y="623" on="0"/>
        <pt x="1009" y="620" on="1"/>
        <pt x="1005" y="618" on="0"/>
        <pt x="956" y="618" on="1"/>
        <pt x="907" y="618" on="1"/>
        <pt x="906" y="614" on="1"/>
        <pt x="906" y="613" on="0"/>
        <pt x="769" y="65" on="0"/>
        <pt x="768" y="64" on="1"/>
        <pt x="768" y="62" on="0"/>
        <pt x="812" y="62" on="1"/>
        <pt x="857" y="62" on="0"/>
        <pt x="861" y="60" on="1"/>
        <pt x="871" y="55" on="0"/>
        <pt x="871" y="44" on="1"/>
        <pt x="871" y="39" on="0"/>
        <pt x="863" y="10" on="0"/>
        <pt x="861" y="7" on="1"/>
        <pt x="858" y="4" on="0"/>
        <pt x="850" y="0" on="1"/>
        <pt x="808" y="1" on="1"/>
        <pt x="782" y="2" on="0"/>
        <pt x="675" y="2" on="1"/>
        <pt x="636" y="2" on="0"/>
        <pt x="536" y="0" on="0"/>
        <pt x="516" y="0" on="1"/>
        <pt x="499" y="0" on="0"/>
        <pt x="494" y="15" on="1"/>
        <pt x="494" y="19" on="0"/>
        <pt x="498" y="35" on="1"/>
        <pt x="504" y="57" on="0"/>
        <pt x="511" y="60" on="1"/>
        <pt x="515" y="62" on="0"/>
        <pt x="564" y="62" on="1"/>
        <pt x="613" y="62" on="1"/>
        <pt x="614" y="66" on="1"/>
        <pt x="614" y="67" on="0"/>
        <pt x="751" y="615" on="0"/>
        <pt x="752" y="616" on="1"/>
        <pt x="752" y="618" on="0"/>
        <pt x="604" y="618" on="1"/>
        <pt x="456" y="618" on="1"/>
        <pt x="455" y="614" on="1"/>
        <pt x="455" y="613" on="0"/>
        <pt x="318" y="65" on="0"/>
        <pt x="317" y="64" on="1"/>
        <pt x="317" y="62" on="0"/>
        <pt x="361" y="62" on="1"/>
        <pt x="406" y="62" on="0"/>
        <pt x="410" y="60" on="1"/>
        <pt x="420" y="55" on="0"/>
        <pt x="420" y="44" on="1"/>
        <pt x="420" y="39" on="0"/>
        <pt x="412" y="10" on="0"/>
        <pt x="410" y="7" on="1"/>
        <pt x="407" y="4" on="0"/>
        <pt x="399" y="0" on="1"/>
        <pt x="357" y="1" on="1"/>
        <pt x="331" y="2" on="0"/>
        <pt x="224" y="2" on="1"/>
        <pt x="185" y="2" on="0"/>
        <pt x="85" y="0" on="0"/>
        <pt x="65" y="0" on="1"/>
        <pt x="48" y="0" on="0"/>
        <pt x="43" y="15" on="1"/>
        <pt x="43" y="19" on="0"/>
        <pt x="47" y="35" on="1"/>
        <pt x="53" y="57" on="0"/>
        <pt x="60" y="60" on="1"/>
        <pt x="64" y="62" on="0"/>
        <pt x="113" y="62" on="1"/>
        <pt x="162" y="62" on="1"/>
      </contour>
    </TTGlyph>
    <TTGlyph name="Psi" xMin="22" yMin="0" xMax="790" yMax="686">
      <contour>
        <pt x="59" y="454" on="1"/>
        <pt x="59" y="489" on="0"/>
        <pt x="40" y="489" on="1"/>
        <pt x="32" y="489" on="0"/>
        <pt x="22" y="500" on="0"/>
        <pt x="22" y="507" on="1"/>
        <pt x="22" y="535" on="0"/>
        <pt x="37" y="538" on="1"/>
        <pt x="40" y="540" on="0"/>
        <pt x="99" y="540" on="1"/>
        <pt x="159" y="540" on="0"/>
        <pt x="164" y="538" on="1"/>
        <pt x="205" y="529" on="0"/>
        <pt x="205" y="471" on="1"/>
        <pt x="205" y="442" on="0"/>
        <pt x="198" y="416" on="1"/>
        <pt x="186" y="362" on="0"/>
        <pt x="186" y="333" on="1"/>
        <pt x="186" y="288" on="0"/>
        <pt x="223" y="237" on="0"/>
        <pt x="262" y="224" on="1"/>
        <pt x="311" y="423" on="1"/>
        <pt x="361" y="623" on="1"/>
        <pt x="361" y="624" on="0"/>
        <pt x="303" y="624" on="1"/>
        <pt x="246" y="624" on="0"/>
        <pt x="241" y="626" on="1"/>
        <pt x="231" y="630" on="0"/>
        <pt x="231" y="640" on="1"/>
        <pt x="231" y="643" on="0"/>
        <pt x="235" y="657" on="1"/>
        <pt x="239" y="673" on="0"/>
        <pt x="243" y="682" on="0"/>
        <pt x="249" y="684" on="1"/>
        <pt x="252" y="686" on="0"/>
        <pt x="273" y="686" on="1"/>
        <pt x="329" y="684" on="0"/>
        <pt x="457" y="684" on="1"/>
        <pt x="489" y="684" on="0"/>
        <pt x="601" y="686" on="0"/>
        <pt x="626" y="686" on="1"/>
        <pt x="640" y="686" on="0"/>
        <pt x="645" y="681" on="1"/>
        <pt x="651" y="677" on="0"/>
        <pt x="651" y="668" on="1"/>
        <pt x="651" y="651" on="0"/>
        <pt x="642" y="633" on="1"/>
        <pt x="637" y="626" on="0"/>
        <pt x="631" y="624" on="1"/>
        <pt x="505" y="624" on="1"/>
        <pt x="456" y="426" on="1"/>
        <pt x="407" y="227" on="1"/>
        <pt x="434" y="237" on="1"/>
        <pt x="503" y="267" on="0"/>
        <pt x="539" y="345" on="1"/>
        <pt x="551" y="370" on="0"/>
        <pt x="567" y="425" on="1"/>
        <pt x="576" y="457" on="0"/>
        <pt x="588" y="480" on="1"/>
        <pt x="612" y="528" on="0"/>
        <pt x="649" y="538" on="1"/>
        <pt x="657" y="540" on="0"/>
        <pt x="717" y="540" on="1"/>
        <pt x="776" y="540" on="0"/>
        <pt x="781" y="538" on="1"/>
        <pt x="790" y="534" on="0"/>
        <pt x="790" y="524" on="1"/>
        <pt x="790" y="512" on="0"/>
        <pt x="784" y="497" on="1"/>
        <pt x="780" y="490" on="0"/>
        <pt x="754" y="488" on="0"/>
        <pt x="742" y="477" on="1"/>
        <pt x="720" y="455" on="0"/>
        <pt x="701" y="389" on="1"/>
        <pt x="673" y="295" on="0"/>
        <pt x="516" y="180" on="0"/>
        <pt x="404" y="169" on="1"/>
        <pt x="391" y="168" on="1"/>
        <pt x="379" y="116" on="1"/>
        <pt x="365" y="67" on="0"/>
        <pt x="365" y="63" on="1"/>
        <pt x="365" y="62" on="0"/>
        <pt x="422" y="62" on="1"/>
        <pt x="484" y="62" on="0"/>
        <pt x="489" y="57" on="1"/>
        <pt x="495" y="53" on="0"/>
        <pt x="495" y="44" on="1"/>
        <pt x="495" y="27" on="0"/>
        <pt x="486" y="9" on="1"/>
        <pt x="482" y="3" on="0"/>
        <pt x="474" y="0" on="1"/>
        <pt x="427" y="1" on="1"/>
        <pt x="397" y="2" on="0"/>
        <pt x="159" y="2" on="0"/>
        <pt x="131" y="1" on="1"/>
        <pt x="90" y="0" on="1"/>
        <pt x="76" y="6" on="0"/>
        <pt x="76" y="17" on="1"/>
        <pt x="76" y="22" on="0"/>
        <pt x="79" y="33" on="1"/>
        <pt x="83" y="49" on="0"/>
        <pt x="87" y="58" on="0"/>
        <pt x="93" y="60" on="1"/>
        <pt x="96" y="62" on="0"/>
        <pt x="159" y="62" on="1"/>
        <pt x="221" y="62" on="1"/>
        <pt x="223" y="73" on="0"/>
        <pt x="237" y="126" on="0"/>
        <pt x="247" y="167" on="0"/>
        <pt x="247" y="168" on="1"/>
        <pt x="244" y="168" on="1"/>
        <pt x="241" y="169" on="0"/>
        <pt x="239" y="169" on="1"/>
        <pt x="204" y="175" on="0"/>
        <pt x="194" y="178" on="1"/>
        <pt x="109" y="199" on="0"/>
        <pt x="74" y="252" on="1"/>
        <pt x="46" y="291" on="0"/>
        <pt x="46" y="351" on="1"/>
        <pt x="46" y="369" on="0"/>
        <pt x="59" y="440" on="0"/>
      </contour>
    </TTGlyph>
    <TTGlyph name="Q" xMin="53" yMin="-194" xMax="815" yMax="703">
      <contour>
        <pt x="704" y="18" on="1"/>
        <pt x="712" y="18" on="0"/>
        <pt x="722" y="8" on="0"/>
        <pt x="722" y="0" on="1"/>
        <pt x="722" y="-7" on="0"/>
        <pt x="710" y="-41" on="1"/>
        <pt x="700" y="-70" on="0"/>
        <pt x="680" y="-103" on="1"/>
        <pt x="621" y="-194" on="0"/>
        <pt x="541" y="-194" on="1"/>
        <pt x="463" y="-194" on="0"/>
        <pt x="448" y="-109" on="1"/>
        <pt x="444" y="-86" on="0"/>
        <pt x="443" y="-41" on="1"/>
        <pt x="443" y="-7" on="1"/>
        <pt x="433" y="-9" on="1"/>
        <pt x="391" y="-17" on="0"/>
        <pt x="344" y="-17" on="1"/>
        <pt x="208" y="-17" on="0"/>
        <pt x="53" y="117" on="0"/>
        <pt x="53" y="245" on="1"/>
        <pt x="53" y="264" on="0"/>
        <pt x="54" y="270" on="1"/>
        <pt x="67" y="408" on="0"/>
        <pt x="151" y="519" on="1"/>
        <pt x="213" y="603" on="0"/>
        <pt x="404" y="703" on="0"/>
        <pt x="523" y="703" on="1"/>
        <pt x="641" y="703" on="0"/>
        <pt x="788" y="602" on="0"/>
        <pt x="808" y="511" on="1"/>
        <pt x="815" y="474" on="0"/>
        <pt x="815" y="445" on="1"/>
        <pt x="815" y="378" on="0"/>
        <pt x="791" y="307" on="1"/>
        <pt x="724" y="96" on="0"/>
        <pt x="519" y="14" on="1"/>
        <pt x="525" y="4" on="1"/>
        <pt x="541" y="-20" on="0"/>
        <pt x="561" y="-29" on="1"/>
        <pt x="573" y="-32" on="0"/>
        <pt x="592" y="-32" on="1"/>
        <pt x="674" y="-32" on="0"/>
        <pt x="686" y="3" on="1"/>
        <pt x="692" y="18" on="0"/>
      </contour>
      <contour>
        <pt x="666" y="482" on="1"/>
        <pt x="666" y="561" on="0"/>
        <pt x="586" y="648" on="0"/>
        <pt x="512" y="648" on="1"/>
        <pt x="412" y="648" on="0"/>
        <pt x="335" y="573" on="1"/>
        <pt x="261" y="499" on="0"/>
        <pt x="220" y="332" on="1"/>
        <pt x="201" y="255" on="0"/>
        <pt x="201" y="202" on="1"/>
        <pt x="201" y="114" on="0"/>
        <pt x="252" y="72" on="1"/>
        <pt x="259" y="66" on="1"/>
        <pt x="262" y="76" on="1"/>
        <pt x="269" y="108" on="0"/>
        <pt x="323" y="153" on="0"/>
        <pt x="359" y="161" on="1"/>
        <pt x="365" y="162" on="0"/>
        <pt x="382" y="162" on="1"/>
        <pt x="404" y="162" on="0"/>
        <pt x="410" y="160" on="1"/>
        <pt x="456" y="147" on="0"/>
        <pt x="484" y="92" on="1"/>
        <pt x="491" y="78" on="1"/>
        <pt x="498" y="83" on="1"/>
        <pt x="572" y="134" on="0"/>
        <pt x="612" y="235" on="1"/>
        <pt x="653" y="334" on="0"/>
        <pt x="665" y="447" on="1"/>
        <pt x="666" y="455" on="0"/>
      </contour>
      <contour>
        <pt x="383" y="112" on="1"/>
        <pt x="359" y="112" on="0"/>
        <pt x="311" y="84" on="0"/>
        <pt x="311" y="63" on="1"/>
        <pt x="311" y="50" on="0"/>
        <pt x="324" y="42" on="1"/>
        <pt x="332" y="38" on="0"/>
        <pt x="366" y="38" on="1"/>
        <pt x="397" y="39" on="0"/>
        <pt x="429" y="49" on="1"/>
        <pt x="439" y="53" on="0"/>
        <pt x="439" y="56" on="1"/>
        <pt x="439" y="57" on="0"/>
        <pt x="438" y="61" on="1"/>
        <pt x="437" y="64" on="0"/>
        <pt x="437" y="67" on="1"/>
        <pt x="425" y="112" on="0"/>
      </contour>
    </TTGlyph>
    <TTGlyph name="R" xMin="43" yMin="-17" xMax="881" yMax="686">
      <contour>
        <pt x="162" y="62" on="1"/>
        <pt x="163" y="68" on="0"/>
        <pt x="233" y="348" on="0"/>
        <pt x="302" y="622" on="0"/>
        <pt x="302" y="624" on="0"/>
        <pt x="214" y="624" on="0"/>
        <pt x="209" y="626" on="1"/>
        <pt x="202" y="629" on="0"/>
        <pt x="199" y="639" on="1"/>
        <pt x="199" y="643" on="0"/>
        <pt x="203" y="659" on="1"/>
        <pt x="209" y="681" on="0"/>
        <pt x="216" y="684" on="1"/>
        <pt x="220" y="686" on="0"/>
        <pt x="422" y="686" on="1"/>
        <pt x="629" y="685" on="0"/>
        <pt x="664" y="680" on="1"/>
        <pt x="756" y="668" on="0"/>
        <pt x="806" y="620" on="1"/>
        <pt x="843" y="583" on="0"/>
        <pt x="843" y="535" on="1"/>
        <pt x="843" y="513" on="0"/>
        <pt x="840" y="501" on="1"/>
        <pt x="823" y="427" on="0"/>
        <pt x="742" y="378" on="1"/>
        <pt x="708" y="356" on="0"/>
        <pt x="663" y="342" on="1"/>
        <pt x="651" y="338" on="1"/>
        <pt x="657" y="334" on="1"/>
        <pt x="668" y="328" on="0"/>
        <pt x="688" y="310" on="1"/>
        <pt x="719" y="277" on="0"/>
        <pt x="719" y="237" on="1"/>
        <pt x="719" y="231" on="0"/>
        <pt x="701" y="101" on="0"/>
        <pt x="701" y="94" on="1"/>
        <pt x="701" y="64" on="0"/>
        <pt x="722" y="35" on="0"/>
        <pt x="748" y="35" on="1"/>
        <pt x="761" y="35" on="0"/>
        <pt x="765" y="37" on="1"/>
        <pt x="782" y="43" on="0"/>
        <pt x="812" y="79" on="0"/>
        <pt x="819" y="101" on="1"/>
        <pt x="822" y="111" on="0"/>
        <pt x="828" y="115" on="1"/>
        <pt x="831" y="117" on="0"/>
        <pt x="849" y="117" on="1"/>
        <pt x="871" y="117" on="0"/>
        <pt x="876" y="111" on="1"/>
        <pt x="881" y="104" on="0"/>
        <pt x="881" y="99" on="1"/>
        <pt x="881" y="83" on="0"/>
        <pt x="858" y="46" on="1"/>
        <pt x="826" y="0" on="0"/>
        <pt x="781" y="-11" on="1"/>
        <pt x="765" y="-17" on="0"/>
        <pt x="728" y="-17" on="1"/>
        <pt x="537" y="-13" on="0"/>
        <pt x="537" y="94" on="1"/>
        <pt x="537" y="111" on="0"/>
        <pt x="552" y="170" on="1"/>
        <pt x="567" y="230" on="0"/>
        <pt x="567" y="243" on="1"/>
        <pt x="567" y="292" on="0"/>
        <pt x="529" y="309" on="1"/>
        <pt x="517" y="316" on="0"/>
        <pt x="499" y="317" on="0"/>
        <pt x="441" y="318" on="1"/>
        <pt x="375" y="318" on="1"/>
        <pt x="374" y="314" on="1"/>
        <pt x="374" y="312" on="0"/>
        <pt x="312" y="65" on="0"/>
        <pt x="311" y="64" on="1"/>
        <pt x="311" y="62" on="0"/>
        <pt x="355" y="62" on="1"/>
        <pt x="400" y="62" on="0"/>
        <pt x="404" y="60" on="1"/>
        <pt x="414" y="55" on="0"/>
        <pt x="414" y="44" on="1"/>
        <pt x="414" y="39" on="0"/>
        <pt x="406" y="10" on="0"/>
        <pt x="404" y="7" on="1"/>
        <pt x="401" y="4" on="0"/>
        <pt x="393" y="0" on="1"/>
        <pt x="351" y="1" on="1"/>
        <pt x="325" y="2" on="0"/>
        <pt x="221" y="2" on="1"/>
        <pt x="183" y="2" on="0"/>
        <pt x="84" y="0" on="0"/>
        <pt x="65" y="0" on="1"/>
        <pt x="48" y="0" on="0"/>
        <pt x="43" y="15" on="1"/>
        <pt x="43" y="19" on="0"/>
        <pt x="47" y="35" on="1"/>
        <pt x="53" y="57" on="0"/>
        <pt x="60" y="60" on="1"/>
        <pt x="64" y="62" on="0"/>
        <pt x="113" y="62" on="1"/>
      </contour>
      <contour>
        <pt x="687" y="555" on="1"/>
        <pt x="687" y="586" on="0"/>
        <pt x="644" y="618" on="0"/>
        <pt x="593" y="624" on="0"/>
        <pt x="548" y="624" on="1"/>
        <pt x="513" y="624" on="1"/>
        <pt x="451" y="624" on="1"/>
        <pt x="420" y="498" on="1"/>
        <pt x="413" y="468" on="0"/>
        <pt x="396" y="404" on="0"/>
        <pt x="392" y="388" on="1"/>
        <pt x="388" y="371" on="1"/>
        <pt x="388" y="369" on="0"/>
        <pt x="458" y="369" on="1"/>
        <pt x="533" y="370" on="0"/>
        <pt x="540" y="371" on="1"/>
        <pt x="591" y="378" on="0"/>
        <pt x="624" y="400" on="1"/>
        <pt x="658" y="423" on="0"/>
        <pt x="676" y="492" on="1"/>
        <pt x="687" y="534" on="0"/>
      </contour>
    </TTGlyph>
    <TTGlyph name="S" xMin="63" yMin="-17" xMax="714" yMax="703">
      <contour>
        <pt x="618" y="458" on="1"/>
        <pt x="607" y="458" on="0"/>
        <pt x="598" y="465" on="0"/>
        <pt x="598" y="476" on="1"/>
        <pt x="598" y="482" on="0"/>
        <pt x="600" y="506" on="0"/>
        <pt x="600" y="511" on="1"/>
        <pt x="600" y="577" on="0"/>
        <pt x="524" y="645" on="0"/>
        <pt x="454" y="645" on="1"/>
        <pt x="400" y="645" on="0"/>
        <pt x="321" y="589" on="0"/>
        <pt x="310" y="541" on="1"/>
        <pt x="308" y="535" on="0"/>
        <pt x="308" y="520" on="1"/>
        <pt x="308" y="468" on="0"/>
        <pt x="363" y="452" on="1"/>
        <pt x="368" y="450" on="0"/>
        <pt x="509" y="417" on="0"/>
        <pt x="519" y="415" on="1"/>
        <pt x="568" y="399" on="0"/>
        <pt x="631" y="312" on="0"/>
        <pt x="631" y="254" on="1"/>
        <pt x="631" y="228" on="0"/>
        <pt x="624" y="199" on="1"/>
        <pt x="603" y="114" on="0"/>
        <pt x="480" y="0" on="0"/>
        <pt x="392" y="-14" on="1"/>
        <pt x="379" y="-16" on="0"/>
        <pt x="347" y="-16" on="1"/>
        <pt x="261" y="-16" on="0"/>
        <pt x="202" y="12" on="1"/>
        <pt x="189" y="18" on="0"/>
        <pt x="162" y="37" on="1"/>
        <pt x="130" y="11" on="1"/>
        <pt x="123" y="5" on="0"/>
        <pt x="105" y="-8" on="0"/>
        <pt x="100" y="-12" on="1"/>
        <pt x="95" y="-16" on="1"/>
        <pt x="93" y="-17" on="0"/>
        <pt x="82" y="-17" on="1"/>
        <pt x="75" y="-17" on="0"/>
        <pt x="68" y="-13" on="0"/>
        <pt x="67" y="-11" on="0"/>
        <pt x="63" y="-5" on="1"/>
        <pt x="90" y="107" on="1"/>
        <pt x="120" y="221" on="1"/>
        <pt x="124" y="228" on="0"/>
        <pt x="172" y="228" on="0"/>
        <pt x="177" y="222" on="1"/>
        <pt x="181" y="217" on="0"/>
        <pt x="177" y="202" on="1"/>
        <pt x="173" y="178" on="0"/>
        <pt x="173" y="168" on="1"/>
        <pt x="173" y="103" on="0"/>
        <pt x="274" y="45" on="0"/>
        <pt x="354" y="45" on="1"/>
        <pt x="390" y="45" on="0"/>
        <pt x="427" y="61" on="1"/>
        <pt x="489" y="93" on="0"/>
        <pt x="505" y="165" on="1"/>
        <pt x="506" y="170" on="0"/>
        <pt x="506" y="184" on="1"/>
        <pt x="506" y="224" on="0"/>
        <pt x="477" y="250" on="1"/>
        <pt x="467" y="257" on="0"/>
        <pt x="439" y="266" on="0"/>
        <pt x="376" y="280" on="1"/>
        <pt x="305" y="296" on="0"/>
        <pt x="294" y="300" on="1"/>
        <pt x="218" y="324" on="0"/>
        <pt x="192" y="398" on="1"/>
        <pt x="182" y="422" on="0"/>
        <pt x="182" y="452" on="1"/>
        <pt x="182" y="477" on="0"/>
        <pt x="189" y="501" on="1"/>
        <pt x="208" y="572" on="0"/>
        <pt x="257" y="623" on="1"/>
        <pt x="327" y="692" on="0"/>
        <pt x="431" y="702" on="1"/>
        <pt x="449" y="702" on="1"/>
        <pt x="491" y="702" on="0"/>
        <pt x="501" y="701" on="1"/>
        <pt x="571" y="690" on="0"/>
        <pt x="610" y="654" on="1"/>
        <pt x="614" y="649" on="0"/>
        <pt x="617" y="650" on="1"/>
        <pt x="618" y="650" on="0"/>
        <pt x="683" y="701" on="0"/>
        <pt x="683" y="702" on="1"/>
        <pt x="685" y="703" on="0"/>
        <pt x="692" y="703" on="1"/>
        <pt x="714" y="703" on="0"/>
        <pt x="714" y="690" on="1"/>
        <pt x="714" y="686" on="0"/>
        <pt x="660" y="470" on="0"/>
        <pt x="658" y="466" on="1"/>
        <pt x="653" y="458" on="0"/>
        <pt x="644" y="458" on="1"/>
        <pt x="629" y="458" on="1"/>
      </contour>
    </TTGlyph>
    <TTGlyph name="Sigma" xMin="69" yMin="0" xMax="902" yMax="686">
      <contour>
        <pt x="817" y="449" on="1"/>
        <pt x="817" y="455" on="0"/>
        <pt x="818" y="482" on="0"/>
        <pt x="818" y="487" on="1"/>
        <pt x="818" y="532" on="0"/>
        <pt x="806" y="559" on="1"/>
        <pt x="792" y="593" on="0"/>
        <pt x="726" y="620" on="0"/>
        <pt x="652" y="623" on="1"/>
        <pt x="636" y="624" on="0"/>
        <pt x="528" y="624" on="1"/>
        <pt x="430" y="624" on="1"/>
        <pt x="513" y="487" on="1"/>
        <pt x="594" y="351" on="0"/>
        <pt x="596" y="345" on="1"/>
        <pt x="596" y="335" on="0"/>
        <pt x="590" y="330" on="1"/>
        <pt x="583" y="323" on="0"/>
        <pt x="418" y="204" on="1"/>
        <pt x="250" y="81" on="1"/>
        <pt x="363" y="80" on="1"/>
        <pt x="528" y="80" on="0"/>
        <pt x="575" y="87" on="1"/>
        <pt x="648" y="98" on="0"/>
        <pt x="694" y="142" on="1"/>
        <pt x="739" y="185" on="0"/>
        <pt x="765" y="252" on="1"/>
        <pt x="772" y="268" on="0"/>
        <pt x="781" y="274" on="0"/>
        <pt x="799" y="274" on="1"/>
        <pt x="816" y="274" on="0"/>
        <pt x="820" y="272" on="1"/>
        <pt x="832" y="266" on="0"/>
        <pt x="830" y="254" on="1"/>
        <pt x="829" y="250" on="0"/>
        <pt x="738" y="10" on="0"/>
        <pt x="736" y="7" on="1"/>
        <pt x="733" y="4" on="0"/>
        <pt x="725" y="0" on="1"/>
        <pt x="405" y="0" on="1"/>
        <pt x="84" y="0" on="0"/>
        <pt x="80" y="2" on="1"/>
        <pt x="69" y="7" on="0"/>
        <pt x="69" y="18" on="1"/>
        <pt x="69" y="26" on="0"/>
        <pt x="75" y="32" on="1"/>
        <pt x="76" y="32" on="0"/>
        <pt x="121" y="65" on="0"/>
        <pt x="216" y="135" on="0"/>
        <pt x="255" y="164" on="1"/>
        <pt x="432" y="293" on="1"/>
        <pt x="429" y="298" on="0"/>
        <pt x="325" y="468" on="0"/>
        <pt x="225" y="633" on="0"/>
        <pt x="225" y="643" on="0"/>
        <pt x="232" y="676" on="0"/>
        <pt x="234" y="678" on="1"/>
        <pt x="239" y="683" on="0"/>
        <pt x="245" y="686" on="1"/>
        <pt x="888" y="686" on="1"/>
        <pt x="901" y="681" on="0"/>
        <pt x="902" y="671" on="1"/>
        <pt x="902" y="667" on="0"/>
        <pt x="877" y="444" on="0"/>
        <pt x="876" y="441" on="1"/>
        <pt x="871" y="430" on="0"/>
        <pt x="847" y="430" on="1"/>
        <pt x="828" y="430" on="0"/>
        <pt x="817" y="437" on="0"/>
      </contour>
    </TTGlyph>
    <TTGlyph name="T" xMin="22" yMin="0" xMax="772" yMax="675">
      <contour>
        <pt x="72" y="0" on="1"/>
        <pt x="46" y="0" on="0"/>
        <pt x="46" y="17" on="1"/>
        <pt x="46" y="36" on="0"/>
        <pt x="55" y="54" on="1"/>
        <pt x="60" y="59" on="0"/>
        <pt x="66" y="62" on="1"/>
        <pt x="137" y="62" on="1"/>
        <pt x="208" y="62" on="0"/>
        <pt x="209" y="63" on="1"/>
        <pt x="218" y="98" on="1"/>
        <pt x="227" y="134" on="0"/>
        <pt x="262" y="273" on="0"/>
        <pt x="278" y="339" on="1"/>
        <pt x="347" y="613" on="1"/>
        <pt x="300" y="613" on="1"/>
        <pt x="243" y="612" on="0"/>
        <pt x="217" y="606" on="1"/>
        <pt x="172" y="595" on="0"/>
        <pt x="146" y="564" on="1"/>
        <pt x="119" y="534" on="0"/>
        <pt x="89" y="449" on="1"/>
        <pt x="87" y="444" on="0"/>
        <pt x="82" y="429" on="0"/>
        <pt x="80" y="425" on="0"/>
        <pt x="73" y="420" on="0"/>
        <pt x="62" y="419" on="0"/>
        <pt x="52" y="419" on="1"/>
        <pt x="30" y="419" on="0"/>
        <pt x="24" y="427" on="1"/>
        <pt x="22" y="431" on="0"/>
        <pt x="22" y="434" on="1"/>
        <pt x="22" y="440" on="0"/>
        <pt x="61" y="556" on="0"/>
        <pt x="80" y="611" on="1"/>
        <pt x="100" y="666" on="1"/>
        <pt x="105" y="673" on="0"/>
        <pt x="111" y="675" on="1"/>
        <pt x="434" y="675" on="1"/>
        <pt x="758" y="675" on="0"/>
        <pt x="762" y="673" on="1"/>
        <pt x="772" y="668" on="0"/>
        <pt x="772" y="657" on="1"/>
        <pt x="772" y="655" on="0"/>
        <pt x="740" y="443" on="0"/>
        <pt x="738" y="434" on="1"/>
        <pt x="737" y="424" on="0"/>
        <pt x="724" y="419" on="0"/>
        <pt x="690" y="419" on="0"/>
        <pt x="686" y="421" on="1"/>
        <pt x="677" y="425" on="0"/>
        <pt x="677" y="434" on="1"/>
        <pt x="676" y="436" on="0"/>
        <pt x="678" y="450" on="1"/>
        <pt x="686" y="501" on="0"/>
        <pt x="686" y="529" on="1"/>
        <pt x="686" y="563" on="0"/>
        <pt x="664" y="596" on="0"/>
        <pt x="638" y="605" on="1"/>
        <pt x="615" y="613" on="0"/>
        <pt x="544" y="613" on="1"/>
        <pt x="502" y="613" on="1"/>
        <pt x="433" y="340" on="1"/>
        <pt x="418" y="279" on="0"/>
        <pt x="382" y="134" on="0"/>
        <pt x="374" y="100" on="1"/>
        <pt x="365" y="65" on="1"/>
        <pt x="364" y="62" on="1"/>
        <pt x="498" y="62" on="1"/>
        <pt x="504" y="59" on="0"/>
        <pt x="509" y="54" on="1"/>
        <pt x="514" y="47" on="0"/>
        <pt x="509" y="28" on="1"/>
        <pt x="508" y="25" on="0"/>
        <pt x="505" y="12" on="0"/>
        <pt x="503" y="8" on="0"/>
        <pt x="498" y="2" on="0"/>
        <pt x="489" y="0" on="0"/>
        <pt x="482" y="0" on="1"/>
        <pt x="455" y="0" on="0"/>
        <pt x="321" y="2" on="0"/>
        <pt x="271" y="2" on="1"/>
        <pt x="222" y="2" on="0"/>
        <pt x="96" y="0" on="0"/>
      </contour>
    </TTGlyph>
    <TTGlyph name="Theta" xMin="54" yMin="-17" xMax="844" yMax="702">
      <contour>
        <pt x="358" y="-17" on="1"/>
        <pt x="217" y="-17" on="0"/>
        <pt x="54" y="116" on="0"/>
        <pt x="54" y="243" on="1"/>
        <pt x="54" y="273" on="0"/>
        <pt x="55" y="282" on="1"/>
        <pt x="66" y="369" on="0"/>
        <pt x="150" y="528" on="0"/>
        <pt x="214" y="585" on="1"/>
        <pt x="332" y="690" on="0"/>
        <pt x="504" y="702" on="1"/>
        <pt x="527" y="702" on="1"/>
        <pt x="578" y="702" on="0"/>
        <pt x="590" y="701" on="1"/>
        <pt x="783" y="679" on="0"/>
        <pt x="830" y="534" on="1"/>
        <pt x="844" y="489" on="0"/>
        <pt x="844" y="441" on="1"/>
        <pt x="844" y="339" on="0"/>
        <pt x="751" y="153" on="0"/>
        <pt x="682" y="96" on="1"/>
        <pt x="590" y="19" on="0"/>
        <pt x="471" y="-5" on="1"/>
        <pt x="416" y="-17" on="0"/>
      </contour>
      <contour>
        <pt x="700" y="474" on="1"/>
        <pt x="700" y="558" on="0"/>
        <pt x="611" y="652" on="0"/>
        <pt x="528" y="652" on="1"/>
        <pt x="464" y="652" on="0"/>
        <pt x="405" y="622" on="1"/>
        <pt x="345" y="593" on="0"/>
        <pt x="301" y="534" on="1"/>
        <pt x="248" y="465" on="0"/>
        <pt x="215" y="332" on="1"/>
        <pt x="198" y="263" on="0"/>
        <pt x="198" y="210" on="1"/>
        <pt x="198" y="127" on="0"/>
        <pt x="290" y="36" on="0"/>
        <pt x="372" y="36" on="1"/>
        <pt x="456" y="36" on="0"/>
        <pt x="528" y="84" on="1"/>
        <pt x="587" y="125" on="0"/>
        <pt x="656" y="245" on="0"/>
        <pt x="681" y="344" on="1"/>
        <pt x="700" y="420" on="0"/>
      </contour>
      <contour>
        <pt x="534" y="260" on="1"/>
        <pt x="534" y="262" on="0"/>
        <pt x="537" y="277" on="1"/>
        <pt x="329" y="277" on="1"/>
        <pt x="326" y="266" on="1"/>
        <pt x="322" y="250" on="0"/>
        <pt x="313" y="243" on="0"/>
        <pt x="295" y="243" on="1"/>
        <pt x="279" y="243" on="0"/>
        <pt x="276" y="244" on="1"/>
        <pt x="263" y="248" on="0"/>
        <pt x="263" y="259" on="1"/>
        <pt x="306" y="435" on="1"/>
        <pt x="310" y="445" on="0"/>
        <pt x="334" y="445" on="1"/>
        <pt x="366" y="445" on="0"/>
        <pt x="366" y="428" on="1"/>
        <pt x="366" y="425" on="0"/>
        <pt x="362" y="412" on="0"/>
        <pt x="362" y="411" on="1"/>
        <pt x="466" y="411" on="1"/>
        <pt x="570" y="412" on="1"/>
        <pt x="573" y="422" on="1"/>
        <pt x="577" y="438" on="0"/>
        <pt x="586" y="445" on="0"/>
        <pt x="604" y="445" on="1"/>
        <pt x="620" y="445" on="0"/>
        <pt x="623" y="444" on="1"/>
        <pt x="636" y="440" on="0"/>
        <pt x="636" y="429" on="1"/>
        <pt x="636" y="423" on="0"/>
        <pt x="595" y="257" on="0"/>
        <pt x="593" y="253" on="1"/>
        <pt x="588" y="246" on="0"/>
        <pt x="580" y="243" on="0"/>
        <pt x="566" y="243" on="1"/>
        <pt x="534" y="243" on="0"/>
      </contour>
    </TTGlyph>
    <TTGlyph name="U" xMin="63" yMin="-16" xMax="877" yMax="686">
      <contour>
        <pt x="328" y="-16" on="1"/>
        <pt x="210" y="-16" on="0"/>
        <pt x="63" y="81" on="0"/>
        <pt x="63" y="176" on="1"/>
        <pt x="63" y="191" on="0"/>
        <pt x="65" y="209" on="1"/>
        <pt x="66" y="219" on="0"/>
        <pt x="117" y="424" on="0"/>
        <pt x="167" y="622" on="0"/>
        <pt x="167" y="624" on="0"/>
        <pt x="123" y="624" on="1"/>
        <pt x="78" y="624" on="0"/>
        <pt x="74" y="626" on="1"/>
        <pt x="67" y="629" on="0"/>
        <pt x="64" y="639" on="1"/>
        <pt x="64" y="643" on="0"/>
        <pt x="68" y="659" on="1"/>
        <pt x="74" y="681" on="0"/>
        <pt x="81" y="684" on="1"/>
        <pt x="85" y="686" on="0"/>
        <pt x="104" y="686" on="1"/>
        <pt x="155" y="684" on="0"/>
        <pt x="268" y="684" on="1"/>
        <pt x="296" y="684" on="0"/>
        <pt x="396" y="686" on="0"/>
        <pt x="418" y="686" on="1"/>
        <pt x="441" y="686" on="0"/>
        <pt x="441" y="668" on="1"/>
        <pt x="441" y="663" on="0"/>
        <pt x="433" y="634" on="0"/>
        <pt x="431" y="631" on="1"/>
        <pt x="430" y="628" on="0"/>
        <pt x="425" y="626" on="1"/>
        <pt x="421" y="624" on="0"/>
        <pt x="371" y="624" on="1"/>
        <pt x="322" y="624" on="1"/>
        <pt x="270" y="415" on="1"/>
        <pt x="215" y="193" on="0"/>
        <pt x="212" y="173" on="1"/>
        <pt x="209" y="156" on="0"/>
        <pt x="209" y="141" on="1"/>
        <pt x="209" y="45" on="0"/>
        <pt x="336" y="45" on="1"/>
        <pt x="529" y="45" on="0"/>
        <pt x="585" y="211" on="1"/>
        <pt x="590" y="229" on="1"/>
        <pt x="594" y="247" on="0"/>
        <pt x="608" y="301" on="0"/>
        <pt x="627" y="372" on="0"/>
        <pt x="645" y="446" on="0"/>
        <pt x="663" y="518" on="0"/>
        <pt x="677" y="576" on="0"/>
        <pt x="686" y="615" on="0"/>
        <pt x="686" y="618" on="1"/>
        <pt x="686" y="620" on="0"/>
        <pt x="685" y="620" on="1"/>
        <pt x="683" y="620" on="1"/>
        <pt x="681" y="621" on="0"/>
        <pt x="674" y="622" on="0"/>
        <pt x="671" y="622" on="1"/>
        <pt x="660" y="622" on="0"/>
        <pt x="630" y="624" on="1"/>
        <pt x="596" y="624" on="0"/>
        <pt x="590" y="631" on="1"/>
        <pt x="584" y="639" on="0"/>
        <pt x="590" y="659" on="1"/>
        <pt x="596" y="682" on="0"/>
        <pt x="602" y="684" on="1"/>
        <pt x="605" y="686" on="0"/>
        <pt x="613" y="686" on="1"/>
        <pt x="629" y="686" on="0"/>
        <pt x="710" y="684" on="0"/>
        <pt x="740" y="684" on="1"/>
        <pt x="818" y="684" on="0"/>
        <pt x="836" y="685" on="1"/>
        <pt x="863" y="686" on="0"/>
        <pt x="866" y="684" on="1"/>
        <pt x="877" y="679" on="0"/>
        <pt x="877" y="668" on="1"/>
        <pt x="877" y="663" on="0"/>
        <pt x="869" y="634" on="0"/>
        <pt x="867" y="631" on="1"/>
        <pt x="861" y="624" on="0"/>
        <pt x="828" y="624" on="1"/>
        <pt x="762" y="622" on="0"/>
        <pt x="757" y="617" on="1"/>
        <pt x="757" y="613" on="0"/>
        <pt x="653" y="204" on="0"/>
        <pt x="651" y="200" on="1"/>
        <pt x="620" y="111" on="0"/>
        <pt x="475" y="-2" on="0"/>
        <pt x="374" y="-15" on="1"/>
        <pt x="365" y="-16" on="0"/>
      </contour>
    </TTGlyph>
    <TTGlyph name="Upsilon" xMin="32" yMin="0" xMax="802" yMax="703">
      <contour>
        <pt x="210" y="702" on="1"/>
        <pt x="216" y="703" on="0"/>
        <pt x="229" y="703" on="1"/>
        <pt x="252" y="703" on="0"/>
        <pt x="269" y="699" on="1"/>
        <pt x="359" y="679" on="0"/>
        <pt x="386" y="573" on="1"/>
        <pt x="397" y="534" on="0"/>
        <pt x="397" y="491" on="1"/>
        <pt x="397" y="478" on="1"/>
        <pt x="404" y="491" on="1"/>
        <pt x="438" y="557" on="0"/>
        <pt x="485" y="608" on="1"/>
        <pt x="572" y="703" on="0"/>
        <pt x="677" y="703" on="1"/>
        <pt x="757" y="703" on="0"/>
        <pt x="790" y="639" on="1"/>
        <pt x="802" y="615" on="0"/>
        <pt x="802" y="584" on="1"/>
        <pt x="802" y="550" on="0"/>
        <pt x="791" y="539" on="1"/>
        <pt x="786" y="533" on="0"/>
        <pt x="776" y="531" on="0"/>
        <pt x="757" y="531" on="1"/>
        <pt x="736" y="532" on="1"/>
        <pt x="732" y="535" on="1"/>
        <pt x="729" y="539" on="1"/>
        <pt x="729" y="549" on="1"/>
        <pt x="730" y="559" on="0"/>
        <pt x="728" y="563" on="1"/>
        <pt x="721" y="581" on="0"/>
        <pt x="658" y="581" on="1"/>
        <pt x="628" y="581" on="0"/>
        <pt x="609" y="576" on="1"/>
        <pt x="531" y="553" on="0"/>
        <pt x="477" y="443" on="1"/>
        <pt x="453" y="392" on="0"/>
        <pt x="443" y="351" on="1"/>
        <pt x="441" y="345" on="0"/>
        <pt x="406" y="201" on="0"/>
        <pt x="371" y="65" on="0"/>
        <pt x="371" y="64" on="1"/>
        <pt x="371" y="62" on="0"/>
        <pt x="428" y="62" on="1"/>
        <pt x="490" y="62" on="0"/>
        <pt x="495" y="57" on="1"/>
        <pt x="501" y="53" on="0"/>
        <pt x="501" y="44" on="1"/>
        <pt x="501" y="27" on="0"/>
        <pt x="492" y="9" on="1"/>
        <pt x="488" y="3" on="0"/>
        <pt x="480" y="0" on="1"/>
        <pt x="431" y="1" on="1"/>
        <pt x="401" y="2" on="0"/>
        <pt x="155" y="2" on="0"/>
        <pt x="127" y="1" on="1"/>
        <pt x="85" y="0" on="1"/>
        <pt x="71" y="6" on="0"/>
        <pt x="71" y="17" on="1"/>
        <pt x="71" y="22" on="0"/>
        <pt x="74" y="33" on="1"/>
        <pt x="78" y="49" on="0"/>
        <pt x="82" y="58" on="0"/>
        <pt x="88" y="60" on="1"/>
        <pt x="91" y="62" on="0"/>
        <pt x="154" y="62" on="1"/>
        <pt x="216" y="62" on="1"/>
        <pt x="217" y="68" on="0"/>
        <pt x="253" y="210" on="0"/>
        <pt x="290" y="358" on="0"/>
        <pt x="291" y="360" on="1"/>
        <pt x="300" y="405" on="0"/>
        <pt x="300" y="452" on="1"/>
        <pt x="299" y="483" on="0"/>
        <pt x="293" y="507" on="1"/>
        <pt x="272" y="581" on="0"/>
        <pt x="198" y="581" on="1"/>
        <pt x="152" y="581" on="0"/>
        <pt x="106" y="570" on="0"/>
        <pt x="100" y="548" on="1"/>
        <pt x="96" y="537" on="0"/>
        <pt x="86" y="533" on="1"/>
        <pt x="82" y="531" on="0"/>
        <pt x="60" y="531" on="1"/>
        <pt x="39" y="532" on="1"/>
        <pt x="32" y="537" on="0"/>
        <pt x="32" y="551" on="0"/>
        <pt x="36" y="562" on="1"/>
        <pt x="54" y="616" on="0"/>
        <pt x="153" y="695" on="0"/>
      </contour>
    </TTGlyph>
    <TTGlyph name="V" xMin="62" yMin="-16" xMax="886" yMax="686">
      <contour>
        <pt x="650" y="686" on="1"/>
        <pt x="666" y="686" on="0"/>
        <pt x="740" y="684" on="0"/>
        <pt x="766" y="684" on="1"/>
        <pt x="836" y="684" on="0"/>
        <pt x="850" y="685" on="1"/>
        <pt x="871" y="686" on="0"/>
        <pt x="876" y="684" on="1"/>
        <pt x="883" y="681" on="0"/>
        <pt x="886" y="671" on="1"/>
        <pt x="886" y="667" on="0"/>
        <pt x="882" y="651" on="1"/>
        <pt x="877" y="632" on="0"/>
        <pt x="868" y="624" on="0"/>
        <pt x="850" y="624" on="1"/>
        <pt x="800" y="624" on="0"/>
        <pt x="779" y="617" on="1"/>
        <pt x="774" y="617" on="0"/>
        <pt x="770" y="613" on="1"/>
        <pt x="767" y="610" on="0"/>
        <pt x="353" y="-2" on="0"/>
        <pt x="350" y="-5" on="1"/>
        <pt x="346" y="-9" on="0"/>
        <pt x="332" y="-16" on="1"/>
        <pt x="306" y="-16" on="1"/>
        <pt x="280" y="-16" on="0"/>
        <pt x="277" y="-15" on="1"/>
        <pt x="269" y="-10" on="0"/>
        <pt x="267" y="-2" on="1"/>
        <pt x="267" y="-1" on="0"/>
        <pt x="253" y="76" on="0"/>
        <pt x="222" y="247" on="0"/>
        <pt x="210" y="313" on="1"/>
        <pt x="156" y="624" on="1"/>
        <pt x="116" y="624" on="1"/>
        <pt x="76" y="624" on="0"/>
        <pt x="73" y="626" on="1"/>
        <pt x="62" y="631" on="0"/>
        <pt x="62" y="642" on="1"/>
        <pt x="62" y="647" on="0"/>
        <pt x="70" y="676" on="0"/>
        <pt x="72" y="679" on="1"/>
        <pt x="79" y="686" on="0"/>
        <pt x="99" y="686" on="1"/>
        <pt x="144" y="684" on="0"/>
        <pt x="246" y="684" on="1"/>
        <pt x="330" y="684" on="0"/>
        <pt x="368" y="685" on="1"/>
        <pt x="401" y="686" on="1"/>
        <pt x="408" y="683" on="0"/>
        <pt x="413" y="678" on="1"/>
        <pt x="418" y="671" on="0"/>
        <pt x="413" y="652" on="1"/>
        <pt x="408" y="634" on="0"/>
        <pt x="404" y="629" on="1"/>
        <pt x="398" y="624" on="0"/>
        <pt x="356" y="624" on="1"/>
        <pt x="318" y="624" on="0"/>
        <pt x="318" y="623" on="1"/>
        <pt x="318" y="620" on="0"/>
        <pt x="357" y="395" on="0"/>
        <pt x="377" y="284" on="1"/>
        <pt x="397" y="174" on="1"/>
        <pt x="472" y="285" on="1"/>
        <pt x="548" y="396" on="0"/>
        <pt x="699" y="619" on="0"/>
        <pt x="699" y="620" on="1"/>
        <pt x="698" y="621" on="0"/>
        <pt x="652" y="624" on="1"/>
        <pt x="628" y="624" on="0"/>
        <pt x="622" y="632" on="1"/>
        <pt x="617" y="639" on="0"/>
        <pt x="622" y="658" on="1"/>
        <pt x="628" y="678" on="0"/>
        <pt x="632" y="681" on="1"/>
        <pt x="639" y="686" on="0"/>
      </contour>
    </TTGlyph>
    <TTGlyph name="W" xMin="61" yMin="-17" xMax="1207" yMax="686">
      <contour>
        <pt x="1190" y="686" on="1"/>
        <pt x="1196" y="686" on="0"/>
        <pt x="1207" y="676" on="0"/>
        <pt x="1207" y="669" on="1"/>
        <pt x="1207" y="664" on="0"/>
        <pt x="1204" y="652" on="1"/>
        <pt x="1199" y="631" on="0"/>
        <pt x="1188" y="624" on="0"/>
        <pt x="1164" y="624" on="1"/>
        <pt x="1112" y="622" on="0"/>
        <pt x="1101" y="615" on="1"/>
        <pt x="1098" y="612" on="0"/>
        <pt x="905" y="305" on="1"/>
        <pt x="715" y="-1" on="0"/>
        <pt x="709" y="-7" on="1"/>
        <pt x="708" y="-8" on="0"/>
        <pt x="699" y="-14" on="1"/>
        <pt x="692" y="-17" on="0"/>
        <pt x="673" y="-17" on="1"/>
        <pt x="653" y="-17" on="0"/>
        <pt x="648" y="-15" on="1"/>
        <pt x="642" y="-12" on="0"/>
        <pt x="639" y="-8" on="1"/>
        <pt x="581" y="441" on="1"/>
        <pt x="581" y="444" on="0"/>
        <pt x="442" y="221" on="1"/>
        <pt x="303" y="-1" on="0"/>
        <pt x="298" y="-6" on="1"/>
        <pt x="296" y="-8" on="0"/>
        <pt x="288" y="-14" on="1"/>
        <pt x="279" y="-17" on="0"/>
        <pt x="263" y="-17" on="1"/>
        <pt x="242" y="-17" on="0"/>
        <pt x="239" y="-16" on="1"/>
        <pt x="228" y="-12" on="0"/>
        <pt x="227" y="-5" on="1"/>
        <pt x="225" y="2" on="0"/>
        <pt x="186" y="311" on="1"/>
        <pt x="147" y="620" on="1"/>
        <pt x="147" y="624" on="1"/>
        <pt x="111" y="624" on="1"/>
        <pt x="74" y="624" on="0"/>
        <pt x="70" y="626" on="1"/>
        <pt x="61" y="630" on="0"/>
        <pt x="61" y="640" on="1"/>
        <pt x="61" y="660" on="0"/>
        <pt x="70" y="678" on="1"/>
        <pt x="76" y="684" on="0"/>
        <pt x="82" y="686" on="0"/>
        <pt x="98" y="686" on="1"/>
        <pt x="140" y="684" on="0"/>
        <pt x="239" y="684" on="1"/>
        <pt x="264" y="684" on="0"/>
        <pt x="360" y="686" on="0"/>
        <pt x="383" y="686" on="1"/>
        <pt x="407" y="686" on="0"/>
        <pt x="407" y="668" on="1"/>
        <pt x="407" y="651" on="0"/>
        <pt x="398" y="633" on="1"/>
        <pt x="395" y="629" on="0"/>
        <pt x="391" y="626" on="1"/>
        <pt x="387" y="624" on="0"/>
        <pt x="348" y="624" on="1"/>
        <pt x="324" y="624" on="1"/>
        <pt x="307" y="624" on="0"/>
        <pt x="307" y="622" on="1"/>
        <pt x="307" y="618" on="0"/>
        <pt x="332" y="409" on="1"/>
        <pt x="359" y="198" on="0"/>
        <pt x="359" y="195" on="1"/>
        <pt x="407" y="271" on="0"/>
        <pt x="465" y="363" on="1"/>
        <pt x="570" y="532" on="1"/>
        <pt x="564" y="576" on="1"/>
        <pt x="558" y="622" on="1"/>
        <pt x="558" y="624" on="1"/>
        <pt x="522" y="624" on="1"/>
        <pt x="486" y="624" on="0"/>
        <pt x="483" y="626" on="1"/>
        <pt x="472" y="631" on="0"/>
        <pt x="472" y="641" on="1"/>
        <pt x="472" y="660" on="0"/>
        <pt x="481" y="678" on="1"/>
        <pt x="486" y="683" on="0"/>
        <pt x="493" y="686" on="1"/>
        <pt x="529" y="685" on="1"/>
        <pt x="551" y="684" on="0"/>
        <pt x="645" y="684" on="1"/>
        <pt x="680" y="684" on="0"/>
        <pt x="776" y="686" on="0"/>
        <pt x="795" y="686" on="1"/>
        <pt x="818" y="686" on="0"/>
        <pt x="818" y="669" on="1"/>
        <pt x="818" y="650" on="0"/>
        <pt x="809" y="632" on="1"/>
        <pt x="800" y="623" on="0"/>
        <pt x="793" y="623" on="1"/>
        <pt x="792" y="623" on="0"/>
        <pt x="770" y="624" on="0"/>
        <pt x="759" y="624" on="1"/>
        <pt x="718" y="624" on="0"/>
        <pt x="718" y="622" on="1"/>
        <pt x="718" y="615" on="0"/>
        <pt x="743" y="410" on="1"/>
        <pt x="770" y="199" on="0"/>
        <pt x="770" y="193" on="0"/>
        <pt x="902" y="405" on="0"/>
        <pt x="968" y="512" on="1"/>
        <pt x="1035" y="619" on="1"/>
        <pt x="1025" y="624" on="0"/>
        <pt x="968" y="624" on="1"/>
        <pt x="942" y="624" on="0"/>
        <pt x="942" y="641" on="1"/>
        <pt x="942" y="645" on="0"/>
        <pt x="946" y="659" on="1"/>
        <pt x="950" y="675" on="0"/>
        <pt x="955" y="683" on="0"/>
        <pt x="963" y="686" on="1"/>
        <pt x="998" y="685" on="1"/>
        <pt x="1020" y="684" on="0"/>
        <pt x="1093" y="684" on="1"/>
        <pt x="1120" y="684" on="0"/>
        <pt x="1179" y="686" on="0"/>
      </contour>
    </TTGlyph>
    <TTGlyph name="X" xMin="38" yMin="0" xMax="953" yMax="686">
      <contour>
        <pt x="53" y="0" on="1"/>
        <pt x="38" y="6" on="0"/>
        <pt x="38" y="17" on="1"/>
        <pt x="38" y="22" on="0"/>
        <pt x="44" y="42" on="0"/>
        <pt x="49" y="56" on="0"/>
        <pt x="50" y="57" on="1"/>
        <pt x="56" y="62" on="0"/>
        <pt x="78" y="62" on="1"/>
        <pt x="169" y="62" on="0"/>
        <pt x="188" y="75" on="1"/>
        <pt x="194" y="77" on="0"/>
        <pt x="435" y="324" on="1"/>
        <pt x="444" y="334" on="1"/>
        <pt x="439" y="347" on="1"/>
        <pt x="437" y="351" on="0"/>
        <pt x="373" y="492" on="1"/>
        <pt x="313" y="624" on="1"/>
        <pt x="268" y="624" on="1"/>
        <pt x="223" y="624" on="0"/>
        <pt x="219" y="626" on="1"/>
        <pt x="209" y="630" on="0"/>
        <pt x="209" y="640" on="1"/>
        <pt x="209" y="646" on="0"/>
        <pt x="212" y="658" on="1"/>
        <pt x="213" y="661" on="0"/>
        <pt x="216" y="671" on="0"/>
        <pt x="217" y="675" on="0"/>
        <pt x="220" y="680" on="0"/>
        <pt x="224" y="683" on="0"/>
        <pt x="227" y="684" on="1"/>
        <pt x="230" y="686" on="0"/>
        <pt x="247" y="686" on="1"/>
        <pt x="295" y="684" on="0"/>
        <pt x="398" y="684" on="1"/>
        <pt x="424" y="684" on="0"/>
        <pt x="527" y="686" on="0"/>
        <pt x="551" y="686" on="1"/>
        <pt x="568" y="686" on="0"/>
        <pt x="572" y="671" on="1"/>
        <pt x="572" y="667" on="0"/>
        <pt x="568" y="651" on="1"/>
        <pt x="563" y="631" on="0"/>
        <pt x="552" y="624" on="0"/>
        <pt x="494" y="624" on="0"/>
        <pt x="492" y="623" on="1"/>
        <pt x="488" y="623" on="1"/>
        <pt x="526" y="540" on="1"/>
        <pt x="563" y="457" on="0"/>
        <pt x="564" y="457" on="1"/>
        <pt x="564" y="456" on="0"/>
        <pt x="644" y="537" on="0"/>
        <pt x="684" y="578" on="1"/>
        <pt x="724" y="619" on="1"/>
        <pt x="716" y="622" on="0"/>
        <pt x="677" y="624" on="1"/>
        <pt x="662" y="624" on="0"/>
        <pt x="654" y="626" on="1"/>
        <pt x="645" y="630" on="0"/>
        <pt x="645" y="640" on="1"/>
        <pt x="645" y="660" on="0"/>
        <pt x="654" y="678" on="1"/>
        <pt x="659" y="683" on="0"/>
        <pt x="666" y="686" on="1"/>
        <pt x="704" y="685" on="1"/>
        <pt x="728" y="684" on="0"/>
        <pt x="813" y="684" on="1"/>
        <pt x="896" y="684" on="0"/>
        <pt x="913" y="685" on="1"/>
        <pt x="939" y="686" on="0"/>
        <pt x="944" y="684" on="1"/>
        <pt x="953" y="680" on="0"/>
        <pt x="953" y="670" on="1"/>
        <pt x="953" y="650" on="0"/>
        <pt x="944" y="632" on="1"/>
        <pt x="936" y="624" on="0"/>
        <pt x="925" y="624" on="1"/>
        <pt x="914" y="624" on="1"/>
        <pt x="858" y="624" on="0"/>
        <pt x="820" y="618" on="1"/>
        <pt x="809" y="615" on="0"/>
        <pt x="803" y="611" on="1"/>
        <pt x="800" y="609" on="0"/>
        <pt x="591" y="397" on="0"/>
        <pt x="591" y="396" on="1"/>
        <pt x="591" y="394" on="0"/>
        <pt x="667" y="229" on="1"/>
        <pt x="743" y="62" on="1"/>
        <pt x="787" y="62" on="1"/>
        <pt x="832" y="62" on="0"/>
        <pt x="836" y="60" on="1"/>
        <pt x="846" y="55" on="0"/>
        <pt x="846" y="44" on="1"/>
        <pt x="846" y="39" on="0"/>
        <pt x="838" y="10" on="0"/>
        <pt x="836" y="7" on="1"/>
        <pt x="832" y="0" on="0"/>
        <pt x="817" y="0" on="1"/>
        <pt x="798" y="0" on="0"/>
        <pt x="702" y="2" on="0"/>
        <pt x="664" y="2" on="1"/>
        <pt x="627" y="2" on="0"/>
        <pt x="528" y="0" on="0"/>
        <pt x="508" y="0" on="1"/>
        <pt x="484" y="0" on="0"/>
        <pt x="484" y="18" on="1"/>
        <pt x="484" y="19" on="0"/>
        <pt x="488" y="37" on="1"/>
        <pt x="492" y="56" on="0"/>
        <pt x="503" y="61" on="0"/>
        <pt x="534" y="62" on="1"/>
        <pt x="566" y="63" on="1"/>
        <pt x="567" y="64" on="0"/>
        <pt x="472" y="274" on="0"/>
        <pt x="471" y="274" on="1"/>
        <pt x="469" y="274" on="0"/>
        <pt x="368" y="170" on="0"/>
        <pt x="318" y="118" on="1"/>
        <pt x="268" y="67" on="1"/>
        <pt x="268" y="65" on="0"/>
        <pt x="315" y="62" on="1"/>
        <pt x="320" y="62" on="0"/>
        <pt x="328" y="62" on="1"/>
        <pt x="335" y="61" on="1"/>
        <pt x="347" y="58" on="0"/>
        <pt x="347" y="44" on="1"/>
        <pt x="347" y="27" on="0"/>
        <pt x="338" y="9" on="1"/>
        <pt x="334" y="3" on="0"/>
        <pt x="326" y="0" on="1"/>
        <pt x="287" y="1" on="1"/>
        <pt x="263" y="2" on="0"/>
        <pt x="177" y="2" on="1"/>
        <pt x="95" y="2" on="0"/>
        <pt x="78" y="1" on="1"/>
      </contour>
    </TTGlyph>
    <TTGlyph name="Xi" xMin="62" yMin="0" xMax="867" yMax="675">
      <contour>
        <pt x="771" y="481" on="1"/>
        <pt x="771" y="489" on="0"/>
        <pt x="779" y="538" on="0"/>
        <pt x="779" y="541" on="1"/>
        <pt x="779" y="549" on="1"/>
        <pt x="774" y="549" on="1"/>
        <pt x="755" y="552" on="0"/>
        <pt x="505" y="552" on="1"/>
        <pt x="281" y="551" on="0"/>
        <pt x="267" y="548" on="1"/>
        <pt x="264" y="548" on="0"/>
        <pt x="260" y="541" on="1"/>
        <pt x="251" y="526" on="0"/>
        <pt x="241" y="494" on="1"/>
        <pt x="240" y="492" on="0"/>
        <pt x="237" y="479" on="0"/>
        <pt x="236" y="477" on="0"/>
        <pt x="232" y="469" on="0"/>
        <pt x="229" y="469" on="0"/>
        <pt x="222" y="466" on="0"/>
        <pt x="213" y="466" on="0"/>
        <pt x="206" y="466" on="1"/>
        <pt x="186" y="466" on="0"/>
        <pt x="181" y="471" on="1"/>
        <pt x="175" y="475" on="0"/>
        <pt x="175" y="484" on="1"/>
        <pt x="175" y="487" on="0"/>
        <pt x="228" y="662" on="0"/>
        <pt x="230" y="666" on="1"/>
        <pt x="235" y="673" on="0"/>
        <pt x="241" y="675" on="1"/>
        <pt x="547" y="675" on="1"/>
        <pt x="853" y="675" on="0"/>
        <pt x="857" y="673" on="1"/>
        <pt x="867" y="668" on="0"/>
        <pt x="867" y="657" on="1"/>
        <pt x="867" y="655" on="0"/>
        <pt x="833" y="482" on="0"/>
        <pt x="832" y="478" on="1"/>
        <pt x="828" y="470" on="0"/>
        <pt x="818" y="466" on="0"/>
        <pt x="802" y="466" on="1"/>
        <pt x="785" y="466" on="0"/>
        <pt x="781" y="468" on="1"/>
        <pt x="772" y="473" on="0"/>
      </contour>
      <contour>
        <pt x="298" y="448" on="1"/>
        <pt x="329" y="448" on="0"/>
        <pt x="329" y="431" on="1"/>
        <pt x="329" y="424" on="0"/>
        <pt x="326" y="414" on="1"/>
        <pt x="326" y="413" on="0"/>
        <pt x="486" y="413" on="1"/>
        <pt x="647" y="413" on="1"/>
        <pt x="650" y="424" on="1"/>
        <pt x="654" y="442" on="0"/>
        <pt x="661" y="446" on="1"/>
        <pt x="664" y="448" on="0"/>
        <pt x="702" y="448" on="0"/>
        <pt x="708" y="444" on="0"/>
        <pt x="714" y="432" on="1"/>
        <pt x="694" y="348" on="1"/>
        <pt x="673" y="265" on="0"/>
        <pt x="670" y="261" on="1"/>
        <pt x="664" y="255" on="0"/>
        <pt x="622" y="255" on="0"/>
        <pt x="617" y="261" on="1"/>
        <pt x="613" y="265" on="0"/>
        <pt x="612" y="284" on="0"/>
        <pt x="616" y="289" on="1"/>
        <pt x="616" y="290" on="0"/>
        <pt x="456" y="290" on="1"/>
        <pt x="295" y="290" on="1"/>
        <pt x="294" y="286" on="1"/>
        <pt x="294" y="279" on="0"/>
        <pt x="285" y="259" on="0"/>
        <pt x="281" y="257" on="1"/>
        <pt x="278" y="255" on="0"/>
        <pt x="259" y="255" on="1"/>
        <pt x="241" y="255" on="0"/>
        <pt x="238" y="257" on="1"/>
        <pt x="230" y="262" on="0"/>
        <pt x="228" y="270" on="1"/>
        <pt x="228" y="275" on="0"/>
        <pt x="268" y="435" on="0"/>
        <pt x="270" y="439" on="1"/>
        <pt x="274" y="446" on="0"/>
        <pt x="282" y="448" on="0"/>
      </contour>
      <contour>
        <pt x="108" y="218" on="1"/>
        <pt x="112" y="220" on="0"/>
        <pt x="129" y="220" on="1"/>
        <pt x="152" y="220" on="0"/>
        <pt x="157" y="212" on="1"/>
        <pt x="161" y="205" on="0"/>
        <pt x="159" y="192" on="1"/>
        <pt x="150" y="145" on="0"/>
        <pt x="150" y="131" on="1"/>
        <pt x="150" y="130" on="0"/>
        <pt x="150" y="128" on="1"/>
        <pt x="151" y="127" on="1"/>
        <pt x="155" y="124" on="0"/>
        <pt x="390" y="123" on="1"/>
        <pt x="640" y="123" on="0"/>
        <pt x="664" y="126" on="1"/>
        <pt x="668" y="127" on="0"/>
        <pt x="675" y="127" on="1"/>
        <pt x="686" y="131" on="0"/>
        <pt x="704" y="198" on="1"/>
        <pt x="709" y="214" on="0"/>
        <pt x="716" y="218" on="1"/>
        <pt x="720" y="220" on="0"/>
        <pt x="738" y="220" on="1"/>
        <pt x="755" y="220" on="0"/>
        <pt x="759" y="218" on="1"/>
        <pt x="768" y="213" on="0"/>
        <pt x="768" y="203" on="1"/>
        <pt x="768" y="198" on="0"/>
        <pt x="713" y="12" on="0"/>
        <pt x="710" y="8" on="1"/>
        <pt x="707" y="3" on="0"/>
        <pt x="699" y="0" on="1"/>
        <pt x="388" y="0" on="1"/>
        <pt x="77" y="0" on="0"/>
        <pt x="73" y="2" on="1"/>
        <pt x="62" y="7" on="0"/>
        <pt x="62" y="18" on="1"/>
        <pt x="62" y="27" on="0"/>
        <pt x="81" y="115" on="1"/>
        <pt x="96" y="193" on="0"/>
        <pt x="102" y="215" on="0"/>
      </contour>
    </TTGlyph>
    <TTGlyph name="Y" xMin="40" yMin="0" xMax="876" yMax="686">
      <contour>
        <pt x="858" y="686" on="1"/>
        <pt x="865" y="686" on="0"/>
        <pt x="876" y="677" on="0"/>
        <pt x="876" y="669" on="1"/>
        <pt x="876" y="664" on="0"/>
        <pt x="873" y="652" on="1"/>
        <pt x="868" y="631" on="0"/>
        <pt x="857" y="624" on="0"/>
        <pt x="829" y="624" on="1"/>
        <pt x="763" y="623" on="0"/>
        <pt x="747" y="611" on="1"/>
        <pt x="727" y="590" on="0"/>
        <pt x="590" y="441" on="1"/>
        <pt x="437" y="275" on="1"/>
        <pt x="411" y="170" on="1"/>
        <pt x="385" y="65" on="0"/>
        <pt x="384" y="64" on="1"/>
        <pt x="384" y="62" on="0"/>
        <pt x="429" y="62" on="1"/>
        <pt x="473" y="62" on="0"/>
        <pt x="478" y="60" on="1"/>
        <pt x="488" y="56" on="0"/>
        <pt x="488" y="46" on="1"/>
        <pt x="488" y="43" on="0"/>
        <pt x="484" y="29" on="1"/>
        <pt x="479" y="6" on="0"/>
        <pt x="473" y="3" on="1"/>
        <pt x="468" y="0" on="0"/>
        <pt x="454" y="0" on="1"/>
        <pt x="433" y="0" on="0"/>
        <pt x="332" y="2" on="0"/>
        <pt x="256" y="2" on="0"/>
        <pt x="157" y="0" on="0"/>
        <pt x="138" y="0" on="1"/>
        <pt x="120" y="0" on="0"/>
        <pt x="116" y="15" on="1"/>
        <pt x="116" y="19" on="0"/>
        <pt x="120" y="35" on="1"/>
        <pt x="126" y="57" on="0"/>
        <pt x="133" y="60" on="1"/>
        <pt x="137" y="62" on="0"/>
        <pt x="187" y="62" on="1"/>
        <pt x="236" y="62" on="1"/>
        <pt x="253" y="133" on="0"/>
        <pt x="289" y="275" on="1"/>
        <pt x="210" y="459" on="0"/>
        <pt x="142" y="624" on="1"/>
        <pt x="97" y="624" on="1"/>
        <pt x="52" y="624" on="0"/>
        <pt x="48" y="627" on="1"/>
        <pt x="40" y="631" on="0"/>
        <pt x="40" y="640" on="1"/>
        <pt x="40" y="660" on="0"/>
        <pt x="49" y="678" on="1"/>
        <pt x="55" y="684" on="0"/>
        <pt x="61" y="686" on="0"/>
        <pt x="77" y="686" on="1"/>
        <pt x="122" y="684" on="0"/>
        <pt x="228" y="684" on="1"/>
        <pt x="255" y="684" on="0"/>
        <pt x="361" y="686" on="0"/>
        <pt x="385" y="686" on="1"/>
        <pt x="406" y="686" on="0"/>
        <pt x="406" y="670" on="1"/>
        <pt x="406" y="662" on="0"/>
        <pt x="403" y="653" on="1"/>
        <pt x="398" y="631" on="0"/>
        <pt x="388" y="624" on="0"/>
        <pt x="361" y="624" on="1"/>
        <pt x="353" y="624" on="1"/>
        <pt x="321" y="624" on="0"/>
        <pt x="321" y="622" on="0"/>
        <pt x="431" y="360" on="0"/>
        <pt x="432" y="360" on="1"/>
        <pt x="448" y="377" on="1"/>
        <pt x="465" y="394" on="0"/>
        <pt x="521" y="455" on="0"/>
        <pt x="553" y="490" on="1"/>
        <pt x="673" y="620" on="1"/>
        <pt x="659" y="624" on="0"/>
        <pt x="630" y="624" on="1"/>
        <pt x="606" y="624" on="0"/>
        <pt x="606" y="640" on="1"/>
        <pt x="606" y="641" on="0"/>
        <pt x="610" y="661" on="1"/>
        <pt x="614" y="678" on="0"/>
        <pt x="621" y="686" on="0"/>
        <pt x="634" y="686" on="1"/>
        <pt x="650" y="686" on="0"/>
        <pt x="728" y="684" on="0"/>
        <pt x="782" y="684" on="0"/>
        <pt x="846" y="686" on="0"/>
      </contour>
    </TTGlyph>
    <TTGlyph name="Z" xMin="68" yMin="0" xMax="805" yMax="686">
      <contour>
        <pt x="684" y="299" on="1"/>
        <pt x="701" y="299" on="0"/>
        <pt x="715" y="292" on="0"/>
        <pt x="715" y="281" on="1"/>
        <pt x="715" y="278" on="0"/>
        <pt x="630" y="11" on="0"/>
        <pt x="628" y="8" on="1"/>
        <pt x="626" y="4" on="0"/>
        <pt x="617" y="0" on="1"/>
        <pt x="348" y="0" on="1"/>
        <pt x="73" y="0" on="0"/>
        <pt x="71" y="4" on="1"/>
        <pt x="71" y="5" on="1"/>
        <pt x="68" y="8" on="0"/>
        <pt x="68" y="16" on="0"/>
        <pt x="76" y="47" on="0"/>
        <pt x="77" y="49" on="1"/>
        <pt x="84" y="57" on="1"/>
        <pt x="91" y="65" on="0"/>
        <pt x="117" y="93" on="0"/>
        <pt x="149" y="128" on="0"/>
        <pt x="192" y="174" on="0"/>
        <pt x="213" y="196" on="1"/>
        <pt x="255" y="242" on="0"/>
        <pt x="456" y="459" on="0"/>
        <pt x="478" y="482" on="1"/>
        <pt x="610" y="624" on="1"/>
        <pt x="540" y="624" on="1"/>
        <pt x="463" y="623" on="0"/>
        <pt x="456" y="622" on="1"/>
        <pt x="411" y="616" on="0"/>
        <pt x="373" y="600" on="1"/>
        <pt x="292" y="560" on="0"/>
        <pt x="255" y="449" on="1"/>
        <pt x="251" y="436" on="0"/>
        <pt x="241" y="430" on="0"/>
        <pt x="223" y="430" on="1"/>
        <pt x="203" y="430" on="0"/>
        <pt x="198" y="435" on="1"/>
        <pt x="192" y="439" on="0"/>
        <pt x="192" y="448" on="1"/>
        <pt x="192" y="450" on="0"/>
        <pt x="259" y="673" on="0"/>
        <pt x="261" y="677" on="1"/>
        <pt x="265" y="683" on="0"/>
        <pt x="270" y="684" on="1"/>
        <pt x="273" y="686" on="0"/>
        <pt x="534" y="686" on="1"/>
        <pt x="796" y="686" on="0"/>
        <pt x="797" y="685" on="1"/>
        <pt x="805" y="681" on="0"/>
        <pt x="805" y="673" on="1"/>
        <pt x="805" y="671" on="0"/>
        <pt x="798" y="642" on="0"/>
        <pt x="798" y="641" on="1"/>
        <pt x="796" y="637" on="0"/>
        <pt x="531" y="352" on="1"/>
        <pt x="266" y="67" on="1"/>
        <pt x="329" y="66" on="1"/>
        <pt x="411" y="66" on="0"/>
        <pt x="440" y="70" on="1"/>
        <pt x="526" y="80" on="0"/>
        <pt x="617" y="177" on="0"/>
        <pt x="648" y="268" on="1"/>
        <pt x="649" y="272" on="0"/>
        <pt x="653" y="284" on="0"/>
        <pt x="654" y="288" on="0"/>
        <pt x="658" y="295" on="0"/>
        <pt x="661" y="296" on="0"/>
        <pt x="668" y="299" on="0"/>
        <pt x="677" y="299" on="0"/>
      </contour>
    </TTGlyph>
    <TTGlyph name="a" xMin="38" yMin="-8" xMax="607" yMax="452">
      <contour>
        <pt x="222" y="-8" on="1"/>
        <pt x="137" y="-8" on="0"/>
        <pt x="38" y="77" on="0"/>
        <pt x="38" y="158" on="1"/>
        <pt x="38" y="191" on="0"/>
        <pt x="48" y="227" on="1"/>
        <pt x="65" y="300" on="0"/>
        <pt x="164" y="411" on="0"/>
        <pt x="233" y="436" on="1"/>
        <pt x="279" y="452" on="0"/>
        <pt x="327" y="452" on="1"/>
        <pt x="392" y="452" on="0"/>
        <pt x="428" y="419" on="1"/>
        <pt x="432" y="414" on="0"/>
        <pt x="434" y="416" on="1"/>
        <pt x="440" y="420" on="1"/>
        <pt x="461" y="435" on="0"/>
        <pt x="486" y="435" on="1"/>
        <pt x="509" y="435" on="0"/>
        <pt x="538" y="408" on="0"/>
        <pt x="538" y="386" on="1"/>
        <pt x="538" y="377" on="0"/>
        <pt x="507" y="254" on="0"/>
        <pt x="471" y="114" on="0"/>
        <pt x="467" y="93" on="1"/>
        <pt x="466" y="87" on="0"/>
        <pt x="466" y="72" on="1"/>
        <pt x="466" y="43" on="0"/>
        <pt x="484" y="43" on="1"/>
        <pt x="505" y="43" on="0"/>
        <pt x="529" y="89" on="0"/>
        <pt x="539" y="125" on="1"/>
        <pt x="540" y="131" on="0"/>
        <pt x="541" y="134" on="1"/>
        <pt x="546" y="155" on="0"/>
        <pt x="554" y="162" on="0"/>
        <pt x="571" y="162" on="1"/>
        <pt x="576" y="162" on="1"/>
        <pt x="597" y="162" on="0"/>
        <pt x="600" y="160" on="1"/>
        <pt x="607" y="156" on="0"/>
        <pt x="607" y="148" on="1"/>
        <pt x="607" y="144" on="0"/>
        <pt x="598" y="115" on="1"/>
        <pt x="562" y="7" on="0"/>
        <pt x="493" y="-6" on="1"/>
        <pt x="481" y="-8" on="0"/>
        <pt x="474" y="-8" on="1"/>
        <pt x="439" y="-8" on="0"/>
        <pt x="374" y="19" on="0"/>
        <pt x="358" y="40" on="1"/>
        <pt x="295" y="-8" on="0"/>
      </contour>
      <contour>
        <pt x="404" y="351" on="1"/>
        <pt x="382" y="401" on="0"/>
        <pt x="324" y="401" on="1"/>
        <pt x="312" y="401" on="0"/>
        <pt x="295" y="396" on="1"/>
        <pt x="245" y="379" on="0"/>
        <pt x="221" y="330" on="1"/>
        <pt x="206" y="296" on="0"/>
        <pt x="186" y="220" on="1"/>
        <pt x="166" y="136" on="0"/>
        <pt x="166" y="76" on="0"/>
        <pt x="199" y="43" on="0"/>
        <pt x="228" y="43" on="1"/>
        <pt x="275" y="43" on="0"/>
        <pt x="310" y="71" on="1"/>
        <pt x="320" y="78" on="0"/>
        <pt x="343" y="100" on="0"/>
        <pt x="343" y="106" on="0"/>
        <pt x="374" y="228" on="1"/>
      </contour>
    </TTGlyph>
    <TTGlyph name="alpha" xMin="39" yMin="-8" xMax="712" yMax="452">
      <contour>
        <pt x="251" y="-8" on="1"/>
        <pt x="156" y="-8" on="0"/>
        <pt x="39" y="80" on="0"/>
        <pt x="39" y="166" on="1"/>
        <pt x="39" y="230" on="0"/>
        <pt x="74" y="295" on="1"/>
        <pt x="116" y="367" on="0"/>
        <pt x="261" y="452" on="0"/>
        <pt x="362" y="452" on="1"/>
        <pt x="442" y="452" on="0"/>
        <pt x="551" y="382" on="0"/>
        <pt x="575" y="321" on="1"/>
        <pt x="586" y="290" on="0"/>
        <pt x="586" y="269" on="1"/>
        <pt x="586" y="265" on="1"/>
        <pt x="595" y="274" on="0"/>
        <pt x="616" y="325" on="1"/>
        <pt x="625" y="346" on="0"/>
        <pt x="636" y="381" on="1"/>
        <pt x="640" y="397" on="0"/>
        <pt x="648" y="402" on="0"/>
        <pt x="690" y="402" on="0"/>
        <pt x="693" y="400" on="1"/>
        <pt x="700" y="396" on="0"/>
        <pt x="700" y="388" on="1"/>
        <pt x="700" y="381" on="0"/>
        <pt x="689" y="348" on="1"/>
        <pt x="660" y="262" on="0"/>
        <pt x="604" y="188" on="1"/>
        <pt x="593" y="173" on="1"/>
        <pt x="595" y="153" on="1"/>
        <pt x="600" y="78" on="0"/>
        <pt x="612" y="43" on="1"/>
        <pt x="618" y="43" on="1"/>
        <pt x="646" y="46" on="0"/>
        <pt x="651" y="61" on="1"/>
        <pt x="653" y="73" on="0"/>
        <pt x="672" y="73" on="1"/>
        <pt x="684" y="73" on="1"/>
        <pt x="712" y="73" on="0"/>
        <pt x="712" y="59" on="1"/>
        <pt x="712" y="54" on="0"/>
        <pt x="711" y="51" on="1"/>
        <pt x="703" y="25" on="0"/>
        <pt x="645" y="-7" on="0"/>
        <pt x="603" y="-7" on="1"/>
        <pt x="584" y="-7" on="0"/>
        <pt x="578" y="-6" on="1"/>
        <pt x="515" y="8" on="0"/>
        <pt x="485" y="63" on="1"/>
        <pt x="481" y="69" on="1"/>
        <pt x="469" y="61" on="1"/>
        <pt x="415" y="26" on="0"/>
        <pt x="317" y="-8" on="0"/>
      </contour>
      <contour>
        <pt x="412" y="379" on="1"/>
        <pt x="390" y="401" on="0"/>
        <pt x="354" y="401" on="1"/>
        <pt x="291" y="401" on="0"/>
        <pt x="245" y="355" on="1"/>
        <pt x="230" y="337" on="0"/>
        <pt x="217" y="313" on="1"/>
        <pt x="202" y="281" on="0"/>
        <pt x="187" y="220" on="1"/>
        <pt x="170" y="153" on="0"/>
        <pt x="170" y="126" on="1"/>
        <pt x="170" y="43" on="0"/>
        <pt x="260" y="43" on="1"/>
        <pt x="355" y="43" on="0"/>
        <pt x="455" y="114" on="1"/>
        <pt x="465" y="122" on="0"/>
        <pt x="465" y="124" on="1"/>
        <pt x="465" y="129" on="0"/>
        <pt x="463" y="165" on="0"/>
        <pt x="459" y="207" on="0"/>
        <pt x="455" y="249" on="0"/>
        <pt x="454" y="263" on="1"/>
        <pt x="453" y="277" on="1"/>
        <pt x="443" y="348" on="0"/>
      </contour>
    </TTGlyph>
    <TTGlyph name="b" xMin="45" yMin="-8" xMax="513" yMax="694">
      <contour>
        <pt x="220" y="-8" on="1"/>
        <pt x="139" y="-8" on="0"/>
        <pt x="45" y="78" on="0"/>
        <pt x="45" y="155" on="1"/>
        <pt x="45" y="176" on="0"/>
        <pt x="47" y="194" on="1"/>
        <pt x="50" y="210" on="0"/>
        <pt x="104" y="426" on="1"/>
        <pt x="153" y="622" on="1"/>
        <pt x="149" y="622" on="1"/>
        <pt x="148" y="622" on="0"/>
        <pt x="140" y="623" on="0"/>
        <pt x="127" y="624" on="0"/>
        <pt x="117" y="624" on="0"/>
        <pt x="105" y="624" on="0"/>
        <pt x="97" y="625" on="0"/>
        <pt x="96" y="625" on="1"/>
        <pt x="84" y="628" on="0"/>
        <pt x="84" y="642" on="1"/>
        <pt x="84" y="647" on="0"/>
        <pt x="92" y="676" on="0"/>
        <pt x="94" y="679" on="1"/>
        <pt x="98" y="684" on="0"/>
        <pt x="120" y="687" on="0"/>
        <pt x="185" y="690" on="1"/>
        <pt x="258" y="694" on="0"/>
        <pt x="272" y="694" on="1"/>
        <pt x="290" y="694" on="0"/>
        <pt x="293" y="679" on="1"/>
        <pt x="293" y="676" on="0"/>
        <pt x="263" y="553" on="1"/>
        <pt x="232" y="429" on="1"/>
        <pt x="232" y="428" on="0"/>
        <pt x="241" y="432" on="1"/>
        <pt x="286" y="452" on="0"/>
        <pt x="331" y="452" on="1"/>
        <pt x="415" y="452" on="0"/>
        <pt x="513" y="364" on="0"/>
        <pt x="513" y="285" on="1"/>
        <pt x="513" y="262" on="0"/>
        <pt x="509" y="242" on="1"/>
        <pt x="492" y="146" on="0"/>
        <pt x="427" y="77" on="1"/>
        <pt x="342" y="-8" on="0"/>
      </contour>
      <contour>
        <pt x="385" y="337" on="1"/>
        <pt x="385" y="400" on="0"/>
        <pt x="318" y="400" on="1"/>
        <pt x="271" y="400" on="0"/>
        <pt x="226" y="360" on="1"/>
        <pt x="214" y="349" on="0"/>
        <pt x="207" y="332" on="0"/>
        <pt x="191" y="268" on="1"/>
        <pt x="165" y="160" on="0"/>
        <pt x="163" y="140" on="1"/>
        <pt x="162" y="132" on="0"/>
        <pt x="162" y="113" on="1"/>
        <pt x="162" y="44" on="0"/>
        <pt x="226" y="44" on="1"/>
        <pt x="270" y="44" on="0"/>
        <pt x="303" y="77" on="1"/>
        <pt x="324" y="98" on="0"/>
        <pt x="340" y="139" on="1"/>
        <pt x="351" y="171" on="0"/>
        <pt x="365" y="226" on="1"/>
        <pt x="385" y="303" on="0"/>
      </contour>
    </TTGlyph>
    <TTGlyph name="beta" xMin="28" yMin="-194" xMax="637" yMax="701">
      <contour>
        <pt x="461" y="701" on="1"/>
        <pt x="542" y="701" on="0"/>
        <pt x="637" y="632" on="0"/>
        <pt x="637" y="561" on="1"/>
        <pt x="637" y="537" on="0"/>
        <pt x="632" y="521" on="1"/>
        <pt x="616" y="445" on="0"/>
        <pt x="556" y="393" on="1"/>
        <pt x="566" y="387" on="0"/>
        <pt x="579" y="367" on="1"/>
        <pt x="608" y="324" on="0"/>
        <pt x="608" y="262" on="1"/>
        <pt x="608" y="149" on="0"/>
        <pt x="455" y="7" on="0"/>
        <pt x="339" y="-6" on="1"/>
        <pt x="321" y="-8" on="0"/>
        <pt x="299" y="-8" on="1"/>
        <pt x="237" y="-8" on="0"/>
        <pt x="186" y="23" on="1"/>
        <pt x="175" y="31" on="0"/>
        <pt x="150" y="56" on="1"/>
        <pt x="138" y="8" on="0"/>
        <pt x="106" y="-117" on="0"/>
        <pt x="89" y="-185" on="0"/>
        <pt x="88" y="-187" on="1"/>
        <pt x="81" y="-194" on="0"/>
        <pt x="71" y="-194" on="1"/>
        <pt x="59" y="-194" on="1"/>
        <pt x="39" y="-194" on="0"/>
        <pt x="36" y="-192" on="1"/>
        <pt x="30" y="-189" on="0"/>
        <pt x="28" y="-182" on="1"/>
        <pt x="28" y="-178" on="0"/>
        <pt x="187" y="457" on="0"/>
        <pt x="192" y="473" on="1"/>
        <pt x="217" y="546" on="0"/>
        <pt x="323" y="663" on="0"/>
        <pt x="388" y="687" on="1"/>
        <pt x="424" y="701" on="0"/>
        <pt x="450" y="701" on="1"/>
      </contour>
      <contour>
        <pt x="531" y="592" on="1"/>
        <pt x="531" y="651" on="0"/>
        <pt x="463" y="651" on="1"/>
        <pt x="396" y="651" on="0"/>
        <pt x="333" y="593" on="1"/>
        <pt x="280" y="542" on="0"/>
        <pt x="253" y="466" on="1"/>
        <pt x="250" y="458" on="0"/>
        <pt x="184" y="195" on="0"/>
        <pt x="182" y="185" on="1"/>
        <pt x="180" y="176" on="0"/>
        <pt x="180" y="159" on="1"/>
        <pt x="180" y="106" on="0"/>
        <pt x="246" y="44" on="0"/>
        <pt x="301" y="44" on="1"/>
        <pt x="376" y="44" on="0"/>
        <pt x="420" y="86" on="1"/>
        <pt x="439" y="105" on="0"/>
        <pt x="462" y="156" on="0"/>
        <pt x="475" y="206" on="1"/>
        <pt x="490" y="264" on="0"/>
        <pt x="491" y="296" on="1"/>
        <pt x="491" y="325" on="0"/>
        <pt x="485" y="341" on="1"/>
        <pt x="482" y="350" on="1"/>
        <pt x="480" y="350" on="0"/>
        <pt x="474" y="347" on="1"/>
        <pt x="432" y="333" on="0"/>
        <pt x="372" y="333" on="1"/>
        <pt x="340" y="333" on="0"/>
        <pt x="300" y="337" on="0"/>
        <pt x="265" y="359" on="0"/>
        <pt x="265" y="380" on="1"/>
        <pt x="265" y="399" on="0"/>
        <pt x="288" y="427" on="0"/>
        <pt x="305" y="433" on="1"/>
        <pt x="335" y="444" on="0"/>
        <pt x="397" y="444" on="1"/>
        <pt x="437" y="444" on="0"/>
        <pt x="475" y="436" on="1"/>
        <pt x="485" y="433" on="1"/>
        <pt x="489" y="433" on="0"/>
        <pt x="499" y="458" on="1"/>
        <pt x="510" y="484" on="0"/>
        <pt x="531" y="566" on="0"/>
      </contour>
      <contour>
        <pt x="424" y="390" on="1"/>
        <pt x="424" y="393" on="0"/>
        <pt x="389" y="393" on="1"/>
        <pt x="383" y="393" on="0"/>
        <pt x="364" y="392" on="0"/>
        <pt x="362" y="392" on="1"/>
        <pt x="345" y="392" on="0"/>
        <pt x="333" y="388" on="1"/>
        <pt x="344" y="384" on="0"/>
        <pt x="379" y="384" on="1"/>
        <pt x="424" y="384" on="0"/>
      </contour>
    </TTGlyph>
    <TTGlyph name="c" xMin="40" yMin="-8" xMax="509" yMax="451">
      <contour>
        <pt x="259" y="-8" on="1"/>
        <pt x="159" y="-8" on="0"/>
        <pt x="40" y="79" on="0"/>
        <pt x="40" y="167" on="1"/>
        <pt x="40" y="243" on="0"/>
        <pt x="88" y="318" on="1"/>
        <pt x="175" y="438" on="0"/>
        <pt x="336" y="451" on="1"/>
        <pt x="352" y="451" on="1"/>
        <pt x="390" y="451" on="0"/>
        <pt x="396" y="450" on="1"/>
        <pt x="436" y="443" on="0"/>
        <pt x="489" y="406" on="0"/>
        <pt x="496" y="380" on="1"/>
        <pt x="500" y="366" on="0"/>
        <pt x="498" y="351" on="1"/>
        <pt x="494" y="318" on="0"/>
        <pt x="451" y="274" on="0"/>
        <pt x="417" y="274" on="1"/>
        <pt x="393" y="274" on="0"/>
        <pt x="362" y="303" on="0"/>
        <pt x="362" y="325" on="1"/>
        <pt x="362" y="366" on="0"/>
        <pt x="393" y="388" on="1"/>
        <pt x="401" y="394" on="0"/>
        <pt x="399" y="394" on="1"/>
        <pt x="396" y="401" on="0"/>
        <pt x="355" y="401" on="1"/>
        <pt x="317" y="401" on="0"/>
        <pt x="251" y="366" on="0"/>
        <pt x="231" y="338" on="1"/>
        <pt x="193" y="279" on="0"/>
        <pt x="177" y="178" on="1"/>
        <pt x="170" y="149" on="0"/>
        <pt x="170" y="122" on="1"/>
        <pt x="170" y="43" on="0"/>
        <pt x="264" y="43" on="1"/>
        <pt x="393" y="43" on="0"/>
        <pt x="457" y="105" on="1"/>
        <pt x="472" y="120" on="0"/>
        <pt x="480" y="117" on="1"/>
        <pt x="509" y="95" on="0"/>
        <pt x="509" y="83" on="1"/>
        <pt x="509" y="76" on="0"/>
        <pt x="497" y="64" on="1"/>
        <pt x="424" y="-8" on="0"/>
      </contour>
    </TTGlyph>
    <TTGlyph name="chi" xMin="32" yMin="-201" xMax="685" yMax="452">
      <contour>
        <pt x="58" y="-194" on="1"/>
        <pt x="32" y="-194" on="0"/>
        <pt x="32" y="-164" on="1"/>
        <pt x="32" y="-153" on="0"/>
        <pt x="46" y="-139" on="1"/>
        <pt x="296" y="105" on="0"/>
        <pt x="296" y="106" on="1"/>
        <pt x="294" y="114" on="1"/>
        <pt x="292" y="123" on="0"/>
        <pt x="286" y="149" on="0"/>
        <pt x="284" y="156" on="1"/>
        <pt x="260" y="251" on="0"/>
        <pt x="226" y="308" on="1"/>
        <pt x="191" y="362" on="0"/>
        <pt x="170" y="383" on="1"/>
        <pt x="152" y="401" on="0"/>
        <pt x="141" y="401" on="1"/>
        <pt x="128" y="401" on="0"/>
        <pt x="105" y="380" on="0"/>
        <pt x="100" y="365" on="1"/>
        <pt x="94" y="350" on="0"/>
        <pt x="88" y="347" on="0"/>
        <pt x="69" y="346" on="1"/>
        <pt x="45" y="346" on="1"/>
        <pt x="35" y="348" on="0"/>
        <pt x="35" y="359" on="1"/>
        <pt x="35" y="373" on="0"/>
        <pt x="50" y="396" on="1"/>
        <pt x="88" y="452" on="0"/>
        <pt x="165" y="452" on="1"/>
        <pt x="286" y="452" on="0"/>
        <pt x="329" y="402" on="1"/>
        <pt x="358" y="366" on="0"/>
        <pt x="384" y="286" on="1"/>
        <pt x="404" y="226" on="0"/>
        <pt x="404" y="215" on="1"/>
        <pt x="404" y="213" on="0"/>
        <pt x="405" y="213" on="1"/>
        <pt x="405" y="212" on="0"/>
        <pt x="436" y="242" on="0"/>
        <pt x="490" y="294" on="0"/>
        <pt x="520" y="324" on="1"/>
        <pt x="637" y="437" on="0"/>
        <pt x="640" y="438" on="1"/>
        <pt x="647" y="444" on="0"/>
        <pt x="661" y="444" on="1"/>
        <pt x="671" y="443" on="0"/>
        <pt x="685" y="430" on="0"/>
        <pt x="685" y="419" on="1"/>
        <pt x="685" y="409" on="0"/>
        <pt x="681" y="402" on="1"/>
        <pt x="677" y="394" on="0"/>
        <pt x="549" y="271" on="1"/>
        <pt x="420" y="145" on="1"/>
        <pt x="448" y="15" on="0"/>
        <pt x="488" y="-53" on="1"/>
        <pt x="535" y="-128" on="0"/>
        <pt x="562" y="-147" on="1"/>
        <pt x="569" y="-151" on="0"/>
        <pt x="575" y="-151" on="1"/>
        <pt x="604" y="-151" on="0"/>
        <pt x="617" y="-113" on="1"/>
        <pt x="622" y="-101" on="0"/>
        <pt x="626" y="-98" on="1"/>
        <pt x="629" y="-96" on="0"/>
        <pt x="650" y="-96" on="1"/>
        <pt x="675" y="-96" on="0"/>
        <pt x="683" y="-108" on="0"/>
        <pt x="679" y="-119" on="1"/>
        <pt x="670" y="-148" on="0"/>
        <pt x="622" y="-191" on="0"/>
        <pt x="591" y="-199" on="1"/>
        <pt x="581" y="-201" on="0"/>
        <pt x="550" y="-201" on="1"/>
        <pt x="421" y="-201" on="0"/>
        <pt x="381" y="-143" on="1"/>
        <pt x="345" y="-88" on="0"/>
        <pt x="316" y="20" on="1"/>
        <pt x="311" y="39" on="1"/>
        <pt x="230" y="-40" on="1"/>
        <pt x="144" y="-126" on="0"/>
        <pt x="114" y="-153" on="1"/>
        <pt x="83" y="-184" on="0"/>
        <pt x="70" y="-194" on="0"/>
      </contour>
    </TTGlyph>
    <TTGlyph name="d" xMin="38" yMin="-8" xMax="612" yMax="694">
      <contour>
        <pt x="222" y="-8" on="1"/>
        <pt x="137" y="-8" on="0"/>
        <pt x="38" y="77" on="0"/>
        <pt x="38" y="158" on="1"/>
        <pt x="38" y="191" on="0"/>
        <pt x="48" y="227" on="1"/>
        <pt x="70" y="323" on="0"/>
        <pt x="224" y="452" on="0"/>
        <pt x="329" y="452" on="1"/>
        <pt x="384" y="452" on="0"/>
        <pt x="416" y="428" on="1"/>
        <pt x="422" y="424" on="1"/>
        <pt x="423" y="424" on="0"/>
        <pt x="447" y="523" on="1"/>
        <pt x="472" y="622" on="1"/>
        <pt x="468" y="622" on="1"/>
        <pt x="467" y="622" on="0"/>
        <pt x="459" y="623" on="0"/>
        <pt x="446" y="624" on="0"/>
        <pt x="436" y="624" on="0"/>
        <pt x="424" y="624" on="0"/>
        <pt x="416" y="625" on="0"/>
        <pt x="415" y="625" on="1"/>
        <pt x="403" y="628" on="0"/>
        <pt x="403" y="642" on="1"/>
        <pt x="403" y="647" on="0"/>
        <pt x="411" y="676" on="0"/>
        <pt x="413" y="679" on="1"/>
        <pt x="417" y="684" on="0"/>
        <pt x="439" y="687" on="0"/>
        <pt x="504" y="690" on="1"/>
        <pt x="577" y="694" on="0"/>
        <pt x="591" y="694" on="1"/>
        <pt x="609" y="694" on="0"/>
        <pt x="612" y="679" on="1"/>
        <pt x="467" y="91" on="1"/>
        <pt x="466" y="87" on="0"/>
        <pt x="466" y="72" on="1"/>
        <pt x="466" y="43" on="0"/>
        <pt x="483" y="43" on="1"/>
        <pt x="499" y="43" on="0"/>
        <pt x="525" y="77" on="0"/>
        <pt x="535" y="108" on="0"/>
        <pt x="541" y="134" on="1"/>
        <pt x="546" y="155" on="0"/>
        <pt x="554" y="162" on="0"/>
        <pt x="571" y="162" on="1"/>
        <pt x="576" y="162" on="1"/>
        <pt x="597" y="162" on="0"/>
        <pt x="600" y="160" on="1"/>
        <pt x="607" y="156" on="0"/>
        <pt x="607" y="148" on="1"/>
        <pt x="607" y="144" on="0"/>
        <pt x="598" y="115" on="1"/>
        <pt x="562" y="7" on="0"/>
        <pt x="493" y="-6" on="1"/>
        <pt x="481" y="-8" on="0"/>
        <pt x="474" y="-8" on="1"/>
        <pt x="439" y="-8" on="0"/>
        <pt x="374" y="19" on="0"/>
        <pt x="358" y="40" on="1"/>
        <pt x="295" y="-8" on="0"/>
      </contour>
      <contour>
        <pt x="404" y="351" on="1"/>
        <pt x="382" y="401" on="0"/>
        <pt x="324" y="401" on="1"/>
        <pt x="312" y="401" on="0"/>
        <pt x="295" y="396" on="1"/>
        <pt x="245" y="379" on="0"/>
        <pt x="221" y="330" on="1"/>
        <pt x="206" y="296" on="0"/>
        <pt x="186" y="220" on="1"/>
        <pt x="166" y="136" on="0"/>
        <pt x="166" y="76" on="0"/>
        <pt x="199" y="43" on="0"/>
        <pt x="228" y="43" on="1"/>
        <pt x="275" y="43" on="0"/>
        <pt x="310" y="71" on="1"/>
        <pt x="320" y="78" on="0"/>
        <pt x="343" y="100" on="0"/>
        <pt x="343" y="106" on="0"/>
        <pt x="374" y="228" on="1"/>
      </contour>
    </TTGlyph>
    <TTGlyph name="delta" xMin="39" yMin="-8" xMax="513" yMax="725">
      <contour>
        <pt x="249" y="-8" on="1"/>
        <pt x="155" y="-8" on="0"/>
        <pt x="39" y="83" on="0"/>
        <pt x="39" y="168" on="1"/>
        <pt x="39" y="176" on="1"/>
        <pt x="43" y="237" on="0"/>
        <pt x="107" y="353" on="0"/>
        <pt x="153" y="386" on="1"/>
        <pt x="206" y="426" on="0"/>
        <pt x="272" y="442" on="1"/>
        <pt x="266" y="453" on="0"/>
        <pt x="260" y="465" on="1"/>
        <pt x="216" y="553" on="0"/>
        <pt x="216" y="610" on="1"/>
        <pt x="216" y="665" on="0"/>
        <pt x="263" y="701" on="1"/>
        <pt x="281" y="715" on="0"/>
        <pt x="314" y="723" on="1"/>
        <pt x="326" y="725" on="0"/>
        <pt x="327" y="725" on="1"/>
        <pt x="330" y="725" on="0"/>
        <pt x="482" y="692" on="0"/>
        <pt x="487" y="690" on="1"/>
        <pt x="513" y="681" on="0"/>
        <pt x="513" y="651" on="1"/>
        <pt x="513" y="625" on="0"/>
        <pt x="472" y="587" on="0"/>
        <pt x="428" y="587" on="0"/>
        <pt x="398" y="612" on="1"/>
        <pt x="395" y="615" on="0"/>
        <pt x="361" y="646" on="0"/>
        <pt x="357" y="650" on="1"/>
        <pt x="336" y="663" on="0"/>
        <pt x="314" y="663" on="1"/>
        <pt x="286" y="663" on="0"/>
        <pt x="272" y="639" on="1"/>
        <pt x="269" y="633" on="0"/>
        <pt x="276" y="618" on="1"/>
        <pt x="289" y="591" on="0"/>
        <pt x="344" y="536" on="1"/>
        <pt x="352" y="528" on="0"/>
        <pt x="391" y="490" on="0"/>
        <pt x="397" y="484" on="1"/>
        <pt x="439" y="447" on="0"/>
        <pt x="478" y="372" on="0"/>
        <pt x="478" y="313" on="1"/>
        <pt x="478" y="243" on="0"/>
        <pt x="453" y="172" on="1"/>
        <pt x="436" y="122" on="0"/>
        <pt x="375" y="40" on="0"/>
        <pt x="338" y="18" on="1"/>
        <pt x="298" y="-8" on="0"/>
      </contour>
      <contour>
        <pt x="157" y="130" on="1"/>
        <pt x="157" y="88" on="0"/>
        <pt x="209" y="43" on="0"/>
        <pt x="255" y="43" on="1"/>
        <pt x="280" y="43" on="0"/>
        <pt x="300" y="67" on="1"/>
        <pt x="319" y="91" on="0"/>
        <pt x="348" y="188" on="0"/>
        <pt x="348" y="235" on="1"/>
        <pt x="348" y="308" on="0"/>
        <pt x="301" y="389" on="1"/>
        <pt x="300" y="392" on="0"/>
        <pt x="298" y="392" on="1"/>
        <pt x="294" y="392" on="0"/>
        <pt x="254" y="372" on="0"/>
        <pt x="236" y="354" on="1"/>
        <pt x="204" y="322" on="0"/>
        <pt x="185" y="267" on="1"/>
        <pt x="157" y="168" on="0"/>
      </contour>
    </TTGlyph>
    <TTGlyph name="e" xMin="42" yMin="-8" xMax="509" yMax="452">
      <contour>
        <pt x="171" y="126" on="1"/>
        <pt x="171" y="43" on="0"/>
        <pt x="264" y="43" on="1"/>
        <pt x="390" y="43" on="0"/>
        <pt x="457" y="105" on="1"/>
        <pt x="472" y="120" on="0"/>
        <pt x="480" y="117" on="1"/>
        <pt x="509" y="95" on="0"/>
        <pt x="509" y="83" on="1"/>
        <pt x="509" y="76" on="0"/>
        <pt x="497" y="64" on="1"/>
        <pt x="424" y="-8" on="0"/>
        <pt x="260" y="-8" on="1"/>
        <pt x="167" y="-8" on="0"/>
        <pt x="53" y="70" on="0"/>
        <pt x="43" y="146" on="1"/>
        <pt x="42" y="152" on="0"/>
        <pt x="42" y="169" on="1"/>
        <pt x="42" y="188" on="0"/>
        <pt x="44" y="210" on="1"/>
        <pt x="50" y="240" on="0"/>
        <pt x="58" y="266" on="1"/>
        <pt x="127" y="435" on="0"/>
        <pt x="335" y="451" on="1"/>
        <pt x="338" y="452" on="1"/>
        <pt x="342" y="452" on="0"/>
        <pt x="345" y="452" on="1"/>
        <pt x="347" y="452" on="0"/>
        <pt x="360" y="451" on="0"/>
        <pt x="363" y="451" on="1"/>
        <pt x="423" y="451" on="0"/>
        <pt x="502" y="400" on="0"/>
        <pt x="502" y="352" on="1"/>
        <pt x="502" y="340" on="0"/>
        <pt x="501" y="336" on="1"/>
        <pt x="489" y="281" on="0"/>
        <pt x="442" y="250" on="1"/>
        <pt x="381" y="211" on="0"/>
        <pt x="222" y="211" on="1"/>
        <pt x="184" y="211" on="1"/>
        <pt x="184" y="208" on="0"/>
        <pt x="181" y="197" on="1"/>
        <pt x="171" y="145" on="0"/>
      </contour>
      <contour>
        <pt x="427" y="349" on="1"/>
        <pt x="427" y="374" on="0"/>
        <pt x="385" y="401" on="0"/>
        <pt x="354" y="401" on="1"/>
        <pt x="305" y="401" on="0"/>
        <pt x="264" y="374" on="1"/>
        <pt x="224" y="345" on="0"/>
        <pt x="202" y="278" on="1"/>
        <pt x="198" y="264" on="0"/>
        <pt x="197" y="263" on="1"/>
        <pt x="197" y="262" on="0"/>
        <pt x="237" y="262" on="1"/>
        <pt x="326" y="263" on="0"/>
        <pt x="364" y="278" on="1"/>
        <pt x="427" y="301" on="0"/>
      </contour>
    </TTGlyph>
    <TTGlyph name="epsilon" xMin="36" yMin="-17" xMax="481" yMax="461">
      <contour>
        <pt x="417" y="124" on="1"/>
        <pt x="425" y="124" on="0"/>
        <pt x="439" y="111" on="0"/>
        <pt x="439" y="100" on="1"/>
        <pt x="439" y="90" on="0"/>
        <pt x="426" y="70" on="1"/>
        <pt x="366" y="-17" on="0"/>
        <pt x="224" y="-17" on="1"/>
        <pt x="61" y="-17" on="0"/>
        <pt x="37" y="95" on="1"/>
        <pt x="36" y="100" on="0"/>
        <pt x="36" y="112" on="1"/>
        <pt x="36" y="178" on="0"/>
        <pt x="84" y="226" on="1"/>
        <pt x="93" y="236" on="1"/>
        <pt x="88" y="246" on="1"/>
        <pt x="79" y="264" on="0"/>
        <pt x="79" y="289" on="1"/>
        <pt x="79" y="306" on="0"/>
        <pt x="81" y="315" on="1"/>
        <pt x="91" y="353" on="0"/>
        <pt x="124" y="388" on="1"/>
        <pt x="202" y="461" on="0"/>
        <pt x="333" y="461" on="1"/>
        <pt x="402" y="461" on="0"/>
        <pt x="455" y="425" on="1"/>
        <pt x="480" y="409" on="0"/>
        <pt x="481" y="390" on="1"/>
        <pt x="481" y="368" on="0"/>
        <pt x="447" y="334" on="0"/>
        <pt x="428" y="334" on="1"/>
        <pt x="414" y="334" on="0"/>
        <pt x="398" y="345" on="1"/>
        <pt x="375" y="360" on="0"/>
        <pt x="344" y="370" on="0"/>
        <pt x="313" y="370" on="1"/>
        <pt x="182" y="370" on="0"/>
        <pt x="148" y="320" on="1"/>
        <pt x="141" y="310" on="0"/>
        <pt x="141" y="293" on="1"/>
        <pt x="141" y="275" on="0"/>
        <pt x="146" y="270" on="1"/>
        <pt x="147" y="270" on="0"/>
        <pt x="150" y="270" on="0"/>
        <pt x="155" y="272" on="1"/>
        <pt x="202" y="291" on="0"/>
        <pt x="263" y="291" on="1"/>
        <pt x="304" y="291" on="0"/>
        <pt x="349" y="273" on="0"/>
        <pt x="349" y="244" on="1"/>
        <pt x="349" y="228" on="0"/>
        <pt x="340" y="215" on="1"/>
        <pt x="326" y="192" on="0"/>
        <pt x="281" y="183" on="1"/>
        <pt x="274" y="182" on="0"/>
        <pt x="204" y="182" on="0"/>
        <pt x="196" y="183" on="1"/>
        <pt x="165" y="189" on="0"/>
        <pt x="137" y="200" on="1"/>
        <pt x="100" y="169" on="0"/>
        <pt x="100" y="129" on="1"/>
        <pt x="100" y="118" on="0"/>
        <pt x="104" y="111" on="1"/>
        <pt x="114" y="88" on="0"/>
        <pt x="182" y="74" on="0"/>
        <pt x="243" y="74" on="1"/>
        <pt x="287" y="74" on="0"/>
        <pt x="334" y="77" on="0"/>
        <pt x="386" y="95" on="0"/>
        <pt x="398" y="112" on="1"/>
        <pt x="406" y="124" on="0"/>
      </contour>
      <contour>
        <pt x="286" y="238" on="1"/>
        <pt x="286" y="240" on="0"/>
        <pt x="269" y="240" on="1"/>
        <pt x="253" y="240" on="1"/>
        <pt x="209" y="240" on="0"/>
        <pt x="209" y="235" on="1"/>
        <pt x="209" y="232" on="0"/>
        <pt x="250" y="232" on="1"/>
        <pt x="286" y="232" on="0"/>
      </contour>
    </TTGlyph>
    <TTGlyph name="eta" xMin="24" yMin="-211" xMax="600" yMax="452">
      <contour>
        <pt x="142" y="-8" on="1"/>
        <pt x="121" y="-8" on="0"/>
        <pt x="89" y="18" on="0"/>
        <pt x="89" y="39" on="1"/>
        <pt x="89" y="49" on="0"/>
        <pt x="123" y="185" on="0"/>
        <pt x="161" y="335" on="0"/>
        <pt x="164" y="351" on="1"/>
        <pt x="166" y="363" on="0"/>
        <pt x="166" y="372" on="1"/>
        <pt x="166" y="401" on="0"/>
        <pt x="147" y="401" on="1"/>
        <pt x="126" y="401" on="0"/>
        <pt x="102" y="355" on="0"/>
        <pt x="92" y="319" on="1"/>
        <pt x="91" y="313" on="0"/>
        <pt x="90" y="310" on="1"/>
        <pt x="85" y="289" on="0"/>
        <pt x="78" y="282" on="0"/>
        <pt x="60" y="282" on="1"/>
        <pt x="55" y="282" on="1"/>
        <pt x="34" y="282" on="0"/>
        <pt x="31" y="284" on="1"/>
        <pt x="24" y="288" on="0"/>
        <pt x="24" y="296" on="1"/>
        <pt x="24" y="300" on="0"/>
        <pt x="33" y="329" on="1"/>
        <pt x="69" y="436" on="0"/>
        <pt x="136" y="450" on="1"/>
        <pt x="148" y="452" on="0"/>
        <pt x="157" y="452" on="1"/>
        <pt x="202" y="452" on="0"/>
        <pt x="233" y="435" on="1"/>
        <pt x="267" y="419" on="0"/>
        <pt x="284" y="384" on="1"/>
        <pt x="292" y="390" on="0"/>
        <pt x="297" y="395" on="1"/>
        <pt x="341" y="433" on="0"/>
        <pt x="388" y="445" on="1"/>
        <pt x="410" y="451" on="0"/>
        <pt x="445" y="451" on="1"/>
        <pt x="482" y="451" on="0"/>
        <pt x="501" y="447" on="1"/>
        <pt x="600" y="426" on="0"/>
        <pt x="600" y="337" on="1"/>
        <pt x="600" y="314" on="0"/>
        <pt x="597" y="298" on="1"/>
        <pt x="596" y="295" on="0"/>
        <pt x="581" y="233" on="0"/>
        <pt x="551" y="116" on="0"/>
        <pt x="538" y="64" on="1"/>
        <pt x="484" y="-158" on="0"/>
        <pt x="478" y="-168" on="1"/>
        <pt x="458" y="-211" on="0"/>
        <pt x="409" y="-211" on="1"/>
        <pt x="386" y="-211" on="0"/>
        <pt x="357" y="-183" on="0"/>
        <pt x="357" y="-161" on="1"/>
        <pt x="357" y="-156" on="0"/>
        <pt x="415" y="80" on="1"/>
        <pt x="473" y="309" on="0"/>
        <pt x="475" y="320" on="1"/>
        <pt x="477" y="330" on="0"/>
        <pt x="477" y="348" on="1"/>
        <pt x="477" y="376" on="0"/>
        <pt x="457" y="400" on="0"/>
        <pt x="432" y="400" on="1"/>
        <pt x="378" y="400" on="0"/>
        <pt x="335" y="363" on="1"/>
        <pt x="300" y="332" on="0"/>
        <pt x="280" y="298" on="1"/>
        <pt x="277" y="293" on="0"/>
        <pt x="215" y="46" on="0"/>
        <pt x="213" y="40" on="1"/>
        <pt x="192" y="-8" on="0"/>
      </contour>
    </TTGlyph>
    <TTGlyph name="f" xMin="64" yMin="-201" xMax="624" yMax="701">
      <contour>
        <pt x="200" y="-84" on="1"/>
        <pt x="200" y="-121" on="0"/>
        <pt x="166" y="-150" on="1"/>
        <pt x="174" y="-151" on="1"/>
        <pt x="185" y="-151" on="1"/>
        <pt x="202" y="-148" on="0"/>
        <pt x="217" y="-112" on="1"/>
        <pt x="222" y="-94" on="0"/>
        <pt x="240" y="9" on="1"/>
        <pt x="246" y="40" on="0"/>
        <pt x="279" y="225" on="0"/>
        <pt x="307" y="381" on="0"/>
        <pt x="307" y="382" on="1"/>
        <pt x="247" y="382" on="1"/>
        <pt x="187" y="382" on="0"/>
        <pt x="184" y="384" on="1"/>
        <pt x="173" y="389" on="0"/>
        <pt x="173" y="400" on="1"/>
        <pt x="173" y="405" on="0"/>
        <pt x="181" y="434" on="0"/>
        <pt x="183" y="437" on="1"/>
        <pt x="184" y="440" on="0"/>
        <pt x="189" y="442" on="1"/>
        <pt x="193" y="444" on="0"/>
        <pt x="256" y="444" on="1"/>
        <pt x="318" y="444" on="1"/>
        <pt x="319" y="446" on="1"/>
        <pt x="319" y="453" on="0"/>
        <pt x="338" y="548" on="1"/>
        <pt x="352" y="613" on="0"/>
        <pt x="432" y="694" on="0"/>
        <pt x="492" y="701" on="1"/>
        <pt x="503" y="701" on="1"/>
        <pt x="532" y="701" on="0"/>
        <pt x="538" y="700" on="1"/>
        <pt x="578" y="693" on="0"/>
        <pt x="624" y="649" on="0"/>
        <pt x="624" y="617" on="1"/>
        <pt x="624" y="583" on="0"/>
        <pt x="577" y="533" on="0"/>
        <pt x="544" y="533" on="1"/>
        <pt x="519" y="533" on="0"/>
        <pt x="488" y="561" on="0"/>
        <pt x="488" y="585" on="1"/>
        <pt x="488" y="617" on="0"/>
        <pt x="513" y="642" on="1"/>
        <pt x="520" y="649" on="0"/>
        <pt x="520" y="650" on="1"/>
        <pt x="515" y="650" on="0"/>
        <pt x="509" y="651" on="1"/>
        <pt x="499" y="651" on="0"/>
        <pt x="494" y="649" on="1"/>
        <pt x="473" y="638" on="0"/>
        <pt x="465" y="611" on="1"/>
        <pt x="460" y="596" on="0"/>
        <pt x="459" y="554" on="1"/>
        <pt x="458" y="518" on="1"/>
        <pt x="452" y="484" on="1"/>
        <pt x="446" y="448" on="0"/>
        <pt x="445" y="447" on="1"/>
        <pt x="445" y="444" on="1"/>
        <pt x="584" y="444" on="1"/>
        <pt x="590" y="441" on="0"/>
        <pt x="595" y="436" on="1"/>
        <pt x="600" y="429" on="0"/>
        <pt x="595" y="410" on="1"/>
        <pt x="590" y="392" on="0"/>
        <pt x="586" y="387" on="1"/>
        <pt x="580" y="382" on="0"/>
        <pt x="505" y="382" on="1"/>
        <pt x="434" y="382" on="1"/>
        <pt x="434" y="380" on="1"/>
        <pt x="433" y="379" on="0"/>
        <pt x="411" y="254" on="1"/>
        <pt x="380" y="77" on="0"/>
        <pt x="368" y="30" on="1"/>
        <pt x="337" y="-97" on="0"/>
        <pt x="280" y="-152" on="1"/>
        <pt x="245" y="-187" on="0"/>
        <pt x="203" y="-199" on="1"/>
        <pt x="194" y="-201" on="0"/>
        <pt x="175" y="-201" on="1"/>
        <pt x="128" y="-201" on="0"/>
        <pt x="64" y="-157" on="0"/>
        <pt x="64" y="-117" on="1"/>
        <pt x="64" y="-83" on="0"/>
        <pt x="111" y="-33" on="0"/>
        <pt x="145" y="-33" on="1"/>
        <pt x="169" y="-33" on="0"/>
        <pt x="200" y="-62" on="0"/>
      </contour>
    </TTGlyph>
    <TTGlyph name="g" xMin="0" yMin="-202" xMax="540" yMax="452">
      <contour>
        <pt x="227" y="0" on="1"/>
        <pt x="142" y="0" on="0"/>
        <pt x="43" y="87" on="0"/>
        <pt x="43" y="166" on="1"/>
        <pt x="43" y="186" on="0"/>
        <pt x="46" y="205" on="1"/>
        <pt x="63" y="306" on="0"/>
        <pt x="205" y="442" on="0"/>
        <pt x="310" y="451" on="1"/>
        <pt x="313" y="452" on="1"/>
        <pt x="316" y="452" on="0"/>
        <pt x="319" y="452" on="1"/>
        <pt x="321" y="452" on="0"/>
        <pt x="332" y="451" on="0"/>
        <pt x="335" y="451" on="1"/>
        <pt x="391" y="451" on="0"/>
        <pt x="429" y="421" on="1"/>
        <pt x="434" y="416" on="0"/>
        <pt x="436" y="416" on="1"/>
        <pt x="442" y="420" on="1"/>
        <pt x="463" y="435" on="0"/>
        <pt x="488" y="435" on="1"/>
        <pt x="511" y="435" on="0"/>
        <pt x="540" y="408" on="0"/>
        <pt x="540" y="386" on="1"/>
        <pt x="540" y="381" on="0"/>
        <pt x="516" y="281" on="0"/>
        <pt x="482" y="145" on="0"/>
        <pt x="448" y="11" on="0"/>
        <pt x="436" y="-36" on="1"/>
        <pt x="424" y="-82" on="1"/>
        <pt x="405" y="-131" on="0"/>
        <pt x="355" y="-160" on="1"/>
        <pt x="285" y="-202" on="0"/>
        <pt x="167" y="-202" on="1"/>
        <pt x="47" y="-202" on="0"/>
        <pt x="14" y="-166" on="1"/>
        <pt x="0" y="-151" on="0"/>
        <pt x="0" y="-125" on="1"/>
        <pt x="0" y="-91" on="0"/>
        <pt x="46" y="-43" on="0"/>
        <pt x="81" y="-43" on="1"/>
        <pt x="106" y="-43" on="0"/>
        <pt x="136" y="-73" on="0"/>
        <pt x="136" y="-99" on="1"/>
        <pt x="133" y="-123" on="0"/>
        <pt x="114" y="-149" on="1"/>
        <pt x="123" y="-150" on="1"/>
        <pt x="183" y="-150" on="1"/>
        <pt x="234" y="-150" on="0"/>
        <pt x="270" y="-114" on="1"/>
        <pt x="291" y="-95" on="0"/>
        <pt x="299" y="-74" on="1"/>
        <pt x="300" y="-71" on="0"/>
        <pt x="313" y="-23" on="0"/>
        <pt x="324" y="22" on="0"/>
        <pt x="324" y="23" on="1"/>
        <pt x="323" y="23" on="0"/>
        <pt x="311" y="18" on="1"/>
        <pt x="266" y="0" on="0"/>
      </contour>
      <contour>
        <pt x="171" y="109" on="1"/>
        <pt x="171" y="81" on="0"/>
        <pt x="206" y="51" on="0"/>
        <pt x="235" y="51" on="1"/>
        <pt x="259" y="51" on="0"/>
        <pt x="296" y="67" on="1"/>
        <pt x="322" y="82" on="0"/>
        <pt x="337" y="98" on="1"/>
        <pt x="345" y="106" on="1"/>
        <pt x="356" y="147" on="0"/>
        <pt x="397" y="312" on="0"/>
        <pt x="407" y="353" on="1"/>
        <pt x="403" y="359" on="1"/>
        <pt x="380" y="401" on="0"/>
        <pt x="329" y="401" on="1"/>
        <pt x="293" y="401" on="0"/>
        <pt x="262" y="378" on="1"/>
        <pt x="229" y="353" on="0"/>
        <pt x="205" y="280" on="1"/>
        <pt x="203" y="274" on="0"/>
        <pt x="187" y="210" on="0"/>
        <pt x="179" y="178" on="0"/>
        <pt x="171" y="127" on="0"/>
      </contour>
    </TTGlyph>
    <TTGlyph name="gamma" xMin="5" yMin="-211" xMax="617" yMax="451">
      <contour>
        <pt x="36" y="256" on="1"/>
        <pt x="24" y="256" on="1"/>
        <pt x="17" y="256" on="0"/>
        <pt x="10" y="257" on="0"/>
        <pt x="5" y="263" on="0"/>
        <pt x="5" y="269" on="1"/>
        <pt x="5" y="277" on="0"/>
        <pt x="9" y="288" on="1"/>
        <pt x="28" y="350" on="0"/>
        <pt x="147" y="443" on="0"/>
        <pt x="215" y="451" on="1"/>
        <pt x="241" y="451" on="1"/>
        <pt x="262" y="451" on="0"/>
        <pt x="272" y="449" on="1"/>
        <pt x="346" y="433" on="0"/>
        <pt x="393" y="354" on="1"/>
        <pt x="424" y="304" on="0"/>
        <pt x="440" y="238" on="1"/>
        <pt x="444" y="222" on="0"/>
        <pt x="444" y="220" on="1"/>
        <pt x="446" y="216" on="1"/>
        <pt x="450" y="226" on="1"/>
        <pt x="473" y="278" on="0"/>
        <pt x="554" y="437" on="0"/>
        <pt x="561" y="441" on="1"/>
        <pt x="566" y="444" on="0"/>
        <pt x="584" y="444" on="1"/>
        <pt x="591" y="444" on="1"/>
        <pt x="605" y="444" on="0"/>
        <pt x="617" y="439" on="0"/>
        <pt x="617" y="430" on="1"/>
        <pt x="617" y="425" on="0"/>
        <pt x="608" y="409" on="1"/>
        <pt x="523" y="260" on="0"/>
        <pt x="462" y="110" on="1"/>
        <pt x="452" y="84" on="1"/>
        <pt x="451" y="70" on="1"/>
        <pt x="446" y="-2" on="0"/>
        <pt x="419" y="-107" on="1"/>
        <pt x="403" y="-171" on="0"/>
        <pt x="388" y="-192" on="1"/>
        <pt x="375" y="-211" on="0"/>
        <pt x="355" y="-211" on="1"/>
        <pt x="341" y="-211" on="0"/>
        <pt x="325" y="-188" on="0"/>
        <pt x="325" y="-171" on="1"/>
        <pt x="325" y="-151" on="0"/>
        <pt x="339" y="-94" on="1"/>
        <pt x="362" y="-5" on="0"/>
        <pt x="386" y="64" on="1"/>
        <pt x="393" y="84" on="1"/>
        <pt x="393" y="98" on="1"/>
        <pt x="393" y="181" on="0"/>
        <pt x="371" y="241" on="1"/>
        <pt x="366" y="259" on="0"/>
        <pt x="353" y="275" on="1"/>
        <pt x="312" y="327" on="0"/>
        <pt x="210" y="327" on="1"/>
        <pt x="121" y="327" on="0"/>
        <pt x="83" y="295" on="1"/>
        <pt x="72" y="284" on="0"/>
        <pt x="65" y="266" on="1"/>
        <pt x="62" y="256" on="0"/>
        <pt x="45" y="256" on="1"/>
      </contour>
    </TTGlyph>
    <TTGlyph name="h" xMin="45" yMin="-8" xMax="642" yMax="694">
      <contour>
        <pt x="121" y="-8" on="0"/>
        <pt x="77" y="-8" on="0"/>
        <pt x="45" y="18" on="0"/>
        <pt x="45" y="39" on="1"/>
        <pt x="45" y="51" on="0"/>
        <pt x="116" y="336" on="1"/>
        <pt x="188" y="622" on="1"/>
        <pt x="184" y="622" on="1"/>
        <pt x="183" y="622" on="0"/>
        <pt x="175" y="623" on="0"/>
        <pt x="162" y="624" on="0"/>
        <pt x="152" y="624" on="0"/>
        <pt x="140" y="624" on="0"/>
        <pt x="132" y="625" on="0"/>
        <pt x="131" y="625" on="1"/>
        <pt x="119" y="628" on="0"/>
        <pt x="119" y="642" on="1"/>
        <pt x="119" y="647" on="0"/>
        <pt x="127" y="676" on="0"/>
        <pt x="129" y="679" on="1"/>
        <pt x="133" y="684" on="0"/>
        <pt x="155" y="687" on="0"/>
        <pt x="220" y="690" on="1"/>
        <pt x="293" y="694" on="0"/>
        <pt x="307" y="694" on="1"/>
        <pt x="325" y="694" on="0"/>
        <pt x="328" y="679" on="1"/>
        <pt x="328" y="672" on="0"/>
        <pt x="294" y="540" on="1"/>
        <pt x="286" y="507" on="0"/>
        <pt x="269" y="438" on="0"/>
        <pt x="264" y="420" on="1"/>
        <pt x="260" y="403" on="1"/>
        <pt x="260" y="400" on="0"/>
        <pt x="269" y="408" on="1"/>
        <pt x="325" y="451" on="0"/>
        <pt x="401" y="451" on="1"/>
        <pt x="438" y="451" on="0"/>
        <pt x="457" y="447" on="1"/>
        <pt x="556" y="426" on="0"/>
        <pt x="556" y="337" on="1"/>
        <pt x="556" y="319" on="0"/>
        <pt x="554" y="303" on="1"/>
        <pt x="543" y="245" on="0"/>
        <pt x="497" y="127" on="1"/>
        <pt x="481" y="84" on="0"/>
        <pt x="478" y="66" on="1"/>
        <pt x="477" y="61" on="0"/>
        <pt x="477" y="54" on="1"/>
        <pt x="477" y="43" on="0"/>
        <pt x="490" y="43" on="1"/>
        <pt x="512" y="44" on="0"/>
        <pt x="532" y="63" on="1"/>
        <pt x="562" y="93" on="0"/>
        <pt x="577" y="140" on="1"/>
        <pt x="582" y="156" on="0"/>
        <pt x="589" y="162" on="0"/>
        <pt x="605" y="162" on="1"/>
        <pt x="611" y="162" on="1"/>
        <pt x="632" y="162" on="0"/>
        <pt x="635" y="160" on="1"/>
        <pt x="642" y="156" on="0"/>
        <pt x="642" y="148" on="1"/>
        <pt x="642" y="131" on="0"/>
        <pt x="624" y="97" on="1"/>
        <pt x="605" y="58" on="0"/>
        <pt x="536" y="0" on="0"/>
        <pt x="499" y="-6" on="1"/>
        <pt x="487" y="-8" on="0"/>
        <pt x="478" y="-8" on="1"/>
        <pt x="441" y="-8" on="0"/>
        <pt x="411" y="7" on="1"/>
        <pt x="358" y="33" on="0"/>
        <pt x="358" y="83" on="1"/>
        <pt x="358" y="102" on="0"/>
        <pt x="373" y="138" on="1"/>
        <pt x="433" y="295" on="0"/>
        <pt x="433" y="350" on="1"/>
        <pt x="433" y="376" on="0"/>
        <pt x="413" y="400" on="0"/>
        <pt x="388" y="400" on="1"/>
        <pt x="334" y="400" on="0"/>
        <pt x="291" y="363" on="1"/>
        <pt x="256" y="332" on="0"/>
        <pt x="236" y="298" on="1"/>
        <pt x="233" y="293" on="0"/>
        <pt x="171" y="46" on="0"/>
        <pt x="169" y="40" on="1"/>
        <pt x="160" y="18" on="0"/>
      </contour>
    </TTGlyph>
    <TTGlyph name="i" xMin="24" yMin="-8" xMax="367" yMax="694">
      <contour>
        <pt x="258" y="562" on="1"/>
        <pt x="234" y="562" on="0"/>
        <pt x="205" y="593" on="0"/>
        <pt x="205" y="615" on="1"/>
        <pt x="205" y="643" on="0"/>
        <pt x="242" y="685" on="0"/>
        <pt x="267" y="692" on="1"/>
        <pt x="277" y="694" on="0"/>
        <pt x="283" y="694" on="1"/>
        <pt x="308" y="694" on="0"/>
        <pt x="339" y="665" on="0"/>
        <pt x="339" y="641" on="1"/>
        <pt x="339" y="609" on="0"/>
        <pt x="287" y="562" on="0"/>
      </contour>
      <contour>
        <pt x="201" y="-8" on="1"/>
        <pt x="151" y="-8" on="0"/>
        <pt x="83" y="40" on="0"/>
        <pt x="83" y="84" on="1"/>
        <pt x="83" y="92" on="0"/>
        <pt x="85" y="102" on="1"/>
        <pt x="86" y="104" on="0"/>
        <pt x="183" y="357" on="0"/>
        <pt x="184" y="358" on="1"/>
        <pt x="189" y="376" on="0"/>
        <pt x="189" y="388" on="1"/>
        <pt x="189" y="402" on="0"/>
        <pt x="177" y="402" on="1"/>
        <pt x="168" y="402" on="0"/>
        <pt x="140" y="386" on="0"/>
        <pt x="134" y="380" on="1"/>
        <pt x="103" y="352" on="0"/>
        <pt x="89" y="304" on="1"/>
        <pt x="84" y="288" on="0"/>
        <pt x="77" y="282" on="0"/>
        <pt x="61" y="282" on="1"/>
        <pt x="55" y="282" on="1"/>
        <pt x="34" y="282" on="0"/>
        <pt x="31" y="284" on="1"/>
        <pt x="24" y="288" on="0"/>
        <pt x="24" y="304" on="0"/>
        <pt x="35" y="330" on="1"/>
        <pt x="55" y="381" on="0"/>
        <pt x="134" y="452" on="0"/>
        <pt x="187" y="452" on="1"/>
        <pt x="237" y="452" on="0"/>
        <pt x="308" y="404" on="0"/>
        <pt x="308" y="360" on="1"/>
        <pt x="308" y="352" on="0"/>
        <pt x="306" y="342" on="1"/>
        <pt x="305" y="340" on="0"/>
        <pt x="207" y="88" on="0"/>
        <pt x="207" y="87" on="1"/>
        <pt x="202" y="67" on="0"/>
        <pt x="202" y="57" on="1"/>
        <pt x="202" y="42" on="0"/>
        <pt x="214" y="42" on="1"/>
        <pt x="223" y="42" on="0"/>
        <pt x="251" y="58" on="0"/>
        <pt x="257" y="64" on="1"/>
        <pt x="288" y="92" on="0"/>
        <pt x="302" y="140" on="1"/>
        <pt x="307" y="156" on="0"/>
        <pt x="314" y="162" on="0"/>
        <pt x="330" y="162" on="1"/>
        <pt x="336" y="162" on="1"/>
        <pt x="357" y="162" on="0"/>
        <pt x="360" y="160" on="1"/>
        <pt x="367" y="156" on="0"/>
        <pt x="367" y="140" on="0"/>
        <pt x="356" y="114" on="1"/>
        <pt x="335" y="63" on="0"/>
        <pt x="253" y="-8" on="0"/>
      </contour>
    </TTGlyph>
    <TTGlyph name="iota" xMin="38" yMin="-8" xMax="386" yMax="452">
      <contour>
        <pt x="161" y="-8" on="1"/>
        <pt x="110" y="-8" on="0"/>
        <pt x="38" y="40" on="0"/>
        <pt x="38" y="85" on="1"/>
        <pt x="38" y="98" on="0"/>
        <pt x="56" y="146" on="1"/>
        <pt x="91" y="241" on="0"/>
        <pt x="123" y="368" on="1"/>
        <pt x="132" y="404" on="0"/>
        <pt x="140" y="417" on="1"/>
        <pt x="164" y="452" on="0"/>
        <pt x="203" y="452" on="1"/>
        <pt x="226" y="452" on="0"/>
        <pt x="257" y="426" on="0"/>
        <pt x="257" y="404" on="1"/>
        <pt x="257" y="394" on="0"/>
        <pt x="251" y="369" on="1"/>
        <pt x="212" y="216" on="0"/>
        <pt x="171" y="111" on="1"/>
        <pt x="157" y="79" on="0"/>
        <pt x="157" y="57" on="1"/>
        <pt x="157" y="43" on="0"/>
        <pt x="166" y="43" on="1"/>
        <pt x="220" y="43" on="0"/>
        <pt x="308" y="102" on="0"/>
        <pt x="322" y="144" on="1"/>
        <pt x="326" y="156" on="0"/>
        <pt x="331" y="160" on="1"/>
        <pt x="335" y="162" on="0"/>
        <pt x="355" y="162" on="1"/>
        <pt x="376" y="162" on="0"/>
        <pt x="379" y="160" on="1"/>
        <pt x="386" y="156" on="0"/>
        <pt x="386" y="148" on="1"/>
        <pt x="386" y="136" on="0"/>
        <pt x="374" y="112" on="1"/>
        <pt x="353" y="73" on="0"/>
        <pt x="278" y="16" on="0"/>
        <pt x="232" y="3" on="1"/>
        <pt x="193" y="-8" on="0"/>
      </contour>
    </TTGlyph>
    <TTGlyph name="j" xMin="-12" yMin="-202" xMax="456" yMax="694">
      <contour>
        <pt x="321" y="616" on="1"/>
        <pt x="321" y="646" on="0"/>
        <pt x="368" y="694" on="0"/>
        <pt x="400" y="694" on="1"/>
        <pt x="425" y="694" on="0"/>
        <pt x="456" y="665" on="0"/>
        <pt x="456" y="640" on="1"/>
        <pt x="456" y="611" on="0"/>
        <pt x="409" y="562" on="0"/>
        <pt x="376" y="562" on="1"/>
        <pt x="353" y="562" on="0"/>
        <pt x="321" y="592" on="0"/>
      </contour>
      <contour>
        <pt x="88" y="-202" on="1"/>
        <pt x="45" y="-202" on="0"/>
        <pt x="-12" y="-162" on="0"/>
        <pt x="-12" y="-125" on="1"/>
        <pt x="-12" y="-94" on="0"/>
        <pt x="34" y="-43" on="0"/>
        <pt x="68" y="-43" on="1"/>
        <pt x="92" y="-43" on="0"/>
        <pt x="124" y="-71" on="0"/>
        <pt x="124" y="-93" on="1"/>
        <pt x="124" y="-121" on="0"/>
        <pt x="106" y="-144" on="1"/>
        <pt x="101" y="-150" on="0"/>
        <pt x="103" y="-150" on="1"/>
        <pt x="111" y="-150" on="0"/>
        <pt x="127" y="-142" on="1"/>
        <pt x="170" y="-120" on="0"/>
        <pt x="191" y="-64" on="1"/>
        <pt x="194" y="-57" on="0"/>
        <pt x="291" y="329" on="0"/>
        <pt x="294" y="345" on="1"/>
        <pt x="297" y="360" on="0"/>
        <pt x="297" y="373" on="1"/>
        <pt x="297" y="389" on="0"/>
        <pt x="289" y="401" on="0"/>
        <pt x="276" y="401" on="1"/>
        <pt x="227" y="398" on="0"/>
        <pt x="186" y="347" on="1"/>
        <pt x="170" y="327" on="0"/>
        <pt x="158" y="303" on="1"/>
        <pt x="151" y="287" on="0"/>
        <pt x="144" y="282" on="0"/>
        <pt x="129" y="282" on="1"/>
        <pt x="123" y="282" on="1"/>
        <pt x="103" y="282" on="0"/>
        <pt x="99" y="284" on="1"/>
        <pt x="92" y="288" on="0"/>
        <pt x="92" y="298" on="1"/>
        <pt x="94" y="311" on="0"/>
        <pt x="119" y="350" on="1"/>
        <pt x="161" y="414" on="0"/>
        <pt x="227" y="440" on="1"/>
        <pt x="253" y="451" on="0"/>
        <pt x="279" y="451" on="1"/>
        <pt x="397" y="451" on="0"/>
        <pt x="418" y="376" on="1"/>
        <pt x="420" y="370" on="0"/>
        <pt x="420" y="354" on="1"/>
        <pt x="420" y="339" on="1"/>
        <pt x="371" y="142" on="1"/>
        <pt x="321" y="-58" on="0"/>
        <pt x="319" y="-63" on="1"/>
        <pt x="304" y="-117" on="0"/>
        <pt x="196" y="-188" on="0"/>
        <pt x="129" y="-199" on="1"/>
        <pt x="111" y="-202" on="0"/>
      </contour>
    </TTGlyph>
    <TTGlyph name="k" xMin="45" yMin="-8" xMax="578" yMax="694">
      <contour>
        <pt x="99" y="-8" on="1"/>
        <pt x="78" y="-8" on="0"/>
        <pt x="45" y="19" on="0"/>
        <pt x="45" y="39" on="1"/>
        <pt x="45" y="51" on="0"/>
        <pt x="116" y="336" on="1"/>
        <pt x="188" y="622" on="1"/>
        <pt x="184" y="622" on="1"/>
        <pt x="183" y="622" on="0"/>
        <pt x="175" y="623" on="0"/>
        <pt x="162" y="624" on="0"/>
        <pt x="152" y="624" on="0"/>
        <pt x="140" y="624" on="0"/>
        <pt x="132" y="625" on="0"/>
        <pt x="131" y="625" on="1"/>
        <pt x="119" y="628" on="0"/>
        <pt x="119" y="642" on="1"/>
        <pt x="119" y="647" on="0"/>
        <pt x="127" y="676" on="0"/>
        <pt x="129" y="679" on="1"/>
        <pt x="133" y="684" on="0"/>
        <pt x="155" y="687" on="0"/>
        <pt x="220" y="690" on="1"/>
        <pt x="293" y="694" on="0"/>
        <pt x="307" y="694" on="1"/>
        <pt x="325" y="694" on="0"/>
        <pt x="328" y="679" on="1"/>
        <pt x="328" y="674" on="0"/>
        <pt x="280" y="482" on="1"/>
        <pt x="231" y="290" on="0"/>
        <pt x="231" y="287" on="1"/>
        <pt x="231" y="285" on="0"/>
        <pt x="234" y="286" on="1"/>
        <pt x="262" y="304" on="0"/>
        <pt x="313" y="351" on="1"/>
        <pt x="379" y="411" on="0"/>
        <pt x="413" y="430" on="1"/>
        <pt x="454" y="452" on="0"/>
        <pt x="493" y="452" on="1"/>
        <pt x="528" y="452" on="0"/>
        <pt x="564" y="403" on="0"/>
        <pt x="564" y="364" on="1"/>
        <pt x="564" y="264" on="0"/>
        <pt x="483" y="256" on="1"/>
        <pt x="480" y="256" on="1"/>
        <pt x="456" y="256" on="0"/>
        <pt x="425" y="284" on="0"/>
        <pt x="425" y="308" on="1"/>
        <pt x="425" y="342" on="0"/>
        <pt x="469" y="383" on="0"/>
        <pt x="502" y="389" on="1"/>
        <pt x="502" y="395" on="0"/>
        <pt x="496" y="398" on="1"/>
        <pt x="493" y="400" on="0"/>
        <pt x="483" y="400" on="1"/>
        <pt x="456" y="400" on="0"/>
        <pt x="427" y="385" on="1"/>
        <pt x="398" y="371" on="0"/>
        <pt x="330" y="311" on="1"/>
        <pt x="310" y="292" on="0"/>
        <pt x="269" y="258" on="0"/>
        <pt x="268" y="257" on="1"/>
        <pt x="274" y="256" on="0"/>
        <pt x="282" y="256" on="1"/>
        <pt x="323" y="249" on="0"/>
        <pt x="341" y="244" on="1"/>
        <pt x="389" y="230" on="0"/>
        <pt x="411" y="202" on="1"/>
        <pt x="431" y="180" on="0"/>
        <pt x="431" y="146" on="1"/>
        <pt x="431" y="133" on="0"/>
        <pt x="422" y="82" on="0"/>
        <pt x="422" y="73" on="1"/>
        <pt x="422" y="44" on="0"/>
        <pt x="439" y="44" on="1"/>
        <pt x="442" y="44" on="1"/>
        <pt x="451" y="44" on="0"/>
        <pt x="459" y="47" on="1"/>
        <pt x="494" y="64" on="0"/>
        <pt x="514" y="141" on="1"/>
        <pt x="518" y="157" on="0"/>
        <pt x="526" y="162" on="0"/>
        <pt x="568" y="162" on="0"/>
        <pt x="571" y="160" on="1"/>
        <pt x="578" y="156" on="0"/>
        <pt x="578" y="148" on="1"/>
        <pt x="578" y="139" on="0"/>
        <pt x="566" y="108" on="1"/>
        <pt x="532" y="24" on="0"/>
        <pt x="473" y="0" on="1"/>
        <pt x="456" y="-7" on="0"/>
        <pt x="440" y="-7" on="1"/>
        <pt x="432" y="-7" on="1"/>
        <pt x="377" y="-7" on="0"/>
        <pt x="299" y="47" on="0"/>
        <pt x="299" y="94" on="1"/>
        <pt x="299" y="100" on="0"/>
        <pt x="304" y="132" on="0"/>
        <pt x="304" y="139" on="1"/>
        <pt x="304" y="181" on="0"/>
        <pt x="246" y="198" on="1"/>
        <pt x="226" y="206" on="0"/>
        <pt x="212" y="206" on="1"/>
        <pt x="211" y="206" on="1"/>
        <pt x="191" y="124" on="1"/>
        <pt x="168" y="37" on="0"/>
        <pt x="160" y="24" on="1"/>
        <pt x="137" y="-8" on="0"/>
      </contour>
    </TTGlyph>
    <TTGlyph name="kappa" xMin="45" yMin="-8" xMax="642" yMax="452">
      <contour>
        <pt x="98" y="-8" on="1"/>
        <pt x="77" y="-8" on="0"/>
        <pt x="45" y="18" on="0"/>
        <pt x="45" y="39" on="1"/>
        <pt x="45" y="48" on="0"/>
        <pt x="90" y="230" on="0"/>
        <pt x="112" y="317" on="1"/>
        <pt x="134" y="404" on="1"/>
        <pt x="142" y="424" on="0"/>
        <pt x="180" y="452" on="0"/>
        <pt x="204" y="452" on="1"/>
        <pt x="226" y="452" on="0"/>
        <pt x="258" y="427" on="0"/>
        <pt x="258" y="405" on="1"/>
        <pt x="258" y="392" on="0"/>
        <pt x="244" y="336" on="1"/>
        <pt x="230" y="284" on="0"/>
        <pt x="230" y="281" on="1"/>
        <pt x="230" y="280" on="0"/>
        <pt x="241" y="287" on="0"/>
        <pt x="258" y="297" on="0"/>
        <pt x="265" y="302" on="1"/>
        <pt x="286" y="315" on="0"/>
        <pt x="330" y="349" on="1"/>
        <pt x="397" y="402" on="0"/>
        <pt x="436" y="422" on="1"/>
        <pt x="480" y="444" on="0"/>
        <pt x="519" y="444" on="1"/>
        <pt x="545" y="444" on="0"/>
        <pt x="574" y="416" on="0"/>
        <pt x="574" y="391" on="1"/>
        <pt x="574" y="360" on="0"/>
        <pt x="527" y="312" on="0"/>
        <pt x="491" y="312" on="1"/>
        <pt x="467" y="312" on="0"/>
        <pt x="439" y="341" on="0"/>
        <pt x="439" y="364" on="1"/>
        <pt x="439" y="372" on="0"/>
        <pt x="438" y="372" on="1"/>
        <pt x="436" y="372" on="0"/>
        <pt x="407" y="353" on="1"/>
        <pt x="385" y="339" on="0"/>
        <pt x="343" y="306" on="1"/>
        <pt x="331" y="297" on="0"/>
        <pt x="304" y="277" on="0"/>
        <pt x="287" y="264" on="0"/>
        <pt x="283" y="260" on="1"/>
        <pt x="285" y="260" on="1"/>
        <pt x="287" y="260" on="0"/>
        <pt x="294" y="259" on="0"/>
        <pt x="297" y="259" on="1"/>
        <pt x="495" y="250" on="0"/>
        <pt x="495" y="146" on="1"/>
        <pt x="495" y="133" on="0"/>
        <pt x="486" y="83" on="0"/>
        <pt x="486" y="74" on="1"/>
        <pt x="486" y="43" on="0"/>
        <pt x="505" y="43" on="1"/>
        <pt x="520" y="43" on="0"/>
        <pt x="531" y="53" on="1"/>
        <pt x="559" y="72" on="0"/>
        <pt x="578" y="141" on="1"/>
        <pt x="582" y="157" on="0"/>
        <pt x="590" y="162" on="0"/>
        <pt x="632" y="162" on="0"/>
        <pt x="635" y="160" on="1"/>
        <pt x="642" y="156" on="0"/>
        <pt x="642" y="148" on="1"/>
        <pt x="642" y="139" on="0"/>
        <pt x="630" y="108" on="1"/>
        <pt x="595" y="25" on="0"/>
        <pt x="538" y="0" on="1"/>
        <pt x="521" y="-7" on="0"/>
        <pt x="504" y="-7" on="1"/>
        <pt x="495" y="-7" on="1"/>
        <pt x="439" y="-7" on="0"/>
        <pt x="363" y="48" on="0"/>
        <pt x="363" y="96" on="1"/>
        <pt x="363" y="103" on="0"/>
        <pt x="369" y="138" on="0"/>
        <pt x="369" y="142" on="1"/>
        <pt x="369" y="177" on="0"/>
        <pt x="320" y="195" on="1"/>
        <pt x="291" y="205" on="0"/>
        <pt x="221" y="209" on="1"/>
        <pt x="212" y="210" on="1"/>
        <pt x="211" y="206" on="1"/>
        <pt x="211" y="205" on="0"/>
        <pt x="170" y="41" on="0"/>
        <pt x="169" y="40" on="1"/>
        <pt x="148" y="-8" on="0"/>
      </contour>
    </TTGlyph>
    <TTGlyph name="l" xMin="27" yMin="-8" xMax="296" yMax="694">
      <contour>
        <pt x="275" y="694" on="1"/>
        <pt x="293" y="694" on="0"/>
        <pt x="296" y="679" on="1"/>
        <pt x="151" y="91" on="1"/>
        <pt x="150" y="85" on="0"/>
        <pt x="150" y="71" on="1"/>
        <pt x="150" y="43" on="0"/>
        <pt x="168" y="43" on="1"/>
        <pt x="187" y="43" on="0"/>
        <pt x="205" y="75" on="1"/>
        <pt x="216" y="96" on="0"/>
        <pt x="225" y="134" on="1"/>
        <pt x="230" y="155" on="0"/>
        <pt x="238" y="162" on="0"/>
        <pt x="255" y="162" on="1"/>
        <pt x="260" y="162" on="1"/>
        <pt x="281" y="162" on="0"/>
        <pt x="284" y="160" on="1"/>
        <pt x="291" y="156" on="0"/>
        <pt x="291" y="148" on="1"/>
        <pt x="291" y="144" on="0"/>
        <pt x="288" y="135" on="1"/>
        <pt x="268" y="62" on="0"/>
        <pt x="231" y="24" on="1"/>
        <pt x="198" y="-8" on="0"/>
        <pt x="157" y="-8" on="1"/>
        <pt x="107" y="-8" on="0"/>
        <pt x="39" y="34" on="0"/>
        <pt x="29" y="68" on="1"/>
        <pt x="27" y="74" on="0"/>
        <pt x="27" y="91" on="1"/>
        <pt x="27" y="106" on="1"/>
        <pt x="156" y="622" on="1"/>
        <pt x="152" y="622" on="1"/>
        <pt x="151" y="622" on="0"/>
        <pt x="143" y="623" on="0"/>
        <pt x="130" y="624" on="0"/>
        <pt x="120" y="624" on="0"/>
        <pt x="108" y="624" on="0"/>
        <pt x="100" y="625" on="0"/>
        <pt x="99" y="625" on="1"/>
        <pt x="87" y="628" on="0"/>
        <pt x="87" y="642" on="1"/>
        <pt x="87" y="647" on="0"/>
        <pt x="95" y="676" on="0"/>
        <pt x="97" y="679" on="1"/>
        <pt x="101" y="684" on="0"/>
        <pt x="123" y="687" on="0"/>
        <pt x="188" y="690" on="1"/>
        <pt x="261" y="694" on="0"/>
      </contour>
    </TTGlyph>
    <TTGlyph name="lambda" xMin="40" yMin="-13" xMax="652" yMax="694">
      <contour>
        <pt x="95" y="-13" on="1"/>
        <pt x="74" y="-13" on="0"/>
        <pt x="40" y="17" on="0"/>
        <pt x="40" y="65" on="0"/>
        <pt x="61" y="88" on="1"/>
        <pt x="65" y="92" on="0"/>
        <pt x="356" y="322" on="0"/>
        <pt x="357" y="322" on="1"/>
        <pt x="359" y="324" on="0"/>
        <pt x="297" y="461" on="1"/>
        <pt x="241" y="590" on="0"/>
        <pt x="235" y="602" on="1"/>
        <pt x="215" y="641" on="0"/>
        <pt x="185" y="643" on="1"/>
        <pt x="182" y="643" on="0"/>
        <pt x="174" y="645" on="0"/>
        <pt x="173" y="645" on="1"/>
        <pt x="161" y="651" on="0"/>
        <pt x="161" y="666" on="1"/>
        <pt x="161" y="675" on="0"/>
        <pt x="173" y="690" on="0"/>
        <pt x="189" y="694" on="0"/>
        <pt x="212" y="694" on="1"/>
        <pt x="335" y="694" on="0"/>
        <pt x="358" y="660" on="1"/>
        <pt x="362" y="655" on="0"/>
        <pt x="629" y="50" on="0"/>
        <pt x="633" y="43" on="1"/>
        <pt x="644" y="21" on="0"/>
        <pt x="647" y="18" on="1"/>
        <pt x="652" y="10" on="0"/>
        <pt x="652" y="6" on="1"/>
        <pt x="652" y="-2" on="0"/>
        <pt x="645" y="-6" on="1"/>
        <pt x="642" y="-8" on="0"/>
        <pt x="589" y="-8" on="1"/>
        <pt x="538" y="-8" on="1"/>
        <pt x="526" y="-5" on="1"/>
        <pt x="500" y="3" on="0"/>
        <pt x="495" y="14" on="1"/>
        <pt x="491" y="22" on="0"/>
        <pt x="387" y="259" on="1"/>
        <pt x="336" y="207" on="0"/>
        <pt x="235" y="103" on="0"/>
        <pt x="190" y="56" on="0"/>
        <pt x="148" y="13" on="0"/>
        <pt x="130" y="-2" on="0"/>
        <pt x="123" y="-6" on="1"/>
        <pt x="110" y="-13" on="0"/>
      </contour>
    </TTGlyph>
    <TTGlyph name="m" xMin="24" yMin="-8" xMax="1006" yMax="452">
      <contour>
        <pt x="143" y="-8" on="1"/>
        <pt x="122" y="-8" on="0"/>
        <pt x="90" y="18" on="0"/>
        <pt x="90" y="39" on="1"/>
        <pt x="90" y="47" on="0"/>
        <pt x="127" y="201" on="0"/>
        <pt x="146" y="274" on="1"/>
        <pt x="164" y="347" on="1"/>
        <pt x="166" y="355" on="0"/>
        <pt x="166" y="372" on="1"/>
        <pt x="166" y="401" on="0"/>
        <pt x="149" y="401" on="1"/>
        <pt x="113" y="401" on="0"/>
        <pt x="89" y="306" on="1"/>
        <pt x="84" y="288" on="0"/>
        <pt x="76" y="282" on="0"/>
        <pt x="34" y="282" on="0"/>
        <pt x="31" y="284" on="1"/>
        <pt x="24" y="288" on="0"/>
        <pt x="24" y="296" on="1"/>
        <pt x="24" y="298" on="1"/>
        <pt x="25" y="301" on="0"/>
        <pt x="27" y="307" on="0"/>
        <pt x="27" y="310" on="1"/>
        <pt x="50" y="391" on="0"/>
        <pt x="93" y="428" on="1"/>
        <pt x="123" y="452" on="0"/>
        <pt x="159" y="452" on="1"/>
        <pt x="203" y="452" on="0"/>
        <pt x="234" y="435" on="1"/>
        <pt x="268" y="419" on="0"/>
        <pt x="285" y="384" on="1"/>
        <pt x="293" y="390" on="0"/>
        <pt x="298" y="395" on="1"/>
        <pt x="342" y="433" on="0"/>
        <pt x="389" y="445" on="1"/>
        <pt x="411" y="451" on="0"/>
        <pt x="446" y="451" on="1"/>
        <pt x="556" y="451" on="0"/>
        <pt x="589" y="390" on="1"/>
        <pt x="594" y="380" on="0"/>
        <pt x="595" y="375" on="1"/>
        <pt x="604" y="384" on="1"/>
        <pt x="646" y="425" on="0"/>
        <pt x="695" y="441" on="1"/>
        <pt x="728" y="452" on="0"/>
        <pt x="762" y="452" on="1"/>
        <pt x="893" y="452" on="0"/>
        <pt x="916" y="367" on="1"/>
        <pt x="918" y="356" on="0"/>
        <pt x="918" y="334" on="1"/>
        <pt x="918" y="307" on="0"/>
        <pt x="911" y="281" on="1"/>
        <pt x="898" y="226" on="0"/>
        <pt x="860" y="127" on="1"/>
        <pt x="840" y="75" on="0"/>
        <pt x="840" y="57" on="1"/>
        <pt x="840" y="43" on="0"/>
        <pt x="849" y="43" on="1"/>
        <pt x="876" y="43" on="0"/>
        <pt x="926" y="96" on="0"/>
        <pt x="940" y="138" on="1"/>
        <pt x="945" y="156" on="0"/>
        <pt x="953" y="162" on="0"/>
        <pt x="969" y="162" on="1"/>
        <pt x="975" y="162" on="1"/>
        <pt x="996" y="162" on="0"/>
        <pt x="999" y="160" on="1"/>
        <pt x="1006" y="156" on="0"/>
        <pt x="1006" y="148" on="1"/>
        <pt x="1006" y="144" on="0"/>
        <pt x="997" y="117" on="1"/>
        <pt x="977" y="67" on="0"/>
        <pt x="892" y="-8" on="0"/>
        <pt x="841" y="-8" on="1"/>
        <pt x="782" y="-8" on="0"/>
        <pt x="746" y="26" on="1"/>
        <pt x="721" y="49" on="0"/>
        <pt x="721" y="82" on="1"/>
        <pt x="721" y="100" on="0"/>
        <pt x="736" y="137" on="1"/>
        <pt x="772" y="231" on="0"/>
        <pt x="787" y="292" on="1"/>
        <pt x="796" y="328" on="0"/>
        <pt x="796" y="351" on="1"/>
        <pt x="796" y="401" on="0"/>
        <pt x="753" y="401" on="1"/>
        <pt x="706" y="401" on="0"/>
        <pt x="665" y="371" on="1"/>
        <pt x="627" y="344" on="0"/>
        <pt x="599" y="298" on="1"/>
        <pt x="597" y="294" on="0"/>
        <pt x="537" y="50" on="0"/>
        <pt x="533" y="40" on="1"/>
        <pt x="512" y="-8" on="0"/>
        <pt x="462" y="-8" on="1"/>
        <pt x="441" y="-8" on="0"/>
        <pt x="409" y="18" on="0"/>
        <pt x="409" y="39" on="1"/>
        <pt x="409" y="48" on="0"/>
        <pt x="441" y="180" on="0"/>
        <pt x="475" y="316" on="0"/>
        <pt x="476" y="320" on="1"/>
        <pt x="478" y="330" on="0"/>
        <pt x="478" y="348" on="1"/>
        <pt x="478" y="376" on="0"/>
        <pt x="458" y="400" on="0"/>
        <pt x="433" y="400" on="1"/>
        <pt x="379" y="400" on="0"/>
        <pt x="336" y="363" on="1"/>
        <pt x="301" y="332" on="0"/>
        <pt x="281" y="298" on="1"/>
        <pt x="278" y="293" on="0"/>
        <pt x="216" y="46" on="0"/>
        <pt x="214" y="40" on="1"/>
        <pt x="193" y="-8" on="0"/>
      </contour>
    </TTGlyph>
    <TTGlyph name="mu" xMin="34" yMin="-211" xMax="682" yMax="452">
      <contour>
        <pt x="429" y="46" on="1"/>
        <pt x="366" y="-8" on="0"/>
        <pt x="294" y="-8" on="1"/>
        <pt x="250" y="-8" on="0"/>
        <pt x="213" y="1" on="1"/>
        <pt x="201" y="4" on="1"/>
        <pt x="200" y="4" on="0"/>
        <pt x="183" y="-68" on="0"/>
        <pt x="161" y="-155" on="0"/>
        <pt x="155" y="-168" on="1"/>
        <pt x="135" y="-211" on="0"/>
        <pt x="86" y="-211" on="1"/>
        <pt x="62" y="-211" on="0"/>
        <pt x="33" y="-181" on="0"/>
        <pt x="34" y="-158" on="1"/>
        <pt x="37" y="-144" on="0"/>
        <pt x="169" y="390" on="0"/>
        <pt x="174" y="404" on="1"/>
        <pt x="182" y="424" on="0"/>
        <pt x="220" y="452" on="0"/>
        <pt x="244" y="452" on="1"/>
        <pt x="266" y="452" on="0"/>
        <pt x="298" y="426" on="0"/>
        <pt x="298" y="404" on="1"/>
        <pt x="298" y="395" on="0"/>
        <pt x="269" y="278" on="1"/>
        <pt x="240" y="160" on="0"/>
        <pt x="239" y="153" on="1"/>
        <pt x="235" y="133" on="0"/>
        <pt x="235" y="114" on="1"/>
        <pt x="235" y="43" on="0"/>
        <pt x="305" y="43" on="1"/>
        <pt x="349" y="43" on="0"/>
        <pt x="391" y="80" on="1"/>
        <pt x="412" y="99" on="0"/>
        <pt x="418" y="110" on="1"/>
        <pt x="420" y="112" on="0"/>
        <pt x="491" y="394" on="0"/>
        <pt x="492" y="397" on="1"/>
        <pt x="515" y="444" on="0"/>
        <pt x="562" y="444" on="1"/>
        <pt x="583" y="444" on="0"/>
        <pt x="615" y="418" on="0"/>
        <pt x="615" y="397" on="1"/>
        <pt x="615" y="382" on="0"/>
        <pt x="540" y="96" on="0"/>
        <pt x="540" y="72" on="1"/>
        <pt x="540" y="43" on="0"/>
        <pt x="559" y="43" on="1"/>
        <pt x="580" y="43" on="0"/>
        <pt x="604" y="89" on="0"/>
        <pt x="614" y="125" on="1"/>
        <pt x="615" y="131" on="0"/>
        <pt x="616" y="134" on="1"/>
        <pt x="621" y="155" on="0"/>
        <pt x="628" y="162" on="0"/>
        <pt x="646" y="162" on="1"/>
        <pt x="651" y="162" on="1"/>
        <pt x="672" y="162" on="0"/>
        <pt x="675" y="160" on="1"/>
        <pt x="682" y="156" on="0"/>
        <pt x="682" y="148" on="1"/>
        <pt x="682" y="144" on="0"/>
        <pt x="673" y="115" on="1"/>
        <pt x="637" y="7" on="0"/>
        <pt x="568" y="-6" on="1"/>
        <pt x="556" y="-8" on="0"/>
        <pt x="548" y="-8" on="1"/>
        <pt x="512" y="-8" on="0"/>
        <pt x="446" y="20" on="0"/>
        <pt x="433" y="41" on="1"/>
      </contour>
    </TTGlyph>
    <TTGlyph name="n" xMin="24" yMin="-8" xMax="687" yMax="452">
      <contour>
        <pt x="143" y="-8" on="1"/>
        <pt x="122" y="-8" on="0"/>
        <pt x="90" y="18" on="0"/>
        <pt x="90" y="39" on="1"/>
        <pt x="90" y="47" on="0"/>
        <pt x="127" y="201" on="0"/>
        <pt x="146" y="274" on="1"/>
        <pt x="164" y="347" on="1"/>
        <pt x="166" y="355" on="0"/>
        <pt x="166" y="372" on="1"/>
        <pt x="166" y="401" on="0"/>
        <pt x="149" y="401" on="1"/>
        <pt x="113" y="401" on="0"/>
        <pt x="89" y="306" on="1"/>
        <pt x="84" y="288" on="0"/>
        <pt x="76" y="282" on="0"/>
        <pt x="34" y="282" on="0"/>
        <pt x="31" y="284" on="1"/>
        <pt x="24" y="288" on="0"/>
        <pt x="24" y="296" on="1"/>
        <pt x="24" y="298" on="1"/>
        <pt x="25" y="301" on="0"/>
        <pt x="27" y="307" on="0"/>
        <pt x="27" y="310" on="1"/>
        <pt x="50" y="391" on="0"/>
        <pt x="93" y="428" on="1"/>
        <pt x="123" y="452" on="0"/>
        <pt x="159" y="452" on="1"/>
        <pt x="203" y="452" on="0"/>
        <pt x="234" y="435" on="1"/>
        <pt x="268" y="419" on="0"/>
        <pt x="285" y="384" on="1"/>
        <pt x="293" y="391" on="1"/>
        <pt x="345" y="436" on="0"/>
        <pt x="399" y="447" on="1"/>
        <pt x="421" y="452" on="0"/>
        <pt x="454" y="452" on="1"/>
        <pt x="576" y="447" on="0"/>
        <pt x="597" y="367" on="1"/>
        <pt x="599" y="356" on="0"/>
        <pt x="599" y="334" on="1"/>
        <pt x="599" y="307" on="0"/>
        <pt x="592" y="281" on="1"/>
        <pt x="579" y="226" on="0"/>
        <pt x="541" y="127" on="1"/>
        <pt x="521" y="74" on="0"/>
        <pt x="521" y="57" on="1"/>
        <pt x="521" y="43" on="0"/>
        <pt x="530" y="43" on="1"/>
        <pt x="557" y="43" on="0"/>
        <pt x="607" y="96" on="0"/>
        <pt x="621" y="138" on="1"/>
        <pt x="626" y="156" on="0"/>
        <pt x="634" y="162" on="0"/>
        <pt x="650" y="162" on="1"/>
        <pt x="656" y="162" on="1"/>
        <pt x="677" y="162" on="0"/>
        <pt x="680" y="160" on="1"/>
        <pt x="687" y="156" on="0"/>
        <pt x="687" y="148" on="1"/>
        <pt x="687" y="144" on="0"/>
        <pt x="678" y="117" on="1"/>
        <pt x="658" y="67" on="0"/>
        <pt x="573" y="-8" on="0"/>
        <pt x="522" y="-8" on="1"/>
        <pt x="463" y="-8" on="0"/>
        <pt x="427" y="26" on="1"/>
        <pt x="402" y="49" on="0"/>
        <pt x="402" y="82" on="1"/>
        <pt x="402" y="100" on="0"/>
        <pt x="417" y="137" on="1"/>
        <pt x="453" y="231" on="0"/>
        <pt x="468" y="292" on="1"/>
        <pt x="477" y="328" on="0"/>
        <pt x="477" y="351" on="1"/>
        <pt x="477" y="401" on="0"/>
        <pt x="434" y="401" on="1"/>
        <pt x="387" y="401" on="0"/>
        <pt x="346" y="371" on="1"/>
        <pt x="314" y="348" on="0"/>
        <pt x="285" y="305" on="1"/>
        <pt x="278" y="295" on="1"/>
        <pt x="247" y="170" on="1"/>
        <pt x="216" y="46" on="0"/>
        <pt x="214" y="40" on="1"/>
        <pt x="193" y="-8" on="0"/>
      </contour>
    </TTGlyph>
</ttFont>
